<svg width="40" height="40" viewBox="0 0 40 40" fill="none" xmlns="http://www.w3.org/2000/svg">
    <path d="M16 16.5334C15.5547 16.5334 15.128 16.6134 14.7307 16.7574C14.1387 14.7787 12.304 13.3334 10.1333 13.3334C8.61333 13.3334 7.256 14.0427 6.37867 15.1467C6.05867 15.0107 5.704 14.9334 5.33333 14.9334C3.86133 14.9334 2.66667 16.128 2.66667 17.6C2.66667 17.6134 2.66667 17.624 2.66667 17.6374C1.16 17.872 0 19.184 0 20.752C0 22.544 1.45333 23.9974 3.24533 23.9974H16C18.0613 23.9974 19.7333 22.3254 19.7333 20.264C19.7333 18.2027 18.0613 16.5307 16 16.5307V16.5334Z" fill="white"/>
    <path d="M20.0001 33.3333C27.3639 33.3333 33.3334 27.3638 33.3334 20C33.3334 12.6362 27.3639 6.66663 20.0001 6.66663C12.6363 6.66663 6.66675 12.6362 6.66675 20C6.66675 27.3638 12.6363 33.3333 20.0001 33.3333Z" fill="#FFC800"/>
    <path d="M21.3334 1.33333C21.3334 0.596954 20.7365 0 20.0001 0C19.2637 0 18.6667 0.596954 18.6667 1.33333V4C18.6667 4.73638 19.2637 5.33333 20.0001 5.33333C20.7365 5.33333 21.3334 4.73638 21.3334 4V1.33333Z" fill="#FF9600"/>
    <path d="M18.6666 38.6667C18.6666 39.403 19.2635 40 19.9999 40C20.7363 40 21.3333 39.403 21.3333 38.6667V36C21.3333 35.2636 20.7363 34.6667 19.9999 34.6667C19.2635 34.6667 18.6666 35.2636 18.6666 36V38.6667Z" fill="#FF9600"/>
    <path d="M38.6667 21.3333C39.403 21.3333 40 20.7363 40 20C40 19.2636 39.403 18.6666 38.6667 18.6666H36C35.2636 18.6666 34.6667 19.2636 34.6667 20C34.6667 20.7363 35.2636 21.3333 36 21.3333H38.6667Z" fill="#FF9600"/>
    <path d="M1.33333 18.6667C0.596954 18.6667 0 19.2637 0 20C0 20.7364 0.596954 21.3334 1.33333 21.3334H4C4.73638 21.3334 5.33333 20.7364 5.33333 20C5.33333 19.2637 4.73638 18.6667 4 18.6667H1.33333Z" fill="#FF9600"/>
    <path d="M7.74371 5.85834C7.22301 5.33764 6.37879 5.33764 5.85809 5.85834C5.33739 6.37904 5.33739 7.22326 5.85809 7.74396L7.74371 9.62957C8.26441 10.1503 9.10863 10.1503 9.62933 9.62957C10.15 9.10888 10.15 8.26466 9.62933 7.74396L7.74371 5.85834Z" fill="#FF9600"/>
    <path d="M32.2578 34.1417C32.7785 34.6624 33.6227 34.6624 34.1434 34.1417C34.6641 33.621 34.6641 32.7767 34.1434 32.256L32.2578 30.3704C31.7371 29.8497 30.8928 29.8497 30.3721 30.3704C29.8514 30.8911 29.8514 31.7353 30.3721 32.256L32.2578 34.1417Z" fill="#FF9600"/>
    <path d="M34.1408 7.74298C34.6615 7.22228 34.6615 6.37806 34.1408 5.85736C33.6201 5.33666 32.7759 5.33666 32.2552 5.85736L30.3696 7.74298C29.8489 8.26368 29.8489 9.1079 30.3696 9.6286C30.8903 10.1493 31.7345 10.1493 32.2552 9.6286L34.1408 7.74298Z" fill="#FF9600"/>
    <path d="M5.85773 32.257C5.33703 32.7777 5.33703 33.6219 5.85773 34.1426C6.37843 34.6633 7.22265 34.6633 7.74335 34.1426L9.62896 32.257C10.1497 31.7363 10.1497 30.8921 9.62897 30.3714C9.10827 29.8507 8.26405 29.8507 7.74335 30.3714L5.85773 32.257Z" fill="#FF9600"/>
    <path d="M36.2667 27.2C35.8214 27.2 35.3947 27.28 34.9974 27.424C34.4054 25.4453 32.5707 24 30.4 24C27.9094 24 25.864 25.896 25.624 28.3227C25.4294 28.2853 25.2267 28.2667 25.0214 28.2667C23.288 28.2667 21.8667 29.6853 21.8667 31.4213C21.8667 33.2133 23.32 34.6667 25.112 34.6667H36.2667C38.328 34.6667 40 32.9947 40 30.9333C40 28.872 38.328 27.2 36.2667 27.2Z" fill="white"/>
</svg>
    