<svg width="40" height="40" viewBox="0 0 40 40" fill="none" xmlns="http://www.w3.org/2000/svg">
    <g clip-path="url(#clip0_442_1321)">
    <path d="M20.0001 33.3334C27.3639 33.3334 33.3334 27.3639 33.3334 20.0001C33.3334 12.6363 27.3639 6.66675 20.0001 6.66675C12.6363 6.66675 6.66675 12.6363 6.66675 20.0001C6.66675 27.3639 12.6363 33.3334 20.0001 33.3334Z" fill="#DCF0FF"/>
    <path d="M10.6667 16C10.6667 13.3413 11.4481 10.8666 12.7894 8.78931C9.10675 11.1626 6.66675 15.296 6.66675 20C6.66675 27.3626 12.6374 33.3333 20.0001 33.3333C24.7067 33.3333 28.8401 30.8933 31.2107 27.2106C29.1307 28.552 26.6561 29.3333 24.0001 29.3333C16.6374 29.3333 10.6667 23.3626 10.6667 16Z" fill="#C8E6FF"/>
    <path opacity="0.5" d="M35.3333 12C34.7786 12 34.2426 12.0987 33.7493 12.28C33.0106 9.80533 30.7173 8 27.9999 8C24.8879 8 22.3279 10.3707 22.0293 13.4053C21.7839 13.36 21.5333 13.3333 21.2746 13.3333C19.1066 13.3333 17.3333 15.1067 17.3333 17.2747C17.3333 19.5147 19.1493 21.3333 21.3919 21.3333H35.3333C37.9093 21.3333 39.9999 19.2427 39.9999 16.6667C39.9999 14.088 37.9119 12 35.3333 12Z" fill="#999999"/>
    <path opacity="0.5" d="M24 26.1333C23.3333 26.1333 22.6933 26.2506 22.0986 26.4693C21.2106 23.4986 18.4586 21.3333 15.2 21.3333C12.9173 21.3333 10.8853 22.3946 9.56531 24.0533C9.08531 23.8479 8.55465 23.7333 7.99998 23.7333C5.79198 23.7333 3.99998 25.5253 3.99998 27.7333C3.99998 27.7519 3.99998 27.7706 3.99998 27.7893C1.74131 28.1413 -0.00268555 30.1093 -0.00268555 32.4639C-0.00268555 35.1546 2.17865 37.3333 4.86665 37.3333H23.9973C27.0906 37.3333 29.5973 34.8266 29.5973 31.7333C29.5973 28.6399 27.0906 26.1333 23.9973 26.1333H24Z" fill="#999999"/>
    <path opacity="0.5" d="M16 5.86675C15.5547 5.86675 15.128 5.94675 14.7307 6.09075C14.1387 4.11208 12.304 2.66675 10.1333 2.66675C8.61333 2.66675 7.256 3.37608 6.37867 4.48008C6.05867 4.34408 5.704 4.26675 5.33333 4.26675C3.86133 4.26675 2.66667 5.46141 2.66667 6.93341C2.66667 6.94675 2.66667 6.95741 2.66667 6.97075C1.16 7.20541 0 8.51742 0 10.0854C0 11.8774 1.45333 13.3307 3.24533 13.3307H16C18.0613 13.3307 19.7333 11.6587 19.7333 9.59742C19.7333 7.53608 18.0613 5.86408 16 5.86408V5.86675Z" fill="#999999"/>
    </g>
    <defs>
    <clipPath id="clip0_442_1321">
    <rect width="40" height="40" fill="white"/>
    </clipPath>
    </defs>
</svg>
    