<svg width="33" height="40" viewBox="0 0 33 40" fill="none" xmlns="http://www.w3.org/2000/svg">
    <path d="M7.87472 18.2213C7.87472 17.6484 7.41029 17.184 6.83738 17.184C6.26448 17.184 5.80005 17.6484 5.80005 18.2213V30.664C5.80005 31.2369 6.26448 31.7013 6.83738 31.7013C7.41029 31.7013 7.87472 31.2369 7.87472 30.664V18.2213Z" fill="#8CBEFF"/>
    <path d="M7.87472 34.8159C7.87472 34.243 7.41029 33.7786 6.83738 33.7786C6.26448 33.7786 5.80005 34.243 5.80005 34.8159V36.8906C5.80005 37.4635 6.26448 37.9279 6.83738 37.9279C7.41029 37.9279 7.87472 37.4635 7.87472 36.8906V34.8159Z" fill="#8CBEFF"/>
    <path d="M7.87472 18.2213C7.87472 17.6484 7.41029 17.184 6.83738 17.184C6.26448 17.184 5.80005 17.6484 5.80005 18.2213V30.664C5.80005 31.2369 6.26448 31.7013 6.83738 31.7013C7.41029 31.7013 7.87472 31.2369 7.87472 30.664V18.2213Z" fill="#8CBEFF"/>
    <path d="M7.87472 34.8159C7.87472 34.243 7.41029 33.7786 6.83738 33.7786C6.26448 33.7786 5.80005 34.243 5.80005 34.8159V36.8906C5.80005 37.4635 6.26448 37.9279 6.83738 37.9279C7.41029 37.9279 7.87472 37.4635 7.87472 36.8906V34.8159Z" fill="#8CBEFF"/>
    <path d="M12.0241 20.296C12.0241 19.7231 11.5597 19.2587 10.9868 19.2587C10.4139 19.2587 9.94946 19.7231 9.94946 20.296V32.7387C9.94946 33.3116 10.4139 33.776 10.9868 33.776C11.5597 33.776 12.0241 33.3116 12.0241 32.7387V20.296Z" fill="#8CBEFF"/>
    <path d="M12.0241 36.8879C12.0241 36.315 11.5597 35.8506 10.9868 35.8506C10.4139 35.8506 9.94946 36.315 9.94946 36.8879V38.9626C9.94946 39.5355 10.4139 39.9999 10.9868 39.9999C11.5597 39.9999 12.0241 39.5355 12.0241 38.9626V36.8879Z" fill="#8CBEFF"/>
    <path d="M12.0241 20.296C12.0241 19.7231 11.5597 19.2587 10.9868 19.2587C10.4139 19.2587 9.94946 19.7231 9.94946 20.296V32.7387C9.94946 33.3116 10.4139 33.776 10.9868 33.776C11.5597 33.776 12.0241 33.3116 12.0241 32.7387V20.296Z" fill="#8CBEFF"/>
    <path d="M12.0241 36.8879C12.0241 36.315 11.5597 35.8506 10.9868 35.8506C10.4139 35.8506 9.94946 36.315 9.94946 36.8879V38.9626C9.94946 39.5355 10.4139 39.9999 10.9868 39.9999C11.5597 39.9999 12.0241 39.5355 12.0241 38.9626V36.8879Z" fill="#8CBEFF"/>
    <path d="M16.1706 18.2213C16.1706 17.6484 15.7062 17.184 15.1333 17.184C14.5604 17.184 14.0959 17.6484 14.0959 18.2213V30.664C14.0959 31.2369 14.5604 31.7013 15.1333 31.7013C15.7062 31.7013 16.1706 31.2369 16.1706 30.664V18.2213Z" fill="#8CBEFF"/>
    <path d="M16.1706 34.8159C16.1706 34.243 15.7062 33.7786 15.1333 33.7786C14.5604 33.7786 14.0959 34.243 14.0959 34.8159V36.8906C14.0959 37.4635 14.5604 37.9279 15.1333 37.9279C15.7062 37.9279 16.1706 37.4635 16.1706 36.8906V34.8159Z" fill="#8CBEFF"/>
    <path d="M16.1706 18.2213C16.1706 17.6484 15.7062 17.184 15.1333 17.184C14.5604 17.184 14.0959 17.6484 14.0959 18.2213V30.664C14.0959 31.2369 14.5604 31.7013 15.1333 31.7013C15.7062 31.7013 16.1706 31.2369 16.1706 30.664V18.2213Z" fill="#8CBEFF"/>
    <path d="M16.1706 34.8159C16.1706 34.243 15.7062 33.7786 15.1333 33.7786C14.5604 33.7786 14.0959 34.243 14.0959 34.8159V36.8906C14.0959 37.4635 14.5604 37.9279 15.1333 37.9279C15.7062 37.9279 16.1706 37.4635 16.1706 36.8906V34.8159Z" fill="#8CBEFF"/>
    <path d="M20.32 20.296C20.32 19.7231 19.8556 19.2587 19.2827 19.2587C18.7098 19.2587 18.2454 19.7231 18.2454 20.296V32.7387C18.2454 33.3116 18.7098 33.776 19.2827 33.776C19.8556 33.776 20.32 33.3116 20.32 32.7387V20.296Z" fill="#8CBEFF"/>
    <path d="M20.32 36.8879C20.32 36.315 19.8556 35.8506 19.2827 35.8506C18.7098 35.8506 18.2454 36.315 18.2454 36.8879V38.9626C18.2454 39.5355 18.7098 39.9999 19.2827 39.9999C19.8556 39.9999 20.32 39.5355 20.32 38.9626V36.8879Z" fill="#8CBEFF"/>
    <path d="M20.32 20.296C20.32 19.7231 19.8556 19.2587 19.2827 19.2587C18.7098 19.2587 18.2454 19.7231 18.2454 20.296V32.7387C18.2454 33.3116 18.7098 33.776 19.2827 33.776C19.8556 33.776 20.32 33.3116 20.32 32.7387V20.296Z" fill="#8CBEFF"/>
    <path d="M20.32 36.8879C20.32 36.315 19.8556 35.8506 19.2827 35.8506C18.7098 35.8506 18.2454 36.315 18.2454 36.8879V38.9626C18.2454 39.5355 18.7098 39.9999 19.2827 39.9999C19.8556 39.9999 20.32 39.5355 20.32 38.9626V36.8879Z" fill="#8CBEFF"/>
    <path d="M24.4668 18.2213C24.4668 17.6484 24.0023 17.184 23.4294 17.184C22.8565 17.184 22.3921 17.6484 22.3921 18.2213V30.664C22.3921 31.2369 22.8565 31.7013 23.4294 31.7013C24.0023 31.7013 24.4668 31.2369 24.4668 30.664V18.2213Z" fill="#8CBEFF"/>
    <path d="M24.4668 34.8159C24.4668 34.243 24.0023 33.7786 23.4294 33.7786C22.8565 33.7786 22.3921 34.243 22.3921 34.8159V36.8906C22.3921 37.4635 22.8565 37.9279 23.4294 37.9279C24.0023 37.9279 24.4668 37.4635 24.4668 36.8906V34.8159Z" fill="#8CBEFF"/>
    <path d="M24.4668 18.2213C24.4668 17.6484 24.0023 17.184 23.4294 17.184C22.8565 17.184 22.3921 17.6484 22.3921 18.2213V30.664C22.3921 31.2369 22.8565 31.7013 23.4294 31.7013C24.0023 31.7013 24.4668 31.2369 24.4668 30.664V18.2213Z" fill="#8CBEFF"/>
    <path d="M24.4668 34.8159C24.4668 34.243 24.0023 33.7786 23.4294 33.7786C22.8565 33.7786 22.3921 34.243 22.3921 34.8159V36.8906C22.3921 37.4635 22.8565 37.9279 23.4294 37.9279C24.0023 37.9279 24.4668 37.4635 24.4668 36.8906V34.8159Z" fill="#8CBEFF"/>
    <path d="M24.3359 18.1334C23.6693 18.1334 23.0266 18.2507 22.4346 18.4694C21.5466 15.4987 18.7946 13.3334 15.5359 13.3334C13.2533 13.3334 11.2213 14.3947 9.90125 16.0507C9.41859 15.8454 8.89058 15.7334 8.33592 15.7334C6.12525 15.7334 4.33592 17.5227 4.33592 19.7334V19.7894C2.07725 20.144 0.333252 22.1094 0.333252 24.464C0.333252 27.1547 2.51192 29.3334 5.20259 29.3334H24.3333C27.4266 29.3334 29.9333 26.824 29.9333 23.7334C29.9333 20.6427 27.4266 18.1334 24.3333 18.1334H24.3359Z" fill="white"/>
    <path d="M19.0001 22.2213C23.9088 22.2213 27.8881 18.242 27.8881 13.3333C27.8881 8.42461 23.9088 4.44531 19.0001 4.44531C14.0914 4.44531 10.1121 8.42461 10.1121 13.3333C10.1121 18.242 14.0914 22.2213 19.0001 22.2213Z" fill="#FFC800"/>
    <path d="M19.0027 0H19.0001C18.5096 0 18.1121 0.397571 18.1121 0.888V2.66667C18.1121 3.1571 18.5096 3.55467 19.0001 3.55467H19.0027C19.4932 3.55467 19.8907 3.1571 19.8907 2.66667V0.888C19.8907 0.397571 19.4932 0 19.0027 0Z" fill="#FF9600"/>
    <path d="M19 23.1121H18.9974C18.5069 23.1121 18.1094 23.5096 18.1094 24.0001V25.7787C18.1094 26.2692 18.5069 26.6667 18.9974 26.6667H19C19.4905 26.6667 19.888 26.2692 19.888 25.7787V24.0001C19.888 23.5096 19.4905 23.1121 19 23.1121Z" fill="#FF9600"/>
    <path d="M31.4455 12.4453H29.6668C29.1764 12.4453 28.7788 12.8429 28.7788 13.3333V13.336C28.7788 13.8264 29.1764 14.224 29.6668 14.224H31.4455C31.9359 14.224 32.3335 13.8264 32.3335 13.336V13.3333C32.3335 12.8429 31.9359 12.4453 31.4455 12.4453Z" fill="#FF9600"/>
    <path d="M8.33341 12.4453H6.55475C6.06432 12.4453 5.66675 12.8429 5.66675 13.3333V13.336C5.66675 13.8264 6.06432 14.224 6.55475 14.224H8.33341C8.82384 14.224 9.22142 13.8264 9.22142 13.336V13.3333C9.22142 12.8429 8.82384 12.4453 8.33341 12.4453Z" fill="#FF9600"/>
    <path d="M9.57535 3.89999L9.57347 3.90187C9.22668 4.24866 9.22668 4.81091 9.57347 5.1577L10.8312 6.4154C11.178 6.76219 11.7402 6.76219 12.087 6.4154L12.0889 6.41352C12.4357 6.06673 12.4357 5.50448 12.0889 5.1577L10.8312 3.89999C10.4844 3.5532 9.92214 3.5532 9.57535 3.89999Z" fill="#FF9600"/>
    <path d="M25.9176 20.2497L25.9158 20.2516C25.569 20.5984 25.569 21.1606 25.9158 21.5074L27.1735 22.7651C27.5202 23.1119 28.0825 23.1119 28.4293 22.7651L28.4312 22.7632C28.778 22.4165 28.778 21.8542 28.4312 21.5074L27.1735 20.2497C26.8267 19.9029 26.2644 19.9029 25.9176 20.2497Z" fill="#FF9600"/>
    <path d="M27.172 3.90418L25.9143 5.16189C25.5675 5.50867 25.5675 6.07092 25.9143 6.41771L25.9162 6.41959C26.263 6.76638 26.8252 6.76638 27.172 6.41959L28.4297 5.16188C28.7765 4.8151 28.7765 4.25285 28.4297 3.90606L28.4278 3.90418C28.081 3.55739 27.5188 3.55739 27.172 3.90418Z" fill="#FF9600"/>
    <path d="M10.828 20.2474L9.57029 21.5051C9.22351 21.8519 9.22351 22.4142 9.57029 22.761L9.57218 22.7629C9.91897 23.1096 10.4812 23.1096 10.828 22.7629L12.0857 21.5051C12.4325 21.1584 12.4325 20.5961 12.0857 20.2493L12.0838 20.2474C11.737 19.9007 11.1748 19.9007 10.828 20.2474Z" fill="#FF9600"/>
</svg>
    