<svg width="40" height="40" viewBox="0 0 40 40" fill="none" xmlns="http://www.w3.org/2000/svg">
    <g clip-path="url(#clip0_442_1129)">
    <path d="M9.08267 16.2161H9.08C8.48353 16.2161 8 16.6996 8 17.2961V30.2721C8 30.8685 8.48353 31.3521 9.08 31.3521H9.08267C9.67913 31.3521 10.1627 30.8685 10.1627 30.2721V17.2961C10.1627 16.6996 9.67913 16.2161 9.08267 16.2161Z" fill="#8CBEFF"/>
    <path d="M9.08267 33.5146H9.08C8.48353 33.5146 8 33.9982 8 34.5946V36.76C8 37.3565 8.48353 37.84 9.08 37.84H9.08267C9.67913 37.84 10.1627 37.3565 10.1627 36.76V34.5946C10.1627 33.9982 9.67913 33.5146 9.08267 33.5146Z" fill="#8CBEFF"/>
    <path d="M14.5414 18.3787H14.5387C13.9423 18.3787 13.4587 18.8622 13.4587 19.4587V32.4347C13.4587 33.0311 13.9423 33.5147 14.5387 33.5147H14.5414C15.1379 33.5147 15.6214 33.0311 15.6214 32.4347V19.4587C15.6214 18.8622 15.1379 18.3787 14.5414 18.3787Z" fill="#8CBEFF"/>
    <path d="M14.5414 35.6748H14.5387C13.9423 35.6748 13.4587 36.1583 13.4587 36.7548V38.9201C13.4587 39.5166 13.9423 40.0001 14.5387 40.0001H14.5414C15.1379 40.0001 15.6214 39.5166 15.6214 38.9201V36.7548C15.6214 36.1583 15.1379 35.6748 14.5414 35.6748Z" fill="#8CBEFF"/>
    <path d="M20.0026 16.2161H19.9999C19.4035 16.2161 18.9199 16.6996 18.9199 17.2961V30.2721C18.9199 30.8685 19.4035 31.3521 19.9999 31.3521H20.0026C20.5991 31.3521 21.0826 30.8685 21.0826 30.2721V17.2961C21.0826 16.6996 20.5991 16.2161 20.0026 16.2161Z" fill="#8CBEFF"/>
    <path d="M20.0026 33.5146H19.9999C19.4035 33.5146 18.9199 33.9982 18.9199 34.5946V36.76C18.9199 37.3565 19.4035 37.84 19.9999 37.84H20.0026C20.5991 37.84 21.0826 37.3565 21.0826 36.76V34.5946C21.0826 33.9982 20.5991 33.5146 20.0026 33.5146Z" fill="#8CBEFF"/>
    <path d="M25.4613 18.3787H25.4587C24.8622 18.3787 24.3787 18.8622 24.3787 19.4587V32.4347C24.3787 33.0311 24.8622 33.5147 25.4587 33.5147H25.4613C26.0578 33.5147 26.5413 33.0311 26.5413 32.4347V19.4587C26.5413 18.8622 26.0578 18.3787 25.4613 18.3787Z" fill="#8CBEFF"/>
    <path d="M25.4613 35.6748H25.4587C24.8622 35.6748 24.3787 36.1583 24.3787 36.7548V38.9201C24.3787 39.5166 24.8622 40.0001 25.4587 40.0001H25.4613C26.0578 40.0001 26.5413 39.5166 26.5413 38.9201V36.7548C26.5413 36.1583 26.0578 35.6748 25.4613 35.6748Z" fill="#8CBEFF"/>
    <path d="M30.9201 16.2161H30.9174C30.3209 16.2161 29.8374 16.6996 29.8374 17.2961V30.2721C29.8374 30.8685 30.3209 31.3521 30.9174 31.3521H30.9201C31.5165 31.3521 32.0001 30.8685 32.0001 30.2721V17.2961C32.0001 16.6996 31.5165 16.2161 30.9201 16.2161Z" fill="#8CBEFF"/>
    <path d="M30.9201 33.5146H30.9174C30.3209 33.5146 29.8374 33.9982 29.8374 34.5946V36.76C29.8374 37.3565 30.3209 37.84 30.9174 37.84H30.9201C31.5165 37.84 32.0001 37.3565 32.0001 36.76V34.5946C32.0001 33.9982 31.5165 33.5146 30.9201 33.5146Z" fill="#8CBEFF"/>
    <path d="M32.432 6.48533C31.5307 6.48533 30.664 6.64533 29.8613 6.93867C28.6613 2.92533 24.944 0 20.5413 0C17.4587 0 14.712 1.43733 12.928 3.67467C12.2773 3.39733 11.5627 3.24267 10.8107 3.24267C7.82667 3.24267 5.40533 5.664 5.40533 8.648C5.40533 8.67467 5.40533 8.69867 5.40533 8.72533C2.35467 9.20267 0 11.8613 0 15.04C0 18.6747 2.94667 21.6213 6.58133 21.6213H32.432C36.6107 21.6213 40 18.232 40 14.0533C40 9.87467 36.6107 6.48533 32.432 6.48533Z" fill="#999999"/>
    <path d="M38.1334 37.3333V34.6666L36 33.3333L33.8667 34.6666V37.3333L36 38.6666L38.1334 37.3333Z" fill="white"/>
    <path d="M30.1334 28V25.3333L28 24L25.8667 25.3333V28L28 29.3333L30.1334 28Z" fill="white"/>
    <path d="M22.1334 37.3333V34.6666L20 33.3333L17.8667 34.6666V37.3333L20 38.6666L22.1334 37.3333Z" fill="white"/>
    <path d="M6.13337 37.3333V34.6666L4.00003 33.3333L1.8667 34.6666V37.3333L4.00003 38.6666L6.13337 37.3333Z" fill="white"/>
    <path d="M14.1334 28V25.3333L12 24L9.8667 25.3333V28L12 29.3333L14.1334 28Z" fill="white"/>
    </g>
    <defs>
    <clipPath id="clip0_442_1129">
    <rect width="40" height="40" fill="white"/>
    </clipPath>
    </defs>
</svg>
    