<svg width="40" height="40" viewBox="0 0 40 40" fill="none" xmlns="http://www.w3.org/2000/svg">
    <path d="M6.82814 28.6481C6.70414 28.6481 6.58014 28.6281 6.46014 28.5841C5.90014 28.3801 5.60814 27.7601 5.81214 27.2001L10.5321 14.2281C10.7361 13.6681 11.3561 13.3761 11.9161 13.5801C12.4761 13.7841 12.7681 14.4041 12.5641 14.9641L7.84414 27.9361C7.68414 28.3761 7.26814 28.6481 6.82814 28.6481Z" fill="#8CBEFF"/>
    <path d="M4.46803 35.1361C4.34403 35.1361 4.22003 35.1161 4.10003 35.0721C3.54003 34.8681 3.24803 34.2481 3.45203 33.6881L4.24003 31.5241C4.44403 30.9641 5.06403 30.6721 5.62403 30.8761C6.18403 31.0801 6.47603 31.7001 6.27203 32.2601L5.48403 34.4241C5.32403 34.8641 4.90803 35.1361 4.46803 35.1361Z" fill="#8CBEFF"/>
    <path d="M11.1521 32.9721C11.0281 32.9721 10.9041 32.9521 10.7841 32.9081C10.2241 32.7041 9.93211 32.0841 10.1361 31.5241L14.8561 18.5521C15.0601 17.9921 15.6801 17.7001 16.2401 17.9041C16.8001 18.1081 17.0921 18.7281 16.8881 19.2881L12.1681 32.2601C12.0081 32.7001 11.5921 32.9721 11.1521 32.9721Z" fill="#8CBEFF"/>
    <path d="M8.792 39.4601C8.668 39.4601 8.544 39.4401 8.424 39.3961C7.864 39.1921 7.572 38.5721 7.776 38.0121L8.564 35.8481C8.768 35.2881 9.388 34.9961 9.948 35.2001C10.508 35.4041 10.8 36.0241 10.596 36.5841L9.808 38.7481C9.648 39.1881 9.232 39.4601 8.792 39.4601Z" fill="#8CBEFF"/>
    <path d="M17.6401 28.6481C17.5161 28.6481 17.3921 28.6281 17.2721 28.5841C16.7121 28.3801 16.4201 27.7601 16.6241 27.2001L21.3441 14.2281C21.5481 13.6681 22.1681 13.3761 22.7281 13.5801C23.2881 13.7841 23.5801 14.4041 23.3761 14.9641L18.6561 27.9361C18.4961 28.3761 18.0801 28.6481 17.6401 28.6481Z" fill="#8CBEFF"/>
    <path d="M15.28 35.1361C15.156 35.1361 15.032 35.1161 14.912 35.0721C14.352 34.8681 14.06 34.2481 14.264 33.6881L15.052 31.5241C15.256 30.9641 15.876 30.6721 16.436 30.8761C16.996 31.0801 17.288 31.7001 17.084 32.2601L16.296 34.4241C16.136 34.8641 15.72 35.1361 15.28 35.1361Z" fill="#8CBEFF"/>
    <path d="M21.9641 32.9721C21.8401 32.9721 21.7161 32.9521 21.5961 32.9081C21.0361 32.7041 20.7441 32.0841 20.9481 31.5241L25.6681 18.5521C25.8721 17.9921 26.4921 17.7001 27.0521 17.9041C27.6121 18.1081 27.9041 18.7281 27.7001 19.2881L22.9801 32.2601C22.8201 32.7001 22.4041 32.9721 21.9641 32.9721Z" fill="#8CBEFF"/>
    <path d="M19.604 39.4601C19.48 39.4601 19.356 39.4401 19.236 39.3961C18.676 39.1921 18.384 38.5721 18.588 38.0121L19.376 35.8481C19.58 35.2881 20.2 34.9961 20.76 35.2001C21.32 35.4041 21.612 36.0241 21.408 36.5841L20.62 38.7481C20.46 39.1881 20.044 39.4601 19.604 39.4601Z" fill="#8CBEFF"/>
    <path d="M28.4483 28.6481C28.3243 28.6481 28.2003 28.6281 28.0803 28.5841C27.5203 28.3801 27.2283 27.7601 27.4323 27.2001L32.1523 14.2281C32.3563 13.6681 32.9763 13.3761 33.5363 13.5801C34.0963 13.7841 34.3883 14.4041 34.1843 14.9641L29.4643 27.9361C29.3043 28.3761 28.8883 28.6481 28.4483 28.6481Z" fill="#8CBEFF"/>
    <path d="M26.0881 35.1361C25.9641 35.1361 25.8401 35.1161 25.7201 35.0721C25.1601 34.8681 24.8681 34.2481 25.0721 33.6881L25.8601 31.5241C26.0641 30.9641 26.6841 30.6721 27.2441 30.8761C27.8041 31.0801 28.0961 31.7001 27.8921 32.2601L27.1041 34.4241C26.9441 34.8641 26.5281 35.1361 26.0881 35.1361Z" fill="#8CBEFF"/>
    <path d="M32.432 7.02804C31.532 7.02804 30.664 7.18804 29.86 7.48004C28.66 3.46804 24.94 0.540039 20.54 0.540039C17.456 0.540039 14.712 1.97604 12.928 4.21204C12.276 3.93604 11.564 3.78004 10.812 3.78004C7.828 3.78004 5.408 6.20004 5.408 9.18404C5.408 9.20804 5.408 9.23604 5.408 9.26004C2.356 9.73604 0 12.396 0 15.576C0 19.212 2.948 22.156 6.58 22.156H32.432C36.612 22.156 40 18.768 40 14.588C40 10.408 36.612 7.02004 32.432 7.02004V7.02804Z" fill="#999999"/>
    <path d="M15.136 7.02808L6.48804 18.9201H11.892L8.64804 28.6481L17.296 16.7561H11.892L15.136 7.02808Z" fill="#FFE600"/>
    <path d="M27.46 13.5121L20.54 23.0281H24.864L22.272 30.8121L29.188 21.2961H24.864L27.46 13.5121Z" fill="#FFE600"/>
</svg>
    