<svg width="33" height="40" viewBox="0 0 33 40" fill="none" xmlns="http://www.w3.org/2000/svg">
    <path d="M7.87472 18.2213C7.87472 17.6484 7.41029 17.184 6.83738 17.184C6.26448 17.184 5.80005 17.6484 5.80005 18.2213V30.664C5.80005 31.2369 6.26448 31.7013 6.83738 31.7013C7.41029 31.7013 7.87472 31.2369 7.87472 30.664V18.2213Z" fill="#8CBEFF"/>
    <path d="M7.87472 34.8159C7.87472 34.243 7.41029 33.7786 6.83738 33.7786C6.26448 33.7786 5.80005 34.243 5.80005 34.8159V36.8906C5.80005 37.4635 6.26448 37.9279 6.83738 37.9279C7.41029 37.9279 7.87472 37.4635 7.87472 36.8906V34.8159Z" fill="#8CBEFF"/>
    <path d="M7.87472 18.2213C7.87472 17.6484 7.41029 17.184 6.83738 17.184C6.26448 17.184 5.80005 17.6484 5.80005 18.2213V30.664C5.80005 31.2369 6.26448 31.7013 6.83738 31.7013C7.41029 31.7013 7.87472 31.2369 7.87472 30.664V18.2213Z" fill="#8CBEFF"/>
    <path d="M7.87472 34.8159C7.87472 34.243 7.41029 33.7786 6.83738 33.7786C6.26448 33.7786 5.80005 34.243 5.80005 34.8159V36.8906C5.80005 37.4635 6.26448 37.9279 6.83738 37.9279C7.41029 37.9279 7.87472 37.4635 7.87472 36.8906V34.8159Z" fill="#8CBEFF"/>
    <path d="M12.0241 20.296C12.0241 19.7231 11.5597 19.2587 10.9868 19.2587C10.4139 19.2587 9.94946 19.7231 9.94946 20.296V32.7387C9.94946 33.3116 10.4139 33.776 10.9868 33.776C11.5597 33.776 12.0241 33.3116 12.0241 32.7387V20.296Z" fill="#8CBEFF"/>
    <path d="M12.0241 36.8879C12.0241 36.315 11.5597 35.8506 10.9868 35.8506C10.4139 35.8506 9.94946 36.315 9.94946 36.8879V38.9626C9.94946 39.5355 10.4139 39.9999 10.9868 39.9999C11.5597 39.9999 12.0241 39.5355 12.0241 38.9626V36.8879Z" fill="#8CBEFF"/>
    <path d="M12.0241 20.296C12.0241 19.7231 11.5597 19.2587 10.9868 19.2587C10.4139 19.2587 9.94946 19.7231 9.94946 20.296V32.7387C9.94946 33.3116 10.4139 33.776 10.9868 33.776C11.5597 33.776 12.0241 33.3116 12.0241 32.7387V20.296Z" fill="#8CBEFF"/>
    <path d="M12.0241 36.8879C12.0241 36.315 11.5597 35.8506 10.9868 35.8506C10.4139 35.8506 9.94946 36.315 9.94946 36.8879V38.9626C9.94946 39.5355 10.4139 39.9999 10.9868 39.9999C11.5597 39.9999 12.0241 39.5355 12.0241 38.9626V36.8879Z" fill="#8CBEFF"/>
    <path d="M16.1706 18.2213C16.1706 17.6484 15.7062 17.184 15.1333 17.184C14.5604 17.184 14.0959 17.6484 14.0959 18.2213V30.664C14.0959 31.2369 14.5604 31.7013 15.1333 31.7013C15.7062 31.7013 16.1706 31.2369 16.1706 30.664V18.2213Z" fill="#8CBEFF"/>
    <path d="M16.1706 34.8159C16.1706 34.243 15.7062 33.7786 15.1333 33.7786C14.5604 33.7786 14.0959 34.243 14.0959 34.8159V36.8906C14.0959 37.4635 14.5604 37.9279 15.1333 37.9279C15.7062 37.9279 16.1706 37.4635 16.1706 36.8906V34.8159Z" fill="#8CBEFF"/>
    <path d="M16.1706 18.2213C16.1706 17.6484 15.7062 17.184 15.1333 17.184C14.5604 17.184 14.0959 17.6484 14.0959 18.2213V30.664C14.0959 31.2369 14.5604 31.7013 15.1333 31.7013C15.7062 31.7013 16.1706 31.2369 16.1706 30.664V18.2213Z" fill="#8CBEFF"/>
    <path d="M16.1706 34.8159C16.1706 34.243 15.7062 33.7786 15.1333 33.7786C14.5604 33.7786 14.0959 34.243 14.0959 34.8159V36.8906C14.0959 37.4635 14.5604 37.9279 15.1333 37.9279C15.7062 37.9279 16.1706 37.4635 16.1706 36.8906V34.8159Z" fill="#8CBEFF"/>
    <path d="M20.32 20.296C20.32 19.7231 19.8556 19.2587 19.2827 19.2587C18.7098 19.2587 18.2454 19.7231 18.2454 20.296V32.7387C18.2454 33.3116 18.7098 33.776 19.2827 33.776C19.8556 33.776 20.32 33.3116 20.32 32.7387V20.296Z" fill="#8CBEFF"/>
    <path d="M20.32 36.8879C20.32 36.315 19.8556 35.8506 19.2827 35.8506C18.7098 35.8506 18.2454 36.315 18.2454 36.8879V38.9626C18.2454 39.5355 18.7098 39.9999 19.2827 39.9999C19.8556 39.9999 20.32 39.5355 20.32 38.9626V36.8879Z" fill="#8CBEFF"/>
    <path d="M20.32 20.296C20.32 19.7231 19.8556 19.2587 19.2827 19.2587C18.7098 19.2587 18.2454 19.7231 18.2454 20.296V32.7387C18.2454 33.3116 18.7098 33.776 19.2827 33.776C19.8556 33.776 20.32 33.3116 20.32 32.7387V20.296Z" fill="#8CBEFF"/>
    <path d="M20.32 36.8879C20.32 36.315 19.8556 35.8506 19.2827 35.8506C18.7098 35.8506 18.2454 36.315 18.2454 36.8879V38.9626C18.2454 39.5355 18.7098 39.9999 19.2827 39.9999C19.8556 39.9999 20.32 39.5355 20.32 38.9626V36.8879Z" fill="#8CBEFF"/>
    <path d="M24.4668 18.2213C24.4668 17.6484 24.0023 17.184 23.4294 17.184C22.8565 17.184 22.3921 17.6484 22.3921 18.2213V30.664C22.3921 31.2369 22.8565 31.7013 23.4294 31.7013C24.0023 31.7013 24.4668 31.2369 24.4668 30.664V18.2213Z" fill="#8CBEFF"/>
    <path d="M24.4668 34.8159C24.4668 34.243 24.0023 33.7786 23.4294 33.7786C22.8565 33.7786 22.3921 34.243 22.3921 34.8159V36.8906C22.3921 37.4635 22.8565 37.9279 23.4294 37.9279C24.0023 37.9279 24.4668 37.4635 24.4668 36.8906V34.8159Z" fill="#8CBEFF"/>
    <path d="M24.4668 18.2213C24.4668 17.6484 24.0023 17.184 23.4294 17.184C22.8565 17.184 22.3921 17.6484 22.3921 18.2213V30.664C22.3921 31.2369 22.8565 31.7013 23.4294 31.7013C24.0023 31.7013 24.4668 31.2369 24.4668 30.664V18.2213Z" fill="#8CBEFF"/>
    <path d="M24.4668 34.8159C24.4668 34.243 24.0023 33.7786 23.4294 33.7786C22.8565 33.7786 22.3921 34.243 22.3921 34.8159V36.8906C22.3921 37.4635 22.8565 37.9279 23.4294 37.9279C24.0023 37.9279 24.4668 37.4635 24.4668 36.8906V34.8159Z" fill="#8CBEFF"/>
    <path d="M21.6667 17.776C25.5931 17.776 28.776 14.5931 28.776 10.6667C28.776 6.74033 25.5931 3.55737 21.6667 3.55737C17.7403 3.55737 14.5574 6.74033 14.5574 10.6667C14.5574 14.5931 17.7403 17.776 21.6667 17.776Z" fill="#FFC800"/>
    <path d="M21.6719 0H21.6666C21.2749 0 20.9573 0.317579 20.9573 0.709333V2.13333C20.9573 2.52509 21.2749 2.84267 21.6666 2.84267H21.6719C22.0637 2.84267 22.3813 2.52509 22.3813 2.13333V0.709333C22.3813 0.317579 22.0637 0 21.6719 0Z" fill="#FF9600"/>
    <path d="M21.6693 18.4907H21.6639C21.2722 18.4907 20.9546 18.8083 20.9546 19.2001V20.6241C20.9546 21.0158 21.2722 21.3334 21.6639 21.3334H21.6693C22.061 21.3334 22.3786 21.0158 22.3786 20.6241V19.2001C22.3786 18.8083 22.061 18.4907 21.6693 18.4907Z" fill="#FF9600"/>
    <path d="M31.6241 9.95728H30.2001C29.8083 9.95728 29.4907 10.2749 29.4907 10.6666V10.6719C29.4907 11.0637 29.8083 11.3813 30.2001 11.3813H31.6241C32.0158 11.3813 32.3334 11.0637 32.3334 10.6719V10.6666C32.3334 10.2749 32.0158 9.95728 31.6241 9.95728Z" fill="#FF9600"/>
    <path d="M13.1333 9.95728H11.7093C11.3176 9.95728 11 10.2749 11 10.6666V10.6719C11 11.0637 11.3176 11.3813 11.7093 11.3813H13.1333C13.5251 11.3813 13.8427 11.0637 13.8427 10.6719V10.6666C13.8427 10.2749 13.5251 9.95728 13.1333 9.95728Z" fill="#FF9600"/>
    <path d="M14.1289 3.12014L14.1251 3.12391C13.8481 3.40093 13.8481 3.85005 14.1251 4.12706L15.132 5.13398C15.409 5.41099 15.8582 5.41099 16.1352 5.13398L16.1389 5.13021C16.416 4.8532 16.416 4.40407 16.139 4.12706L15.132 3.12014C14.855 2.84313 14.4059 2.84313 14.1289 3.12014Z" fill="#FF9600"/>
    <path d="M27.2026 16.1967L27.1988 16.2005C26.9218 16.4775 26.9218 16.9266 27.1988 17.2036L28.2058 18.2105C28.4828 18.4875 28.9319 18.4875 29.2089 18.2105L29.2127 18.2067C29.4897 17.9297 29.4897 17.4806 29.2127 17.2036L28.2058 16.1967C27.9287 15.9197 27.4796 15.9197 27.2026 16.1967Z" fill="#FF9600"/>
    <path d="M28.2041 3.12407L27.1971 4.13099C26.9201 4.40801 26.9201 4.85713 27.1971 5.13414L27.2009 5.13791C27.4779 5.41493 27.927 5.41493 28.2041 5.13791L29.211 4.13099C29.488 3.85398 29.488 3.40486 29.211 3.12785L29.2072 3.12407C28.9302 2.84706 28.4811 2.84706 28.2041 3.12407Z" fill="#FF9600"/>
    <path d="M15.1293 16.1984L14.1224 17.2053C13.8454 17.4823 13.8454 17.9315 14.1224 18.2085L14.1262 18.2123C14.4032 18.4893 14.8523 18.4893 15.1293 18.2123L16.1363 17.2053C16.4133 16.9283 16.4133 16.4792 16.1363 16.2022L16.1325 16.1984C15.8555 15.9214 15.4064 15.9214 15.1293 16.1984Z" fill="#FF9600"/>
    <path d="M24.3359 12.8C23.6693 12.8 23.0266 12.9173 22.4346 13.136C21.5466 10.1653 18.7946 8 15.5359 8C13.2533 8 11.2213 9.06133 9.90125 10.7173C9.41859 10.512 8.89058 10.4 8.33592 10.4C6.12525 10.4 4.33592 12.1893 4.33592 14.4V14.456C2.07725 14.8107 0.333252 16.776 0.333252 19.1307C0.333252 21.8213 2.51192 24 5.20259 24H24.3333C27.4266 24 29.9333 21.4907 29.9333 18.4C29.9333 15.3093 27.4266 12.8 24.3333 12.8H24.3359Z" fill="white"/>
</svg>
    