<svg width="40" height="40" viewBox="0 0 40 40" fill="none" xmlns="http://www.w3.org/2000/svg">
    <g clip-path="url(#clip0_424_773)">
    <path d="M20 40C31.0457 40 40 31.0457 40 20C40 8.95431 31.0457 0 20 0C8.95431 0 0 8.95431 0 20C0 31.0457 8.95431 40 20 40Z" fill="#DCF0FF"/>
    <path d="M6 14.0001C6 10.0121 7.172 6.30008 9.184 3.18408C3.66 6.74008 0 12.9401 0 20.0001C0 31.0441 8.956 40.0001 20 40.0001C27.06 40.0001 33.26 36.3401 36.816 30.8161C33.696 32.8281 29.984 34.0001 26 34.0001C14.956 34.0001 6 25.0441 6 14.0001Z" fill="#C8E6FF"/>
    </g>
    <defs>
    <clipPath id="clip0_424_773">
    <rect width="40" height="40" fill="white"/>
    </clipPath>
    </defs>
</svg>
    