<svg width="40" height="40" viewBox="0 0 40 40" fill="none" xmlns="http://www.w3.org/2000/svg">
    <g clip-path="url(#clip0_442_1271)">
    <path d="M4.55201 32.432C4.46934 32.432 4.38668 32.4186 4.30668 32.3893C3.93334 32.2533 3.73868 31.84 3.87468 31.4666L7.02134 22.8186C7.15734 22.4453 7.57068 22.2506 7.94401 22.3866C8.31734 22.5226 8.51201 22.936 8.37601 23.3093L5.22934 31.9573C5.12268 32.2506 4.84534 32.432 4.55201 32.432Z" fill="#8CBEFF"/>
    <path d="M2.97877 36.7574C2.8961 36.7574 2.81343 36.7441 2.73343 36.7147C2.3601 36.5787 2.16543 36.1654 2.30143 35.7921L2.82677 34.3494C2.96277 33.9761 3.3761 33.7814 3.74943 33.9174C4.12277 34.0534 4.31743 34.4667 4.18143 34.8401L3.6561 36.2827C3.54943 36.5761 3.2721 36.7574 2.97877 36.7574Z" fill="#8CBEFF"/>
    <path d="M7.43458 35.3145C7.35191 35.3145 7.26924 35.3012 7.18924 35.2719C6.81591 35.1359 6.62124 34.7225 6.75724 34.3492L9.90391 25.7012C10.0399 25.3279 10.4532 25.1332 10.8266 25.2692C11.1999 25.4052 11.3946 25.8185 11.2586 26.1919L8.11191 34.8399C8.00524 35.1332 7.72791 35.3145 7.43458 35.3145Z" fill="#8CBEFF"/>
    <path d="M5.86134 39.64C5.77867 39.64 5.696 39.6266 5.616 39.5973C5.24267 39.4613 5.048 39.048 5.184 38.6746L5.70934 37.232C5.84534 36.8586 6.25867 36.664 6.632 36.8C7.00534 36.936 7.2 37.3493 7.064 37.7226L6.53867 39.1653C6.432 39.4586 6.15467 39.64 5.86134 39.64Z" fill="#8CBEFF"/>
    <path d="M11.76 32.432C11.6773 32.432 11.5947 32.4186 11.5147 32.3893C11.1414 32.2533 10.9467 31.84 11.0827 31.4666L14.2294 22.8186C14.3654 22.4453 14.7787 22.2506 15.152 22.3866C15.5254 22.5226 15.72 22.936 15.584 23.3093L12.4374 31.9573C12.3307 32.2506 12.0533 32.432 11.76 32.432Z" fill="#8CBEFF"/>
    <path d="M10.1868 36.7574C10.1041 36.7574 10.0214 36.7441 9.94144 36.7147C9.56811 36.5787 9.37344 36.1654 9.50944 35.7921L10.0348 34.3494C10.1708 33.9761 10.5841 33.7814 10.9574 33.9174C11.3308 34.0534 11.5254 34.4667 11.3894 34.8401L10.8641 36.2827C10.7574 36.5761 10.4801 36.7574 10.1868 36.7574Z" fill="#8CBEFF"/>
    <path d="M14.6426 35.3145C14.5599 35.3145 14.4773 35.3012 14.3973 35.2719C14.0239 35.1359 13.8293 34.7225 13.9653 34.3492L17.1119 25.7012C17.2479 25.3279 17.6613 25.1332 18.0346 25.2692C18.4079 25.4052 18.6026 25.8185 18.4666 26.1919L15.3199 34.8399C15.2133 35.1332 14.9359 35.3145 14.6426 35.3145Z" fill="#8CBEFF"/>
    <path d="M13.0693 39.64C12.9867 39.64 12.904 39.6266 12.824 39.5973C12.4507 39.4613 12.256 39.048 12.392 38.6746L12.9173 37.232C13.0533 36.8586 13.4667 36.664 13.84 36.8C14.2133 36.936 14.408 37.3493 14.272 37.7226L13.7467 39.1653C13.64 39.4586 13.3627 39.64 13.0693 39.64Z" fill="#8CBEFF"/>
    <path d="M18.9653 32.432C18.8827 32.432 18.8 32.4186 18.72 32.3893C18.3467 32.2533 18.152 31.84 18.288 31.4666L21.4347 22.8186C21.5707 22.4453 21.984 22.2506 22.3573 22.3866C22.7307 22.5226 22.9253 22.936 22.7893 23.3093L19.6427 31.9573C19.536 32.2506 19.2587 32.432 18.9653 32.432Z" fill="#8CBEFF"/>
    <path d="M17.3921 36.7574C17.3094 36.7574 17.2268 36.7441 17.1468 36.7147C16.7734 36.5787 16.5788 36.1654 16.7148 35.7921L17.2401 34.3494C17.3761 33.9761 17.7894 33.7814 18.1628 33.9174C18.5361 34.0534 18.7308 34.4667 18.5948 34.8401L18.0694 36.2827C17.9628 36.5761 17.6854 36.7574 17.3921 36.7574Z" fill="#8CBEFF"/>
    <path d="M21.6213 18.0187C21.0213 18.0187 20.4427 18.1254 19.9067 18.32C19.1067 15.6454 16.6267 13.6934 13.6933 13.6934C11.6373 13.6934 9.808 14.6507 8.61867 16.1414C8.184 15.9574 7.70933 15.8534 7.208 15.8534C5.21867 15.8534 3.60533 17.4667 3.60533 19.456C3.60533 19.472 3.60533 19.4907 3.60533 19.5067C1.57067 19.824 0 21.5974 0 23.7174C0 26.1414 1.96533 28.104 4.38667 28.104H21.6213C24.408 28.104 26.6667 25.8454 26.6667 23.0587C26.6667 20.272 24.408 18.0134 21.6213 18.0134V18.0187Z" fill="#999999"/>
    <path d="M10.0908 18.0188L4.32544 25.9468H7.92811L5.76544 32.4321L11.5308 24.5041H7.92811L10.0908 18.0188Z" fill="#FFE600"/>
    <path d="M18.3067 22.3413L13.6934 28.6853H16.576L14.848 33.8746L19.4587 27.5306H16.576L18.3067 22.3413Z" fill="#FFE600"/>
    <path d="M26.6667 21.3333C32.5577 21.3333 37.3333 16.5577 37.3333 10.6667C37.3333 4.77563 32.5577 0 26.6667 0C20.7756 0 16 4.77563 16 10.6667C16 16.5577 20.7756 21.3333 26.6667 21.3333Z" fill="#DCF0FF"/>
    <path d="M19.2 7.46671C19.2 5.34138 19.824 3.36004 20.896 1.69604C17.952 3.59471 16 6.90138 16 10.6667C16 16.5574 20.776 21.3334 26.6667 21.3334C30.432 21.3334 33.7387 19.3814 35.6373 16.4374C33.9733 17.5094 31.9947 18.1334 29.8667 18.1334C23.976 18.1334 19.2 13.3574 19.2 7.46671Z" fill="#C8E6FF"/>
    </g>
    <defs>
    <clipPath id="clip0_442_1271">
    <rect width="40" height="40" fill="white"/>
    </clipPath>
    </defs>
</svg>
    