<svg width="40" height="36" viewBox="0 0 40 36" fill="none" xmlns="http://www.w3.org/2000/svg">
    <path d="M24.0001 22.8879C28.9088 22.8879 32.8881 18.9086 32.8881 13.9999C32.8881 9.09123 28.9088 5.11194 24.0001 5.11194C19.0914 5.11194 15.1121 9.09123 15.1121 13.9999C15.1121 18.9086 19.0914 22.8879 24.0001 22.8879Z" fill="#FFC800"/>
    <path d="M24.0027 0.666626H24.0001C23.5096 0.666626 23.1121 1.0642 23.1121 1.55463V3.33329C23.1121 3.82372 23.5096 4.22129 24.0001 4.22129H24.0027C24.4932 4.22129 24.8907 3.82372 24.8907 3.33329V1.55463C24.8907 1.0642 24.4932 0.666626 24.0027 0.666626Z" fill="#FF9600"/>
    <path d="M23.9975 27.3333H24.0002C24.4906 27.3333 24.8882 26.9357 24.8882 26.4453V24.6666C24.8882 24.1762 24.4906 23.7786 24.0002 23.7786H23.9975C23.5071 23.7786 23.1095 24.1762 23.1095 24.6666V26.4453C23.1095 26.9357 23.5071 27.3333 23.9975 27.3333Z" fill="#FF9600"/>
    <path d="M37.3335 14.0026V13.9999C37.3335 13.5095 36.9359 13.1119 36.4455 13.1119H34.6668C34.1764 13.1119 33.7788 13.5095 33.7788 13.9999V14.0026C33.7788 14.493 34.1764 14.8906 34.6668 14.8906H36.4455C36.9359 14.8906 37.3335 14.493 37.3335 14.0026Z" fill="#FF9600"/>
    <path d="M10.6667 14V14.0026C10.6667 14.4931 11.0643 14.8906 11.5547 14.8906H13.3334C13.8238 14.8906 14.2214 14.4931 14.2214 14.0026V14C14.2214 13.5095 13.8238 13.112 13.3334 13.112H11.5547C11.0643 13.112 10.6667 13.5095 10.6667 14Z" fill="#FF9600"/>
    <path d="M14.5749 4.56881L14.573 4.5707C14.2262 4.91748 14.2262 5.47973 14.573 5.82652L15.8307 7.08423C16.1775 7.43101 16.7397 7.43101 17.0865 7.08423L17.0884 7.08234C17.4352 6.73556 17.4352 6.1733 17.0884 5.82652L15.8307 4.56881C15.4839 4.22203 14.9217 4.22203 14.5749 4.56881Z" fill="#FF9600"/>
    <path d="M33.4273 23.4311L33.4292 23.4292C33.776 23.0824 33.776 22.5201 33.4292 22.1734L32.1715 20.9157C31.8247 20.5689 31.2625 20.5689 30.9157 20.9157L30.9138 20.9175C30.567 21.2643 30.567 21.8266 30.9138 22.1734L32.1715 23.4311C32.5183 23.7779 33.0805 23.7779 33.4273 23.4311Z" fill="#FF9600"/>
    <path d="M33.4289 4.57242L33.427 4.57054C33.0802 4.22375 32.5179 4.22375 32.1712 4.57054L30.9135 5.82824C30.5667 6.17503 30.5667 6.73728 30.9135 7.08407L30.9153 7.08595C31.2621 7.43274 31.8244 7.43274 32.1712 7.08595L33.4289 5.82825C33.7757 5.48146 33.7757 4.91921 33.4289 4.57242Z" fill="#FF9600"/>
    <path d="M14.5694 23.4275L14.5713 23.4293C14.9181 23.7761 15.4803 23.7761 15.8271 23.4293L17.0848 22.1716C17.4316 21.8248 17.4316 21.2626 17.0848 20.9158L17.083 20.9139C16.7362 20.5671 16.1739 20.5671 15.8271 20.9139L14.5694 22.1716C14.2226 22.5184 14.2226 23.0807 14.5694 23.4275Z" fill="#FF9600"/>
    <path d="M32.2666 20.4C31.3786 20.4 30.5226 20.5573 29.7306 20.848C28.5466 16.888 24.8772 14 20.5332 14C17.4906 14 14.7812 15.416 13.0212 17.624C12.3786 17.3493 11.6746 17.2 10.9332 17.2C7.98658 17.2 5.59992 19.5867 5.59992 22.5333C5.59992 22.56 5.59992 22.584 5.59992 22.608C2.58925 23.08 0.263916 25.7013 0.263916 28.84C0.263916 32.4267 3.17058 35.3333 6.75725 35.3333H32.2639C36.3866 35.3333 39.7306 31.9893 39.7306 27.8667C39.7306 23.744 36.3866 20.4 32.2639 20.4H32.2666Z" fill="white"/>
</svg>
    