<svg width="40" height="40" viewBox="0 0 40 40" fill="none" xmlns="http://www.w3.org/2000/svg">
    <g clip-path="url(#clip0_442_1182)">
    <path d="M26.6694 24.0001C32.5604 24.0001 37.336 19.2245 37.336 13.3334C37.336 7.44238 32.5604 2.66675 26.6694 2.66675C20.7783 2.66675 16.0027 7.44238 16.0027 13.3334C16.0027 19.2245 20.7783 24.0001 26.6694 24.0001Z" fill="#DCF0FF"/>
    <path d="M19.2027 10.1335C19.2027 8.00813 19.8267 6.02679 20.8987 4.36279C17.9547 6.26146 16.0027 9.56813 16.0027 13.3335C16.0027 19.2241 20.7787 24.0001 26.6694 24.0001C30.4347 24.0001 33.7414 22.0481 35.64 19.1041C33.976 20.1761 31.9974 20.8001 29.8694 20.8001C23.9787 20.8001 19.2027 16.0241 19.2027 10.1335Z" fill="#C8E6FF"/>
    <path d="M32.2693 22.4C31.3813 22.4 30.5253 22.5573 29.7333 22.848C28.5493 18.888 24.8799 16 20.5359 16C17.4933 16 14.7839 17.416 13.0239 19.624C12.3813 19.3493 11.6773 19.2 10.9359 19.2C7.98927 19.2 5.6026 21.5867 5.6026 24.5333V24.608C2.59194 25.08 0.266602 27.7013 0.266602 30.84C0.266602 34.4267 3.17327 37.3333 6.75994 37.3333H32.2666C36.3893 37.3333 39.7333 33.9893 39.7333 29.8667C39.7333 25.744 36.3893 22.4 32.2666 22.4H32.2693Z" fill="white"/>
    </g>
    <defs>
    <clipPath id="clip0_442_1182">
    <rect width="40" height="40" fill="white"/>
    </clipPath>
    </defs>
</svg>
    