<svg width="40" height="40" viewBox="0 0 40 40" fill="none" xmlns="http://www.w3.org/2000/svg">
    <g clip-path="url(#clip0_424_734)">
    <path d="M20 33.332C27.363 33.332 33.332 27.363 33.332 20C33.332 12.6369 27.363 6.66797 20 6.66797C12.6369 6.66797 6.66797 12.6369 6.66797 20C6.66797 27.363 12.6369 33.332 20 33.332Z" fill="#FFC800"/>
    <path d="M20.004 0H20C19.2643 0 18.668 0.596357 18.668 1.332V4C18.668 4.73564 19.2643 5.332 20 5.332H20.004C20.7396 5.332 21.336 4.73564 21.336 4V1.332C21.336 0.596357 20.7396 0 20.004 0Z" fill="#FF9600"/>
    <path d="M19.996 40H20C20.7357 40 21.332 39.4036 21.332 38.668V36C21.332 35.2644 20.7357 34.668 20 34.668H19.996C19.2604 34.668 18.664 35.2644 18.664 36V38.668C18.664 39.4036 19.2604 40 19.996 40Z" fill="#FF9600"/>
    <path d="M40 20.004V20C40 19.2643 39.4036 18.668 38.668 18.668H36C35.2644 18.668 34.668 19.2643 34.668 20V20.004C34.668 20.7396 35.2644 21.336 36 21.336H38.668C39.4036 21.336 40 20.7396 40 20.004Z" fill="#FF9600"/>
    <path d="M0 20.0001L0 20.0041C0 20.7397 0.596356 21.3361 1.332 21.3361H4C4.73564 21.3361 5.332 20.7397 5.332 20.0041V20.0001C5.332 19.2644 4.73564 18.6681 4 18.6681H1.332C0.596356 18.6681 0 19.2644 0 20.0001Z" fill="#FF9600"/>
    <path d="M5.85998 5.85462L5.85715 5.85745C5.33697 6.37763 5.33697 7.221 5.85715 7.74118L7.74371 9.62774C8.26389 10.1479 9.10726 10.1479 9.62744 9.62774L9.63027 9.62492C10.1504 9.10474 10.1504 8.26136 9.63027 7.74118L7.74371 5.85462C7.22353 5.33444 6.38016 5.33444 5.85998 5.85462Z" fill="#FF9600"/>
    <path d="M34.143 34.1454L34.1458 34.1426C34.666 33.6224 34.666 32.779 34.1458 32.2588L32.2592 30.3723C31.739 29.8521 30.8957 29.8521 30.3755 30.3723L30.3727 30.3751C29.8525 30.8953 29.8525 31.7386 30.3727 32.2588L32.2592 34.1454C32.7794 34.6656 33.6228 34.6656 34.143 34.1454Z" fill="#FF9600"/>
    <path d="M34.1461 5.86059L34.1433 5.85776C33.6231 5.33758 32.7797 5.33758 32.2595 5.85776L30.373 7.74432C29.8528 8.2645 29.8528 9.10788 30.373 9.62805L30.3758 9.63088C30.896 10.1511 31.7394 10.1511 32.2596 9.63088L34.1461 7.74432C34.6663 7.22414 34.6663 6.38077 34.1461 5.86059Z" fill="#FF9600"/>
    <path d="M5.85511 34.1394L5.85794 34.1422C6.37812 34.6624 7.22149 34.6624 7.74167 34.1422L9.62823 32.2557C10.1484 31.7355 10.1484 30.8921 9.62823 30.3719L9.6254 30.3691C9.10523 29.8489 8.26185 29.8489 7.74167 30.3691L5.85511 32.2557C5.33493 32.7759 5.33493 33.6192 5.85511 34.1394Z" fill="#FF9600"/>
    </g>
    <defs>
    <clipPath id="clip0_424_734">
    <rect width="40" height="40" fill="white"/>
    </clipPath>
    </defs>
</svg>
