<svg width="40" height="40" viewBox="0 0 40 40" fill="none" xmlns="http://www.w3.org/2000/svg">
    <path d="M20.0001 33.3333C27.3639 33.3333 33.3334 27.3638 33.3334 20C33.3334 12.6362 27.3639 6.66663 20.0001 6.66663C12.6363 6.66663 6.66675 12.6362 6.66675 20C6.66675 27.3638 12.6363 33.3333 20.0001 33.3333Z" fill="#FFC800"/>
    <path d="M21.3334 1.33333C21.3334 0.596954 20.7365 0 20.0001 0C19.2637 0 18.6667 0.596954 18.6667 1.33333V4C18.6667 4.73638 19.2637 5.33333 20.0001 5.33333C20.7365 5.33333 21.3334 4.73638 21.3334 4V1.33333Z" fill="#FF9600"/>
    <path d="M18.6666 38.6667C18.6666 39.403 19.2635 40 19.9999 40C20.7363 40 21.3333 39.403 21.3333 38.6667V36C21.3333 35.2636 20.7363 34.6667 19.9999 34.6667C19.2635 34.6667 18.6666 35.2636 18.6666 36V38.6667Z" fill="#FF9600"/>
    <path d="M38.6667 21.3333C39.403 21.3333 40 20.7363 40 20C40 19.2636 39.403 18.6666 38.6667 18.6666H36C35.2636 18.6666 34.6667 19.2636 34.6667 20C34.6667 20.7363 35.2636 21.3333 36 21.3333H38.6667Z" fill="#FF9600"/>
    <path d="M1.33333 18.6667C0.596954 18.6667 0 19.2637 0 20C0 20.7364 0.596954 21.3334 1.33333 21.3334H4C4.73638 21.3334 5.33333 20.7364 5.33333 20C5.33333 19.2637 4.73638 18.6667 4 18.6667H1.33333Z" fill="#FF9600"/>
    <path d="M7.74371 5.85834C7.22301 5.33764 6.37879 5.33764 5.85809 5.85834C5.33739 6.37904 5.33739 7.22326 5.85809 7.74396L7.74371 9.62957C8.26441 10.1503 9.10863 10.1503 9.62933 9.62957C10.15 9.10888 10.15 8.26466 9.62933 7.74396L7.74371 5.85834Z" fill="#FF9600"/>
    <path d="M32.2578 34.1417C32.7785 34.6624 33.6227 34.6624 34.1434 34.1417C34.6641 33.621 34.6641 32.7767 34.1434 32.256L32.2578 30.3704C31.7371 29.8497 30.8928 29.8497 30.3721 30.3704C29.8514 30.8911 29.8514 31.7353 30.3721 32.256L32.2578 34.1417Z" fill="#FF9600"/>
    <path d="M34.1408 7.74298C34.6615 7.22228 34.6615 6.37806 34.1408 5.85736C33.6201 5.33666 32.7759 5.33666 32.2552 5.85736L30.3696 7.74298C29.8489 8.26368 29.8489 9.1079 30.3696 9.6286C30.8903 10.1493 31.7345 10.1493 32.2552 9.6286L34.1408 7.74298Z" fill="#FF9600"/>
    <path d="M5.85773 32.257C5.33703 32.7777 5.33703 33.6219 5.85773 34.1426C6.37843 34.6633 7.22265 34.6633 7.74335 34.1426L9.62896 32.257C10.1497 31.7363 10.1497 30.8921 9.62897 30.3714C9.10827 29.8507 8.26405 29.8507 7.74335 30.3714L5.85773 32.257Z" fill="#FF9600"/>
    <path opacity="0.5" d="M35.3333 12C34.7786 12 34.2426 12.0987 33.7493 12.28C33.0106 9.80533 30.7173 8 27.9999 8C24.8879 8 22.3279 10.3707 22.0293 13.4053C21.7839 13.36 21.5333 13.3333 21.2746 13.3333C19.1066 13.3333 17.3333 15.1067 17.3333 17.2747C17.3333 19.5147 19.1493 21.3333 21.3919 21.3333H35.3333C37.9093 21.3333 39.9999 19.2427 39.9999 16.6667C39.9999 14.088 37.9119 12 35.3333 12Z" fill="#999999"/>
    <path opacity="0.5" d="M24 26.1334C23.3333 26.1334 22.6933 26.2507 22.0986 26.4694C21.2106 23.4987 18.4586 21.3334 15.2 21.3334C12.9173 21.3334 10.8853 22.3947 9.56531 24.0534C9.08531 23.848 8.55465 23.7334 7.99998 23.7334C5.79198 23.7334 3.99998 25.5254 3.99998 27.7334C3.99998 27.752 3.99998 27.7707 3.99998 27.7894C1.74131 28.1414 -0.00268555 30.1094 -0.00268555 32.464C-0.00268555 35.1547 2.17865 37.3334 4.86665 37.3334H23.9973C27.0906 37.3334 29.5973 34.8267 29.5973 31.7334C29.5973 28.64 27.0906 26.1334 23.9973 26.1334H24Z" fill="#999999"/>
    <path opacity="0.5" d="M16 5.86663C15.5547 5.86663 15.128 5.94663 14.7307 6.09063C14.1387 4.11196 12.304 2.66663 10.1333 2.66663C8.61333 2.66663 7.256 3.37596 6.37867 4.47996C6.05867 4.34396 5.704 4.26663 5.33333 4.26663C3.86133 4.26663 2.66667 5.46129 2.66667 6.93329C2.66667 6.94663 2.66667 6.95729 2.66667 6.97063C1.16 7.20529 0 8.51729 0 10.0853C0 11.8773 1.45333 13.3306 3.24533 13.3306H16C18.0613 13.3306 19.7333 11.6586 19.7333 9.59729C19.7333 7.53596 18.0613 5.86396 16 5.86396V5.86663Z" fill="#999999"/>
</svg>
    