<svg width="40" height="26" viewBox="0 0 40 26" fill="none" xmlns="http://www.w3.org/2000/svg">
    <path d="M6.66809 7.44797C5.43981 7.44797 4.44409 8.44279 4.44409 9.66997C4.44409 10.8971 5.43981 11.892 6.66809 11.892L24.4441 11.892C25.6724 11.892 26.6681 10.8971 26.6681 9.66997C26.6681 8.44279 25.6724 7.44797 24.4441 7.44797L6.66809 7.44797Z" fill="#EEEEEE"/>
    <path d="M31.1161 7.44406C29.8878 7.44406 28.8921 8.43888 28.8921 9.66606C28.8921 10.8932 29.8878 11.8881 31.1161 11.8881H35.5561C36.7844 11.8881 37.7801 10.8932 37.7801 9.66606C37.7801 8.43888 36.7844 7.44406 35.5561 7.44406H31.1161Z" fill="#EEEEEE"/>
    <path d="M6.66809 7.44797C5.43981 7.44797 4.44409 8.44279 4.44409 9.66997C4.44409 10.8971 5.43981 11.892 6.66809 11.892L24.4441 11.892C25.6724 11.892 26.6681 10.8971 26.6681 9.66997C26.6681 8.44279 25.6724 7.44797 24.4441 7.44797L6.66809 7.44797Z" fill="#EEEEEE"/>
    <path d="M31.1161 7.44406C29.8878 7.44406 28.8921 8.43888 28.8921 9.66606C28.8921 10.8932 29.8878 11.8881 31.1161 11.8881H35.5561C36.7844 11.8881 37.7801 10.8932 37.7801 9.66606C37.7801 8.43888 36.7844 7.44406 35.5561 7.44406H31.1161Z" fill="#EEEEEE"/>
    <path d="M31.108 25.224C32.3363 25.224 33.332 24.2292 33.332 23.002C33.332 21.7749 32.3363 20.78 31.108 20.78H17.78C16.5517 20.78 15.556 21.7749 15.556 23.002C15.556 24.2292 16.5517 25.224 17.78 25.224H31.108Z" fill="#EEEEEE"/>
    <path d="M11.108 25.224C12.3363 25.224 13.332 24.2292 13.332 23.002C13.332 21.7749 12.3363 20.78 11.108 20.78H6.66803C5.43975 20.78 4.44403 21.7749 4.44403 23.002C4.44403 24.2292 5.43975 25.224 6.66803 25.224H11.108Z" fill="#EEEEEE"/>
    <path d="M31.108 25.224C32.3363 25.224 33.332 24.2292 33.332 23.002C33.332 21.7749 32.3363 20.78 31.108 20.78H17.78C16.5517 20.78 15.556 21.7749 15.556 23.002C15.556 24.2292 16.5517 25.224 17.78 25.224H31.108Z" fill="#EEEEEE"/>
    <path d="M11.108 25.224C12.3363 25.224 13.332 24.2292 13.332 23.002C13.332 21.7749 12.3363 20.78 11.108 20.78H6.66803C5.43975 20.78 4.44403 21.7749 4.44403 23.002C4.44403 24.2292 5.43975 25.224 6.66803 25.224H11.108Z" fill="#EEEEEE"/>
    <path d="M2.224 14.112C0.995718 14.112 0 15.1069 0 16.334C0 17.5612 0.995718 18.556 2.224 18.556H20C21.2283 18.556 22.224 17.5612 22.224 16.334C22.224 15.1069 21.2283 14.112 20 14.112H2.224Z" fill="#EEEEEE"/>
    <path d="M26.6681 14.112C25.4398 14.112 24.4441 15.1069 24.4441 16.334C24.4441 17.5612 25.4398 18.556 26.6681 18.556H37.7761C39.0044 18.556 40.0001 17.5612 40.0001 16.334C40.0001 15.1069 39.0044 14.112 37.7761 14.112H26.6681Z" fill="#EEEEEE"/>
    <path d="M2.224 14.112C0.995718 14.112 0 15.1069 0 16.334C0 17.5612 0.995718 18.556 2.224 18.556H20C21.2283 18.556 22.224 17.5612 22.224 16.334C22.224 15.1069 21.2283 14.112 20 14.112H2.224Z" fill="#EEEEEE"/>
    <path d="M26.6681 14.112C25.4398 14.112 24.4441 15.1069 24.4441 16.334C24.4441 17.5612 25.4398 18.556 26.6681 18.556H37.7761C39.0044 18.556 40.0001 17.5612 40.0001 16.334C40.0001 15.1069 39.0044 14.112 37.7761 14.112H26.6681Z" fill="#EEEEEE"/>
    <path d="M35.5562 3.232V2.764C35.5562 1.66606 34.6661 0.776001 33.5682 0.776001L19.7682 0.776001C18.6702 0.776001 17.7802 1.66606 17.7802 2.764V3.232C17.7802 4.32994 18.6702 5.22 19.7682 5.22L33.5682 5.22C34.6661 5.22 35.5562 4.32994 35.5562 3.232Z" fill="#EEEEEE"/>
    <path d="M13.328 5.22403C14.5563 5.22403 15.552 4.22921 15.552 3.00203C15.552 1.77485 14.5563 0.780029 13.328 0.780029L2.22 0.780029C0.991721 0.780029 -0.0039978 1.77485 -0.0039978 3.00203C-0.0039978 4.22921 0.991721 5.22403 2.22 5.22403L13.328 5.22403Z" fill="#EEEEEE"/>
    <path d="M35.5562 3.232V2.764C35.5562 1.66606 34.6661 0.776001 33.5682 0.776001L19.7682 0.776001C18.6702 0.776001 17.7802 1.66606 17.7802 2.764V3.232C17.7802 4.32994 18.6702 5.22 19.7682 5.22L33.5682 5.22C34.6661 5.22 35.5562 4.32994 35.5562 3.232Z" fill="#EEEEEE"/>
    <path d="M13.328 5.22403C14.5563 5.22403 15.552 4.22921 15.552 3.00203C15.552 1.77485 14.5563 0.780029 13.328 0.780029L2.22 0.780029C0.991721 0.780029 -0.0039978 1.77485 -0.0039978 3.00203C-0.0039978 4.22921 0.991721 5.22403 2.22 5.22403L13.328 5.22403Z" fill="#EEEEEE"/>
</svg>
    