<svg width="40" height="40" viewBox="0 0 40 40" fill="none" xmlns="http://www.w3.org/2000/svg">
    <g clip-path="url(#clip0_442_991)">
    <path d="M26.6667 17.776C30.5931 17.776 33.776 14.5931 33.776 10.6667C33.776 6.74033 30.5931 3.55737 26.6667 3.55737C22.7403 3.55737 19.5574 6.74033 19.5574 10.6667C19.5574 14.5931 22.7403 17.776 26.6667 17.776Z" fill="#FFC800"/>
    <path d="M26.6719 0H26.6666C26.2749 0 25.9573 0.317579 25.9573 0.709333V2.13333C25.9573 2.52509 26.2749 2.84267 26.6666 2.84267H26.6719C27.0637 2.84267 27.3813 2.52509 27.3813 2.13333V0.709333C27.3813 0.317579 27.0637 0 26.6719 0Z" fill="#FF9600"/>
    <path d="M26.6693 18.4907H26.6639C26.2722 18.4907 25.9546 18.8083 25.9546 19.2001V20.6241C25.9546 21.0158 26.2722 21.3334 26.6639 21.3334H26.6693C27.061 21.3334 27.3786 21.0158 27.3786 20.6241V19.2001C27.3786 18.8083 27.061 18.4907 26.6693 18.4907Z" fill="#FF9600"/>
    <path d="M36.6241 9.95728H35.2001C34.8083 9.95728 34.4907 10.2749 34.4907 10.6666V10.6719C34.4907 11.0637 34.8083 11.3813 35.2001 11.3813H36.6241C37.0158 11.3813 37.3334 11.0637 37.3334 10.6719V10.6666C37.3334 10.2749 37.0158 9.95728 36.6241 9.95728Z" fill="#FF9600"/>
    <path d="M18.1333 9.95728H16.7093C16.3176 9.95728 16 10.2749 16 10.6666V10.6719C16 11.0637 16.3176 11.3813 16.7093 11.3813H18.1333C18.5251 11.3813 18.8427 11.0637 18.8427 10.6719V10.6666C18.8427 10.2749 18.5251 9.95728 18.1333 9.95728Z" fill="#FF9600"/>
    <path d="M19.1289 3.12014L19.1251 3.12391C18.8481 3.40093 18.8481 3.85005 19.1251 4.12706L20.132 5.13398C20.409 5.41099 20.8582 5.41099 21.1352 5.13398L21.1389 5.13021C21.416 4.8532 21.416 4.40407 21.139 4.12706L20.132 3.12014C19.855 2.84313 19.4059 2.84313 19.1289 3.12014Z" fill="#FF9600"/>
    <path d="M32.2026 16.1968L32.1988 16.2006C31.9218 16.4776 31.9218 16.9267 32.1988 17.2037L33.2058 18.2106C33.4828 18.4877 33.9319 18.4877 34.2089 18.2106L34.2127 18.2069C34.4897 17.9299 34.4897 17.4807 34.2127 17.2037L33.2058 16.1968C32.9287 15.9198 32.4796 15.9198 32.2026 16.1968Z" fill="#FF9600"/>
    <path d="M33.2041 3.12407L32.1971 4.13099C31.9201 4.40801 31.9201 4.85713 32.1971 5.13414L32.2009 5.13791C32.4779 5.41493 32.927 5.41493 33.2041 5.13791L34.211 4.13099C34.488 3.85398 34.488 3.40486 34.211 3.12785L34.2072 3.12407C33.9302 2.84706 33.4811 2.84706 33.2041 3.12407Z" fill="#FF9600"/>
    <path d="M20.1293 16.1985L19.1224 17.2055C18.8454 17.4825 18.8454 17.9316 19.1224 18.2086L19.1262 18.2124C19.4032 18.4894 19.8523 18.4894 20.1293 18.2124L21.1363 17.2055C21.4133 16.9284 21.4133 16.4793 21.1363 16.2023L21.1325 16.1985C20.8555 15.9215 20.4064 15.9215 20.1293 16.1985Z" fill="#FF9600"/>
    <path d="M29.3359 12.8C28.6693 12.8 28.0266 12.9173 27.4346 13.136C26.5466 10.1653 23.7946 8 20.5359 8C18.2533 8 16.2213 9.06133 14.9013 10.7173C14.4186 10.512 13.8906 10.4 13.3359 10.4C11.1253 10.4 9.33592 12.1893 9.33592 14.4V14.456C7.07725 14.8107 5.33325 16.776 5.33325 19.1307C5.33325 21.8213 7.51192 24 10.2026 24H29.3333C32.4266 24 34.9333 21.4907 34.9333 18.4C34.9333 15.3093 32.4266 12.8 29.3333 12.8H29.3359Z" fill="#999999"/>
    <path d="M12.3147 24.5574L10.5147 25.0401L8.71206 24.0001L10.5147 22.9601L12.3147 23.4427C12.3467 23.4507 12.3761 23.4561 12.4081 23.4561C12.5654 23.4561 12.7094 23.3521 12.7521 23.1921C12.8027 23.0027 12.6907 22.8081 12.5014 22.7574L11.3867 22.4587L12.4907 21.8214C12.6614 21.7227 12.7201 21.5067 12.6214 21.3361C12.5227 21.1654 12.3067 21.1067 12.1361 21.2054L11.0321 21.8427L11.3307 20.7281C11.3814 20.5387 11.2694 20.3441 11.0801 20.2934C10.8907 20.2427 10.6961 20.3547 10.6454 20.5441L10.1627 22.3441L8.36006 23.3841V21.3014L9.67739 19.9841C9.81606 19.8454 9.81606 19.6214 9.67739 19.4801C9.53872 19.3414 9.31206 19.3414 9.17339 19.4801L8.35739 20.2961V19.0214C8.35739 18.8241 8.19739 18.6667 8.00272 18.6667C7.80806 18.6667 7.64806 18.8267 7.64806 19.0214V20.2961L6.83206 19.4801C6.69339 19.3414 6.46672 19.3414 6.32806 19.4801C6.18939 19.6187 6.18939 19.8427 6.32806 19.9841L7.64539 21.3014V23.3841L5.84272 22.3441L5.36006 20.5441C5.30939 20.3547 5.11472 20.2427 4.92539 20.2934C4.73606 20.3441 4.62406 20.5387 4.67472 20.7281L4.97339 21.8427L3.86939 21.2054C3.69872 21.1067 3.48272 21.1654 3.38406 21.3361C3.28539 21.5067 3.34406 21.7227 3.51472 21.8214L4.61872 22.4587L3.50406 22.7574C3.31472 22.8081 3.20272 23.0027 3.25339 23.1921C3.29606 23.3521 3.44006 23.4561 3.59739 23.4561C3.62672 23.4561 3.65872 23.4534 3.69072 23.4427L5.49072 22.9601L7.29339 24.0001L5.49072 25.0401L3.69072 24.5574C3.50139 24.5067 3.30672 24.6187 3.25606 24.8081C3.20539 24.9974 3.31739 25.1921 3.50672 25.2427L4.62139 25.5414L3.51739 26.1787C3.34672 26.2774 3.28806 26.4934 3.38672 26.6641C3.45339 26.7787 3.57339 26.8427 3.69606 26.8427C3.75739 26.8427 3.81872 26.8267 3.87472 26.7947L4.97872 26.1574L4.68006 27.2721C4.62939 27.4614 4.74139 27.6561 4.93072 27.7067C4.96272 27.7147 4.99206 27.7201 5.02406 27.7201C5.18139 27.7201 5.32539 27.6161 5.36806 27.4561L5.85072 25.6561L7.65339 24.6161V26.6987L6.33606 28.0161C6.19739 28.1547 6.19739 28.3787 6.33606 28.5201C6.47472 28.6587 6.70139 28.6587 6.84006 28.5201L7.65606 27.7041V28.9787C7.65606 29.1761 7.81606 29.3334 8.01072 29.3334C8.20539 29.3334 8.36539 29.1734 8.36539 28.9787V27.7041L9.18139 28.5201C9.25072 28.5894 9.34139 28.6241 9.43206 28.6241C9.52272 28.6241 9.61339 28.5894 9.68272 28.5201C9.82139 28.3814 9.82139 28.1574 9.68272 28.0161L8.36539 26.6987V24.6161L10.1681 25.6561L10.6507 27.4561C10.6934 27.6161 10.8374 27.7201 10.9947 27.7201C11.0241 27.7201 11.0561 27.7174 11.0881 27.7067C11.2774 27.6561 11.3894 27.4614 11.3387 27.2721L11.0401 26.1574L12.1441 26.7947C12.2001 26.8267 12.2614 26.8427 12.3227 26.8427C12.4454 26.8427 12.5654 26.7787 12.6321 26.6641C12.7307 26.4934 12.6721 26.2774 12.5014 26.1787L11.3974 25.5414L12.5121 25.2427C12.7014 25.1921 12.8134 24.9974 12.7627 24.8081C12.7121 24.6187 12.5174 24.5067 12.3281 24.5574H12.3147Z" fill="white"/>
    <path d="M22.9812 35.2239L21.1812 35.7066L19.3786 34.6666L21.1812 33.6266L22.9812 34.1093C23.0132 34.1173 23.0426 34.1226 23.0746 34.1226C23.2319 34.1226 23.3759 34.0186 23.4186 33.8586C23.4692 33.6693 23.3572 33.4746 23.1679 33.4239L22.0532 33.1253L23.1572 32.4879C23.3279 32.3893 23.3866 32.1733 23.2879 32.0026C23.1892 31.8319 22.9732 31.7733 22.8026 31.8719L21.6986 32.5093L21.9972 31.3946C22.0479 31.2053 21.9359 31.0106 21.7466 30.9599C21.5572 30.9093 21.3626 31.0213 21.3119 31.2106L20.8292 33.0106L19.0266 34.0506V31.9679L20.3439 30.6506C20.4826 30.5119 20.4826 30.2879 20.3439 30.1466C20.2052 30.0079 19.9786 30.0079 19.8399 30.1466L19.0239 30.9626V29.6879C19.0239 29.4906 18.8639 29.3333 18.6692 29.3333C18.4746 29.3333 18.3146 29.4933 18.3146 29.6879V30.9626L17.4986 30.1466C17.3599 30.0079 17.1332 30.0079 16.9946 30.1466C16.8559 30.2853 16.8559 30.5093 16.9946 30.6506L18.3119 31.9679V34.0506L16.5092 33.0106L16.0266 31.2106C15.9759 31.0213 15.7812 30.9093 15.5919 30.9599C15.4026 31.0106 15.2906 31.2053 15.3412 31.3946L15.6399 32.5093L14.5359 31.8719C14.3652 31.7733 14.1492 31.8319 14.0506 32.0026C13.9519 32.1733 14.0106 32.3893 14.1812 32.4879L15.2852 33.1253L14.1706 33.4239C13.9812 33.4746 13.8692 33.6693 13.9199 33.8586C13.9626 34.0186 14.1066 34.1226 14.2639 34.1226C14.2932 34.1226 14.3252 34.1199 14.3572 34.1093L16.1572 33.6266L17.9599 34.6666L16.1572 35.7066L14.3572 35.2239C14.1679 35.1733 13.9732 35.2853 13.9226 35.4746C13.8719 35.6639 13.9839 35.8586 14.1732 35.9093L15.2879 36.2079L14.1839 36.8453C14.0132 36.9439 13.9546 37.1599 14.0532 37.3306C14.1199 37.4453 14.2399 37.5093 14.3626 37.5093C14.4239 37.5093 14.4852 37.4933 14.5412 37.4613L15.6452 36.8239L15.3466 37.9386C15.2959 38.1279 15.4079 38.3226 15.5972 38.3733C15.6292 38.3813 15.6586 38.3866 15.6906 38.3866C15.8479 38.3866 15.9919 38.2826 16.0346 38.1226L16.5172 36.3226L18.3199 35.2826V37.3653L17.0026 38.6826C16.8639 38.8213 16.8639 39.0453 17.0026 39.1866C17.1412 39.3253 17.3679 39.3253 17.5066 39.1866L18.3226 38.3706V39.6453C18.3226 39.8426 18.4826 39.9999 18.6772 39.9999C18.8719 39.9999 19.0319 39.8399 19.0319 39.6453V38.3706L19.8479 39.1866C19.9172 39.2559 20.0079 39.2906 20.0986 39.2906C20.1892 39.2906 20.2799 39.2559 20.3492 39.1866C20.4879 39.0479 20.4879 38.8239 20.3492 38.6826L19.0319 37.3653V35.2826L20.8346 36.3226L21.3172 38.1226C21.3599 38.2826 21.5039 38.3866 21.6612 38.3866C21.6906 38.3866 21.7226 38.3839 21.7546 38.3733C21.9439 38.3226 22.0559 38.1279 22.0052 37.9386L21.7066 36.8239L22.8106 37.4613C22.8666 37.4933 22.9279 37.5093 22.9892 37.5093C23.1119 37.5093 23.2319 37.4453 23.2986 37.3306C23.3972 37.1599 23.3386 36.9439 23.1679 36.8453L22.0639 36.2079L23.1786 35.9093C23.3679 35.8586 23.4799 35.6639 23.4292 35.4746C23.3786 35.2853 23.1839 35.1733 22.9946 35.2239H22.9812Z" fill="white"/>
    <path d="M28.3147 21.8907L26.5147 22.3733L24.7121 21.3333L26.5147 20.2933L28.3147 20.776C28.3467 20.784 28.3761 20.7893 28.4081 20.7893C28.5654 20.7893 28.7094 20.6853 28.7521 20.5253C28.8027 20.336 28.6907 20.1413 28.5014 20.0907L27.3867 19.792L28.4907 19.1547C28.6614 19.056 28.7201 18.84 28.6214 18.6693C28.5227 18.4987 28.3067 18.44 28.1361 18.5387L27.0321 19.176L27.3307 18.0613C27.3814 17.872 27.2694 17.6773 27.0801 17.6267C26.8907 17.576 26.6961 17.688 26.6454 17.8773L26.1627 19.6773L24.3601 20.7173V18.6347L25.6774 17.3173C25.8161 17.1787 25.8161 16.9547 25.6774 16.8133C25.5387 16.6747 25.3121 16.6747 25.1734 16.8133L24.3574 17.6293V16.3547C24.3574 16.1573 24.1974 16 24.0027 16C23.8081 16 23.6481 16.16 23.6481 16.3547V17.6293L22.8321 16.8133C22.6934 16.6747 22.4667 16.6747 22.3281 16.8133C22.1894 16.952 22.1894 17.176 22.3281 17.3173L23.6454 18.6347V20.7173L21.8427 19.6773L21.3601 17.8773C21.3094 17.688 21.1147 17.576 20.9254 17.6267C20.7361 17.6773 20.6241 17.872 20.6747 18.0613L20.9734 19.176L19.8694 18.5387C19.6987 18.44 19.4827 18.4987 19.3841 18.6693C19.2854 18.84 19.3441 19.056 19.5147 19.1547L20.6187 19.792L19.5041 20.0907C19.3147 20.1413 19.2027 20.336 19.2534 20.5253C19.2961 20.6853 19.4401 20.7893 19.5974 20.7893C19.6267 20.7893 19.6587 20.7867 19.6907 20.776L21.4907 20.2933L23.2934 21.3333L21.4907 22.3733L19.6907 21.8907C19.5014 21.84 19.3067 21.952 19.2561 22.1413C19.2054 22.3307 19.3174 22.5253 19.5067 22.576L20.6214 22.8747L19.5174 23.512C19.3467 23.6107 19.2881 23.8267 19.3867 23.9973C19.4534 24.112 19.5734 24.176 19.6961 24.176C19.7574 24.176 19.8187 24.16 19.8747 24.128L20.9787 23.4907L20.6801 24.6053C20.6294 24.7947 20.7414 24.9893 20.9307 25.04C20.9627 25.048 20.9921 25.0533 21.0241 25.0533C21.1814 25.0533 21.3254 24.9493 21.3681 24.7893L21.8507 22.9893L23.6534 21.9493V24.032L22.3361 25.3493C22.1974 25.488 22.1974 25.712 22.3361 25.8533C22.4747 25.992 22.7014 25.992 22.8401 25.8533L23.6561 25.0373V26.312C23.6561 26.5093 23.8161 26.6667 24.0107 26.6667C24.2054 26.6667 24.3654 26.5067 24.3654 26.312V25.0373L25.1814 25.8533C25.2507 25.9227 25.3414 25.9573 25.4321 25.9573C25.5227 25.9573 25.6134 25.9227 25.6827 25.8533C25.8214 25.7147 25.8214 25.4907 25.6827 25.3493L24.3654 24.032V21.9493L26.1681 22.9893L26.6507 24.7893C26.6934 24.9493 26.8374 25.0533 26.9947 25.0533C27.0241 25.0533 27.0561 25.0507 27.0881 25.04C27.2774 24.9893 27.3894 24.7947 27.3387 24.6053L27.0401 23.4907L28.1441 24.128C28.2001 24.16 28.2614 24.176 28.3227 24.176C28.4454 24.176 28.5654 24.112 28.6321 23.9973C28.7307 23.8267 28.6721 23.6107 28.5014 23.512L27.3974 22.8747L28.5121 22.576C28.7014 22.5253 28.8134 22.3307 28.7627 22.1413C28.7121 21.952 28.5174 21.84 28.3281 21.8907H28.3147Z" fill="white"/>
    <path d="M38.9812 29.8907L37.1812 30.3733L35.3786 29.3333L37.1812 28.2933L38.9812 28.776C39.0132 28.784 39.0426 28.7893 39.0746 28.7893C39.2319 28.7893 39.3759 28.6853 39.4186 28.5253C39.4692 28.336 39.3572 28.1413 39.1679 28.0907L38.0532 27.792L39.1572 27.1547C39.3279 27.056 39.3866 26.84 39.2879 26.6693C39.1892 26.4987 38.9732 26.44 38.8026 26.5387L37.6986 27.176L37.9972 26.0613C38.0479 25.872 37.9359 25.6773 37.7466 25.6267C37.5572 25.576 37.3626 25.688 37.3119 25.8773L36.8292 27.6773L35.0266 28.7173V26.6347L36.3439 25.3173C36.4826 25.1787 36.4826 24.9547 36.3439 24.8133C36.2052 24.6747 35.9786 24.6747 35.8399 24.8133L35.0239 25.6293V24.3547C35.0239 24.1573 34.8639 24 34.6692 24C34.4746 24 34.3146 24.16 34.3146 24.3547V25.6293L33.4986 24.8133C33.3599 24.6747 33.1332 24.6747 32.9946 24.8133C32.8559 24.952 32.8559 25.176 32.9946 25.3173L34.3119 26.6347V28.7173L32.5092 27.6773L32.0266 25.8773C31.9759 25.688 31.7812 25.576 31.5919 25.6267C31.4026 25.6773 31.2906 25.872 31.3412 26.0613L31.6399 27.176L30.5359 26.5387C30.3652 26.44 30.1492 26.4987 30.0506 26.6693C29.9519 26.84 30.0106 27.056 30.1812 27.1547L31.2852 27.792L30.1706 28.0907C29.9812 28.1413 29.8692 28.336 29.9199 28.5253C29.9626 28.6853 30.1066 28.7893 30.2639 28.7893C30.2932 28.7893 30.3252 28.7867 30.3572 28.776L32.1572 28.2933L33.9599 29.3333L32.1572 30.3733L30.3572 29.8907C30.1679 29.84 29.9732 29.952 29.9226 30.1413C29.8719 30.3307 29.9839 30.5253 30.1732 30.576L31.2879 30.8747L30.1839 31.512C30.0132 31.6107 29.9546 31.8267 30.0532 31.9973C30.1199 32.112 30.2399 32.176 30.3626 32.176C30.4239 32.176 30.4852 32.16 30.5412 32.128L31.6452 31.4907L31.3466 32.6053C31.2959 32.7947 31.4079 32.9893 31.5972 33.04C31.6292 33.048 31.6586 33.0533 31.6906 33.0533C31.8479 33.0533 31.9919 32.9493 32.0346 32.7893L32.5172 30.9893L34.3199 29.9493V32.032L33.0026 33.3493C32.8639 33.488 32.8639 33.712 33.0026 33.8533C33.1412 33.992 33.3679 33.992 33.5066 33.8533L34.3226 33.0373V34.312C34.3226 34.5093 34.4826 34.6667 34.6772 34.6667C34.8719 34.6667 35.0319 34.5067 35.0319 34.312V33.0373L35.8479 33.8533C35.9172 33.9227 36.0079 33.9573 36.0986 33.9573C36.1892 33.9573 36.2799 33.9227 36.3492 33.8533C36.4879 33.7147 36.4879 33.4907 36.3492 33.3493L35.0319 32.032V29.9493L36.8346 30.9893L37.3172 32.7893C37.3599 32.9493 37.5039 33.0533 37.6612 33.0533C37.6906 33.0533 37.7226 33.0507 37.7546 33.04C37.9439 32.9893 38.0559 32.7947 38.0052 32.6053L37.7066 31.4907L38.8106 32.128C38.8666 32.16 38.9279 32.176 38.9892 32.176C39.1119 32.176 39.2319 32.112 39.2986 31.9973C39.3972 31.8267 39.3386 31.6107 39.1679 31.512L38.0639 30.8747L39.1786 30.576C39.3679 30.5253 39.4799 30.3307 39.4292 30.1413C39.3786 29.952 39.1839 29.84 38.9946 29.8907H38.9812Z" fill="white"/>
    </g>
    <defs>
    <clipPath id="clip0_442_991">
    <rect width="40" height="40" fill="white"/>
    </clipPath>
    </defs>
</svg>
    