<svg width="40" height="40" viewBox="0 0 40 40" fill="none" xmlns="http://www.w3.org/2000/svg">
    <g clip-path="url(#clip0_442_1245)">
    <path d="M29.3334 21.3333C35.2245 21.3333 40.0001 16.5577 40.0001 10.6667C40.0001 4.77563 35.2245 0 29.3334 0C23.4424 0 18.6667 4.77563 18.6667 10.6667C18.6667 16.5577 23.4424 21.3333 29.3334 21.3333Z" fill="#DCF0FF"/>
    <path d="M21.8667 7.46671C21.8667 5.34138 22.4907 3.36004 23.5627 1.69604C20.6187 3.59471 18.6667 6.90138 18.6667 10.6667C18.6667 16.5574 23.4427 21.3334 29.3334 21.3334C33.0987 21.3334 36.4054 19.3814 38.3041 16.4374C36.6401 17.5094 34.6614 18.1334 32.5334 18.1334C26.6427 18.1334 21.8667 13.3574 21.8667 7.46671Z" fill="#C8E6FF"/>
    <path d="M5.91747 30.1626C5.8108 30.1626 5.70413 30.144 5.59747 30.1066C5.11213 29.9306 4.86147 29.392 5.03747 28.9066L9.1308 17.664C9.3068 17.1786 9.84547 16.9253 10.3308 17.104C10.8161 17.28 11.0668 17.8186 10.8908 18.304L6.79747 29.5466C6.6588 29.928 6.2988 30.1626 5.91747 30.1626Z" fill="#8CBEFF"/>
    <path d="M3.87206 35.784C3.76539 35.784 3.65872 35.7654 3.55205 35.728C3.06672 35.552 2.81606 35.0134 2.99206 34.528L3.67472 32.6534C3.85072 32.168 4.38939 31.9174 4.87472 32.0934C5.36006 32.2694 5.61072 32.808 5.43472 33.2934L4.75206 35.168C4.61339 35.5494 4.25339 35.784 3.87206 35.784Z" fill="#8CBEFF"/>
    <path d="M9.66673 33.9092C9.56007 33.9092 9.4534 33.8905 9.34673 33.8532C8.8614 33.6772 8.61073 33.1385 8.78673 32.6532L12.8801 21.4105C13.0561 20.9252 13.5947 20.6719 14.0801 20.8505C14.5654 21.0265 14.8161 21.5652 14.6401 22.0505L10.5467 33.2932C10.4081 33.6745 10.0481 33.9092 9.66673 33.9092Z" fill="#8CBEFF"/>
    <path d="M7.61864 39.5306C7.51197 39.5306 7.4053 39.512 7.29864 39.4746C6.8133 39.2986 6.56264 38.76 6.73864 38.2746L7.4213 36.4C7.5973 35.9146 8.13597 35.664 8.6213 35.84C9.10664 36.016 9.3573 36.5546 9.1813 37.04L8.49864 38.9146C8.35997 39.296 7.99997 39.5306 7.61864 39.5306Z" fill="#8CBEFF"/>
    <path d="M15.2881 30.1626C15.1814 30.1626 15.0747 30.144 14.9681 30.1066C14.4827 29.9306 14.2321 29.392 14.4081 28.9066L18.5014 17.664C18.6774 17.1786 19.2161 16.9253 19.7014 17.104C20.1867 17.28 20.4374 17.8186 20.2614 18.304L16.1681 29.5466C16.0294 29.928 15.6694 30.1626 15.2881 30.1626Z" fill="#8CBEFF"/>
    <path d="M13.24 35.784C13.1333 35.784 13.0266 35.7654 12.92 35.728C12.4346 35.552 12.184 35.0134 12.36 34.528L13.0426 32.6534C13.2186 32.168 13.7573 31.9174 14.2426 32.0934C14.728 32.2694 14.9786 32.808 14.8026 33.2934L14.12 35.168C13.9813 35.5494 13.6213 35.784 13.24 35.784Z" fill="#8CBEFF"/>
    <path d="M19.0349 33.9092C18.9282 33.9092 18.8216 33.8905 18.7149 33.8532C18.2296 33.6772 17.9789 33.1385 18.1549 32.6532L22.2482 21.4105C22.4242 20.9252 22.9629 20.6719 23.4482 20.8505C23.9336 21.0265 24.1842 21.5652 24.0082 22.0505L19.9149 33.2932C19.7762 33.6745 19.4162 33.9092 19.0349 33.9092Z" fill="#8CBEFF"/>
    <path d="M16.9895 39.5306C16.8828 39.5306 16.7762 39.512 16.6695 39.4746C16.1842 39.2986 15.9335 38.76 16.1095 38.2746L16.7922 36.4C16.9682 35.9146 17.5068 35.664 17.9922 35.84C18.4775 36.016 18.7282 36.5546 18.5522 37.04L17.8695 38.9146C17.7308 39.296 17.3708 39.5306 16.9895 39.5306Z" fill="#8CBEFF"/>
    <path d="M24.6562 30.1626C24.5496 30.1626 24.4429 30.144 24.3362 30.1066C23.8509 29.9306 23.6002 29.392 23.7762 28.9066L27.8696 17.664C28.0456 17.1786 28.5842 16.9253 29.0696 17.104C29.5549 17.28 29.8056 17.8186 29.6296 18.304L25.5362 29.5466C25.3976 29.928 25.0376 30.1626 24.6562 30.1626Z" fill="#8CBEFF"/>
    <path d="M22.6108 35.784C22.5042 35.784 22.3975 35.7654 22.2908 35.728C21.8055 35.552 21.5548 35.0134 21.7308 34.528L22.4135 32.6534C22.5895 32.168 23.1282 31.9174 23.6135 32.0934C24.0988 32.2694 24.3495 32.808 24.1735 33.2934L23.4908 35.168C23.3522 35.5494 22.9922 35.784 22.6108 35.784Z" fill="#8CBEFF"/>
    <path d="M28.1093 11.4241C27.328 11.4241 26.5787 11.5627 25.8827 11.8161C24.8427 8.33873 21.6213 5.80273 17.8053 5.80273C15.1333 5.80273 12.752 7.04807 11.208 8.98673C10.6453 8.74673 10.024 8.6134 9.37333 8.6134C6.78667 8.6134 4.688 10.7121 4.688 13.2987C4.688 13.3201 4.688 13.3441 4.688 13.3654C2.04 13.7787 0 16.0801 0 18.8374C0 21.9867 2.55467 24.5414 5.704 24.5414H28.1093C31.7307 24.5414 34.6667 21.6054 34.6667 17.9841C34.6667 14.3627 31.7307 11.4267 28.1093 11.4267V11.4241Z" fill="#999999"/>
    <path d="M13.1173 11.4241L5.62134 21.7307H10.3067L7.496 30.1627L14.992 19.8561H10.3067L13.1173 11.4241Z" fill="#FFE600"/>
    <path d="M23.7974 17.0454L17.8027 25.2907H21.5494L19.3014 32.0374L25.2961 23.7921H21.5494L23.7974 17.0454Z" fill="#FFE600"/>
    </g>
    <defs>
    <clipPath id="clip0_442_1245">
    <rect width="40" height="40" fill="white"/>
    </clipPath>
    </defs>
</svg>
    