<svg width="40" height="40" viewBox="0 0 40 40" fill="none" xmlns="http://www.w3.org/2000/svg">
    <g clip-path="url(#clip0_442_1149)">
    <path d="M12 13.0667C11.6667 13.0667 11.3467 13.1254 11.048 13.2347C10.6053 11.7494 9.22933 10.6667 7.6 10.6667C6.45867 10.6667 5.44267 11.1974 4.784 12.0267C4.544 11.9254 4.28 11.8667 4 11.8667C2.896 11.8667 2 12.7627 2 13.8667C2 13.8774 2 13.8854 2 13.8961C0.869333 14.0721 0 15.0561 0 16.2321C0 17.5761 1.09067 18.6667 2.43467 18.6667H12C13.5467 18.6667 14.8 17.4134 14.8 15.8667C14.8 14.3201 13.5467 13.0667 12 13.0667Z" fill="white"/>
    <path d="M34.8 29.0667C34.4667 29.0667 34.1467 29.1254 33.848 29.2347C33.4053 27.7494 32.0293 26.6667 30.4 26.6667C28.5333 26.6667 26.9973 28.0881 26.8187 29.9094C26.672 29.8827 26.52 29.8667 26.3653 29.8667C25.064 29.8667 24 30.9307 24 32.2321C24 33.5761 25.0907 34.6667 26.4347 34.6667H34.8C36.3467 34.6667 37.6 33.4134 37.6 31.8667C37.6 30.3201 36.3467 29.0667 34.8 29.0667Z" fill="white"/>
    <path d="M20.0001 33.3334C27.3639 33.3334 33.3334 27.3639 33.3334 20.0001C33.3334 12.6363 27.3639 6.66675 20.0001 6.66675C12.6363 6.66675 6.66675 12.6363 6.66675 20.0001C6.66675 27.3639 12.6363 33.3334 20.0001 33.3334Z" fill="#DCF0FF"/>
    <path d="M10.6667 16C10.6667 13.3413 11.4481 10.8666 12.7894 8.78931C9.10675 11.1626 6.66675 15.296 6.66675 20C6.66675 27.3626 12.6374 33.3333 20.0001 33.3333C24.7067 33.3333 28.8401 30.8933 31.2107 27.2106C29.1307 28.552 26.6561 29.3333 24.0001 29.3333C16.6374 29.3333 10.6667 23.3626 10.6667 16Z" fill="#C8E6FF"/>
    </g>
    <defs>
    <clipPath id="clip0_442_1149">
    <rect width="40" height="40" fill="white"/>
    </clipPath>
    </defs>
</svg>
    