<svg width="40" height="40" viewBox="0 0 40 40" fill="none" xmlns="http://www.w3.org/2000/svg">
    <g clip-path="url(#clip0_442_927)">
    <path d="M26.6667 17.776C30.5931 17.776 33.776 14.5931 33.776 10.6667C33.776 6.74033 30.5931 3.55737 26.6667 3.55737C22.7403 3.55737 19.5574 6.74033 19.5574 10.6667C19.5574 14.5931 22.7403 17.776 26.6667 17.776Z" fill="#FFC800"/>
    <path d="M26.6719 0H26.6666C26.2749 0 25.9573 0.317579 25.9573 0.709333V2.13333C25.9573 2.52509 26.2749 2.84267 26.6666 2.84267H26.6719C27.0637 2.84267 27.3813 2.52509 27.3813 2.13333V0.709333C27.3813 0.317579 27.0637 0 26.6719 0Z" fill="#FF9600"/>
    <path d="M26.6693 18.4907H26.6639C26.2722 18.4907 25.9546 18.8083 25.9546 19.2001V20.6241C25.9546 21.0158 26.2722 21.3334 26.6639 21.3334H26.6693C27.061 21.3334 27.3786 21.0158 27.3786 20.6241V19.2001C27.3786 18.8083 27.061 18.4907 26.6693 18.4907Z" fill="#FF9600"/>
    <path d="M36.6241 9.95728H35.2001C34.8083 9.95728 34.4907 10.2749 34.4907 10.6666V10.6719C34.4907 11.0637 34.8083 11.3813 35.2001 11.3813H36.6241C37.0158 11.3813 37.3334 11.0637 37.3334 10.6719V10.6666C37.3334 10.2749 37.0158 9.95728 36.6241 9.95728Z" fill="#FF9600"/>
    <path d="M18.1333 9.95728H16.7093C16.3176 9.95728 16 10.2749 16 10.6666V10.6719C16 11.0637 16.3176 11.3813 16.7093 11.3813H18.1333C18.5251 11.3813 18.8427 11.0637 18.8427 10.6719V10.6666C18.8427 10.2749 18.5251 9.95728 18.1333 9.95728Z" fill="#FF9600"/>
    <path d="M19.1289 3.12014L19.1251 3.12391C18.8481 3.40093 18.8481 3.85005 19.1251 4.12706L20.132 5.13398C20.409 5.41099 20.8582 5.41099 21.1352 5.13398L21.1389 5.13021C21.416 4.8532 21.416 4.40407 21.139 4.12706L20.132 3.12014C19.855 2.84313 19.4059 2.84313 19.1289 3.12014Z" fill="#FF9600"/>
    <path d="M32.2026 16.1968L32.1988 16.2006C31.9218 16.4776 31.9218 16.9267 32.1988 17.2037L33.2058 18.2106C33.4828 18.4877 33.9319 18.4877 34.2089 18.2106L34.2127 18.2069C34.4897 17.9299 34.4897 17.4807 34.2127 17.2037L33.2058 16.1968C32.9287 15.9198 32.4796 15.9198 32.2026 16.1968Z" fill="#FF9600"/>
    <path d="M33.2041 3.12407L32.1971 4.13099C31.9201 4.40801 31.9201 4.85713 32.1971 5.13414L32.2009 5.13791C32.4779 5.41493 32.927 5.41493 33.2041 5.13791L34.211 4.13099C34.488 3.85398 34.488 3.40486 34.211 3.12785L34.2072 3.12407C33.9302 2.84706 33.4811 2.84706 33.2041 3.12407Z" fill="#FF9600"/>
    <path d="M20.1293 16.1985L19.1224 17.2055C18.8454 17.4825 18.8454 17.9316 19.1224 18.2086L19.1262 18.2124C19.4032 18.4894 19.8523 18.4894 20.1293 18.2124L21.1363 17.2055C21.4133 16.9284 21.4133 16.4793 21.1363 16.2023L21.1325 16.1985C20.8555 15.9215 20.4064 15.9215 20.1293 16.1985Z" fill="#FF9600"/>
    <path d="M29.3359 12.8C28.6693 12.8 28.0266 12.9173 27.4346 13.136C26.5466 10.1653 23.7946 8 20.5359 8C18.2533 8 16.2213 9.06133 14.9013 10.7173C14.4186 10.512 13.8906 10.4 13.3359 10.4C11.1253 10.4 9.33592 12.1893 9.33592 14.4V14.456C7.07725 14.8107 5.33325 16.776 5.33325 19.1307C5.33325 21.8213 7.51192 24 10.2026 24H29.3333C32.4266 24 34.9333 21.4907 34.9333 18.4C34.9333 15.3093 32.4266 12.8 29.3333 12.8H29.3359Z" fill="#CCCCCC"/>
    <path d="M14.6667 26.6666C16.1394 26.6666 17.3333 25.4727 17.3333 23.9999C17.3333 22.5272 16.1394 21.3333 14.6667 21.3333C13.1939 21.3333 12 22.5272 12 23.9999C12 25.4727 13.1939 26.6666 14.6667 26.6666Z" fill="white"/>
    <path d="M25.3334 26.6666C26.8062 26.6666 28.0001 25.4727 28.0001 23.9999C28.0001 22.5272 26.8062 21.3333 25.3334 21.3333C23.8607 21.3333 22.6667 22.5272 22.6667 23.9999C22.6667 25.4727 23.8607 26.6666 25.3334 26.6666Z" fill="white"/>
    <path d="M19.9999 34.6666C21.4727 34.6666 22.6666 33.4727 22.6666 31.9999C22.6666 30.5272 21.4727 29.3333 19.9999 29.3333C18.5272 29.3333 17.3333 30.5272 17.3333 31.9999C17.3333 33.4727 18.5272 34.6666 19.9999 34.6666Z" fill="white"/>
    <path d="M9.33341 34.6666C10.8062 34.6666 12.0001 33.4727 12.0001 31.9999C12.0001 30.5272 10.8062 29.3333 9.33341 29.3333C7.86066 29.3333 6.66675 30.5272 6.66675 31.9999C6.66675 33.4727 7.86066 34.6666 9.33341 34.6666Z" fill="white"/>
    <path d="M30.6667 34.6666C32.1394 34.6666 33.3333 33.4727 33.3333 31.9999C33.3333 30.5272 32.1394 29.3333 30.6667 29.3333C29.1939 29.3333 28 30.5272 28 31.9999C28 33.4727 29.1939 34.6666 30.6667 34.6666Z" fill="white"/>
    </g>
    <defs>
    <clipPath id="clip0_442_927">
    <rect width="40" height="40" fill="white"/>
    </clipPath>
    </defs>
</svg>
    