<svg width="40" height="40" viewBox="0 0 40 40" fill="none" xmlns="http://www.w3.org/2000/svg">
    <g clip-path="url(#clip0_442_1297)">
    <path d="M26.6667 21.3333C32.5577 21.3333 37.3333 16.5577 37.3333 10.6667C37.3333 4.77563 32.5577 0 26.6667 0C20.7756 0 16 4.77563 16 10.6667C16 16.5577 20.7756 21.3333 26.6667 21.3333Z" fill="#DCF0FF"/>
    <path d="M19.2 7.46671C19.2 5.34138 19.824 3.36004 20.896 1.69604C17.952 3.59471 16 6.90138 16 10.6667C16 16.5574 20.776 21.3334 26.6667 21.3334C30.432 21.3334 33.7387 19.3814 35.6373 16.4374C33.9733 17.5094 31.9947 18.1334 29.8667 18.1334C23.976 18.1334 19.2 13.3574 19.2 7.46671Z" fill="#C8E6FF"/>
    <path d="M29.3359 12.8C28.6693 12.8 28.0266 12.9173 27.4346 13.136C26.5466 10.1653 23.7946 8 20.5359 8C18.2533 8 16.2213 9.06133 14.9013 10.7173C14.4186 10.512 13.8906 10.4 13.3359 10.4C11.1253 10.4 9.33592 12.1893 9.33592 14.4V14.456C7.07725 14.8107 5.33325 16.776 5.33325 19.1307C5.33325 21.8213 7.51192 24 10.2026 24H29.3333C32.4266 24 34.9333 21.4907 34.9333 18.4C34.9333 15.3093 32.4266 12.8 29.3333 12.8H29.3359Z" fill="#CCCCCC"/>
    <path d="M14.6667 26.6666C16.1394 26.6666 17.3333 25.4727 17.3333 23.9999C17.3333 22.5272 16.1394 21.3333 14.6667 21.3333C13.1939 21.3333 12 22.5272 12 23.9999C12 25.4727 13.1939 26.6666 14.6667 26.6666Z" fill="white"/>
    <path d="M25.3334 26.6666C26.8062 26.6666 28.0001 25.4727 28.0001 23.9999C28.0001 22.5272 26.8062 21.3333 25.3334 21.3333C23.8607 21.3333 22.6667 22.5272 22.6667 23.9999C22.6667 25.4727 23.8607 26.6666 25.3334 26.6666Z" fill="white"/>
    <path d="M19.9999 34.6666C21.4727 34.6666 22.6666 33.4727 22.6666 31.9999C22.6666 30.5272 21.4727 29.3333 19.9999 29.3333C18.5272 29.3333 17.3333 30.5272 17.3333 31.9999C17.3333 33.4727 18.5272 34.6666 19.9999 34.6666Z" fill="white"/>
    <path d="M9.33341 34.6666C10.8062 34.6666 12.0001 33.4727 12.0001 31.9999C12.0001 30.5272 10.8062 29.3333 9.33341 29.3333C7.86066 29.3333 6.66675 30.5272 6.66675 31.9999C6.66675 33.4727 7.86066 34.6666 9.33341 34.6666Z" fill="white"/>
    <path d="M30.6667 34.6666C32.1394 34.6666 33.3333 33.4727 33.3333 31.9999C33.3333 30.5272 32.1394 29.3333 30.6667 29.3333C29.1939 29.3333 28 30.5272 28 31.9999C28 33.4727 29.1939 34.6666 30.6667 34.6666Z" fill="white"/>
    </g>
    <defs>
    <clipPath id="clip0_442_1297">
    <rect width="40" height="40" fill="white"/>
    </clipPath>
    </defs>
</svg>
    