<svg width="40" height="40" viewBox="0 0 40 40" fill="none" xmlns="http://www.w3.org/2000/svg">
    <g clip-path="url(#clip0_442_1165)">
    <path d="M20.0001 33.3334C27.3639 33.3334 33.3334 27.3639 33.3334 20.0001C33.3334 12.6363 27.3639 6.66675 20.0001 6.66675C12.6363 6.66675 6.66675 12.6363 6.66675 20.0001C6.66675 27.3639 12.6363 33.3334 20.0001 33.3334Z" fill="#DCF0FF"/>
    <path d="M10.6667 16C10.6667 13.3413 11.4481 10.8666 12.7894 8.78931C9.10675 11.1626 6.66675 15.296 6.66675 20C6.66675 27.3626 12.6374 33.3333 20.0001 33.3333C24.7067 33.3333 28.8401 30.8933 31.2107 27.2106C29.1307 28.552 26.6561 29.3333 24.0001 29.3333C16.6374 29.3333 10.6667 23.3626 10.6667 16Z" fill="#C8E6FF"/>
    <path d="M36.2667 13.8667C35.8214 13.8667 35.3947 13.9467 34.9974 14.0907C34.4054 12.1121 32.5707 10.6667 30.4 10.6667C27.9094 10.6667 25.864 12.5627 25.624 14.9894C25.4294 14.9521 25.2267 14.9334 25.0214 14.9334C23.288 14.9334 21.8667 16.3521 21.8667 18.0881C21.8667 19.8801 23.32 21.3334 25.112 21.3334H36.2667C38.328 21.3334 40 19.6614 40 17.6001C40 15.5387 38.328 13.8667 36.2667 13.8667Z" fill="white"/>
    <path d="M16 27.2C15.5547 27.2 15.128 27.28 14.7307 27.424C14.1387 25.4453 12.304 24 10.1333 24C8.61333 24 7.256 24.7093 6.37867 25.8133C6.05867 25.6773 5.704 25.6 5.33333 25.6C3.86133 25.6 2.66667 26.7947 2.66667 28.2667C2.66667 28.28 2.66667 28.2907 2.66667 28.304C1.16 28.5387 0 29.8507 0 31.4187C0 33.2107 1.45333 34.664 3.24533 34.664H16C18.0613 34.664 19.7333 32.992 19.7333 30.9307C19.7333 28.8693 18.0613 27.1973 16 27.1973V27.2Z" fill="white"/>
    </g>
    <defs>
    <clipPath id="clip0_442_1165">
    <rect width="40" height="40" fill="white"/>
    </clipPath>
    </defs>
</svg>
    