<svg width="40" height="40" viewBox="0 0 40 40" fill="none" xmlns="http://www.w3.org/2000/svg">
    <g clip-path="url(#clip0_442_1217)">
    <path d="M12.8747 18.2214C12.8747 17.6485 12.4103 17.1841 11.8374 17.1841C11.2645 17.1841 10.8 17.6485 10.8 18.2214V30.6641C10.8 31.237 11.2645 31.7014 11.8374 31.7014C12.4103 31.7014 12.8747 31.237 12.8747 30.6641V18.2214Z" fill="#8CBEFF"/>
    <path d="M12.8747 34.8161C12.8747 34.2432 12.4103 33.7788 11.8374 33.7788C11.2645 33.7788 10.8 34.2432 10.8 34.8161V36.8908C10.8 37.4637 11.2645 37.9281 11.8374 37.9281C12.4103 37.9281 12.8747 37.4637 12.8747 36.8908V34.8161Z" fill="#8CBEFF"/>
    <path d="M12.8747 18.2214C12.8747 17.6485 12.4103 17.1841 11.8374 17.1841C11.2645 17.1841 10.8 17.6485 10.8 18.2214V30.6641C10.8 31.237 11.2645 31.7014 11.8374 31.7014C12.4103 31.7014 12.8747 31.237 12.8747 30.6641V18.2214Z" fill="#8CBEFF"/>
    <path d="M12.8747 34.8161C12.8747 34.2432 12.4103 33.7788 11.8374 33.7788C11.2645 33.7788 10.8 34.2432 10.8 34.8161V36.8908C10.8 37.4637 11.2645 37.9281 11.8374 37.9281C12.4103 37.9281 12.8747 37.4637 12.8747 36.8908V34.8161Z" fill="#8CBEFF"/>
    <path d="M17.0241 20.2961C17.0241 19.7232 16.5597 19.2588 15.9868 19.2588C15.4139 19.2588 14.9495 19.7232 14.9495 20.2961V32.7388C14.9495 33.3117 15.4139 33.7761 15.9868 33.7761C16.5597 33.7761 17.0241 33.3117 17.0241 32.7388V20.2961Z" fill="#8CBEFF"/>
    <path d="M17.0241 36.8882C17.0241 36.3153 16.5597 35.8508 15.9868 35.8508C15.4139 35.8508 14.9495 36.3153 14.9495 36.8882V38.9628C14.9495 39.5357 15.4139 40.0002 15.9868 40.0002C16.5597 40.0002 17.0241 39.5357 17.0241 38.9628V36.8882Z" fill="#8CBEFF"/>
    <path d="M17.0241 20.2961C17.0241 19.7232 16.5597 19.2588 15.9868 19.2588C15.4139 19.2588 14.9495 19.7232 14.9495 20.2961V32.7388C14.9495 33.3117 15.4139 33.7761 15.9868 33.7761C16.5597 33.7761 17.0241 33.3117 17.0241 32.7388V20.2961Z" fill="#8CBEFF"/>
    <path d="M17.0241 36.8882C17.0241 36.3153 16.5597 35.8508 15.9868 35.8508C15.4139 35.8508 14.9495 36.3153 14.9495 36.8882V38.9628C14.9495 39.5357 15.4139 40.0002 15.9868 40.0002C16.5597 40.0002 17.0241 39.5357 17.0241 38.9628V36.8882Z" fill="#8CBEFF"/>
    <path d="M21.1706 18.2214C21.1706 17.6485 20.7062 17.1841 20.1333 17.1841C19.5604 17.1841 19.0959 17.6485 19.0959 18.2214V30.6641C19.0959 31.237 19.5604 31.7014 20.1333 31.7014C20.7062 31.7014 21.1706 31.237 21.1706 30.6641V18.2214Z" fill="#8CBEFF"/>
    <path d="M21.1706 34.8161C21.1706 34.2432 20.7062 33.7788 20.1333 33.7788C19.5604 33.7788 19.0959 34.2432 19.0959 34.8161V36.8908C19.0959 37.4637 19.5604 37.9281 20.1333 37.9281C20.7062 37.9281 21.1706 37.4637 21.1706 36.8908V34.8161Z" fill="#8CBEFF"/>
    <path d="M21.1706 18.2214C21.1706 17.6485 20.7062 17.1841 20.1333 17.1841C19.5604 17.1841 19.0959 17.6485 19.0959 18.2214V30.6641C19.0959 31.237 19.5604 31.7014 20.1333 31.7014C20.7062 31.7014 21.1706 31.237 21.1706 30.6641V18.2214Z" fill="#8CBEFF"/>
    <path d="M21.1706 34.8161C21.1706 34.2432 20.7062 33.7788 20.1333 33.7788C19.5604 33.7788 19.0959 34.2432 19.0959 34.8161V36.8908C19.0959 37.4637 19.5604 37.9281 20.1333 37.9281C20.7062 37.9281 21.1706 37.4637 21.1706 36.8908V34.8161Z" fill="#8CBEFF"/>
    <path d="M25.32 20.2961C25.32 19.7232 24.8556 19.2588 24.2827 19.2588C23.7098 19.2588 23.2454 19.7232 23.2454 20.2961V32.7388C23.2454 33.3117 23.7098 33.7761 24.2827 33.7761C24.8556 33.7761 25.32 33.3117 25.32 32.7388V20.2961Z" fill="#8CBEFF"/>
    <path d="M25.32 36.8882C25.32 36.3153 24.8556 35.8508 24.2827 35.8508C23.7098 35.8508 23.2454 36.3153 23.2454 36.8882V38.9628C23.2454 39.5357 23.7098 40.0002 24.2827 40.0002C24.8556 40.0002 25.32 39.5357 25.32 38.9628V36.8882Z" fill="#8CBEFF"/>
    <path d="M25.32 20.2961C25.32 19.7232 24.8556 19.2588 24.2827 19.2588C23.7098 19.2588 23.2454 19.7232 23.2454 20.2961V32.7388C23.2454 33.3117 23.7098 33.7761 24.2827 33.7761C24.8556 33.7761 25.32 33.3117 25.32 32.7388V20.2961Z" fill="#8CBEFF"/>
    <path d="M25.32 36.8882C25.32 36.3153 24.8556 35.8508 24.2827 35.8508C23.7098 35.8508 23.2454 36.3153 23.2454 36.8882V38.9628C23.2454 39.5357 23.7098 40.0002 24.2827 40.0002C24.8556 40.0002 25.32 39.5357 25.32 38.9628V36.8882Z" fill="#8CBEFF"/>
    <path d="M29.4668 18.2214C29.4668 17.6485 29.0023 17.1841 28.4294 17.1841C27.8565 17.1841 27.3921 17.6485 27.3921 18.2214V30.6641C27.3921 31.237 27.8565 31.7014 28.4294 31.7014C29.0023 31.7014 29.4668 31.237 29.4668 30.6641V18.2214Z" fill="#8CBEFF"/>
    <path d="M29.4668 34.8161C29.4668 34.2432 29.0023 33.7788 28.4294 33.7788C27.8565 33.7788 27.3921 34.2432 27.3921 34.8161V36.8908C27.3921 37.4637 27.8565 37.9281 28.4294 37.9281C29.0023 37.9281 29.4668 37.4637 29.4668 36.8908V34.8161Z" fill="#8CBEFF"/>
    <path d="M29.4668 18.2214C29.4668 17.6485 29.0023 17.1841 28.4294 17.1841C27.8565 17.1841 27.3921 17.6485 27.3921 18.2214V30.6641C27.3921 31.237 27.8565 31.7014 28.4294 31.7014C29.0023 31.7014 29.4668 31.237 29.4668 30.6641V18.2214Z" fill="#8CBEFF"/>
    <path d="M29.4668 34.8161C29.4668 34.2432 29.0023 33.7788 28.4294 33.7788C27.8565 33.7788 27.3921 34.2432 27.3921 34.8161V36.8908C27.3921 37.4637 27.8565 37.9281 28.4294 37.9281C29.0023 37.9281 29.4668 37.4637 29.4668 36.8908V34.8161Z" fill="#8CBEFF"/>
    <path d="M29.3359 18.1333C28.6693 18.1333 28.0266 18.2506 27.4346 18.4693C26.5466 15.4986 23.7946 13.3333 20.5359 13.3333C18.2533 13.3333 16.2213 14.3946 14.9013 16.0506C14.4186 15.8453 13.8906 15.7333 13.3359 15.7333C11.1253 15.7333 9.33592 17.5226 9.33592 19.7333V19.7893C7.07725 20.1439 5.33325 22.1093 5.33325 24.4639C5.33325 27.1546 7.51192 29.3333 10.2026 29.3333H29.3333C32.4266 29.3333 34.9333 26.8239 34.9333 23.7333C34.9333 20.6426 32.4266 18.1333 29.3333 18.1333H29.3359Z" fill="white"/>
    <path d="M26.6667 21.3333C32.5577 21.3333 37.3333 16.5577 37.3333 10.6667C37.3333 4.77563 32.5577 0 26.6667 0C20.7756 0 16 4.77563 16 10.6667C16 16.5577 20.7756 21.3333 26.6667 21.3333Z" fill="#DCF0FF"/>
    <path d="M19.2 7.46671C19.2 5.34138 19.824 3.36004 20.896 1.69604C17.952 3.59471 16 6.90138 16 10.6667C16 16.5574 20.776 21.3334 26.6667 21.3334C30.432 21.3334 33.7387 19.3814 35.6373 16.4374C33.9733 17.5094 31.9947 18.1334 29.8667 18.1334C23.976 18.1334 19.2 13.3574 19.2 7.46671Z" fill="#C8E6FF"/>
    </g>
    <defs>
    <clipPath id="clip0_442_1217">
    <rect width="40" height="40" fill="white"/>
    </clipPath>
    </defs>
</svg>
    