<svg width="40" height="40" viewBox="0 0 40 40" fill="none" xmlns="http://www.w3.org/2000/svg">
    <g clip-path="url(#clip0_442_1309)">
    <path d="M19.9999 40.0001C21.4727 40.0001 22.6666 38.8062 22.6666 37.3334C22.6666 35.8607 21.4727 34.6667 19.9999 34.6667C18.5272 34.6667 17.3333 35.8607 17.3333 37.3334C17.3333 38.8062 18.5272 40.0001 19.9999 40.0001Z" fill="white"/>
    <path d="M9.33341 40.0001C10.8062 40.0001 12.0001 38.8062 12.0001 37.3334C12.0001 35.8607 10.8062 34.6667 9.33341 34.6667C7.86066 34.6667 6.66675 35.8607 6.66675 37.3334C6.66675 38.8062 7.86066 40.0001 9.33341 40.0001Z" fill="white"/>
    <path d="M30.6667 40.0001C32.1394 40.0001 33.3333 38.8062 33.3333 37.3334C33.3333 35.8607 32.1394 34.6667 30.6667 34.6667C29.1939 34.6667 28 35.8607 28 37.3334C28 38.8062 29.1939 40.0001 30.6667 40.0001Z" fill="white"/>
    <path d="M29.3359 18.1333C28.6693 18.1333 28.0266 18.2506 27.4346 18.4693C26.5466 15.4986 23.7946 13.3333 20.5359 13.3333C18.2533 13.3333 16.2213 14.3946 14.9013 16.0506C14.4186 15.8453 13.8906 15.7333 13.3359 15.7333C11.1253 15.7333 9.33592 17.5226 9.33592 19.7333V19.7893C7.07725 20.1439 5.33325 22.1093 5.33325 24.4639C5.33325 27.1546 7.51192 29.3333 10.2026 29.3333H29.3333C32.4266 29.3333 34.9333 26.8239 34.9333 23.7333C34.9333 20.6426 32.4266 18.1333 29.3333 18.1333H29.3359Z" fill="#CCCCCC"/>
    <path d="M14.6667 32.0001C16.1394 32.0001 17.3333 30.8062 17.3333 29.3334C17.3333 27.8607 16.1394 26.6667 14.6667 26.6667C13.1939 26.6667 12 27.8607 12 29.3334C12 30.8062 13.1939 32.0001 14.6667 32.0001Z" fill="white"/>
    <path d="M25.3334 32.0001C26.8062 32.0001 28.0001 30.8062 28.0001 29.3334C28.0001 27.8607 26.8062 26.6667 25.3334 26.6667C23.8607 26.6667 22.6667 27.8607 22.6667 29.3334C22.6667 30.8062 23.8607 32.0001 25.3334 32.0001Z" fill="white"/>
    <path d="M26.6667 21.3333C32.5577 21.3333 37.3333 16.5577 37.3333 10.6667C37.3333 4.77563 32.5577 0 26.6667 0C20.7756 0 16 4.77563 16 10.6667C16 16.5577 20.7756 21.3333 26.6667 21.3333Z" fill="#DCF0FF"/>
    <path d="M19.2 7.46671C19.2 5.34138 19.824 3.36004 20.896 1.69604C17.952 3.59471 16 6.90138 16 10.6667C16 16.5574 20.776 21.3334 26.6667 21.3334C30.432 21.3334 33.7387 19.3814 35.6373 16.4374C33.9733 17.5094 31.9947 18.1334 29.8667 18.1334C23.976 18.1334 19.2 13.3574 19.2 7.46671Z" fill="#C8E6FF"/>
    </g>
    <defs>
    <clipPath id="clip0_442_1309">
    <rect width="40" height="40" fill="white"/>
    </clipPath>
    </defs>
</svg>
    