<svg width="34" height="40" viewBox="0 0 34 40" fill="none" xmlns="http://www.w3.org/2000/svg">
    <path d="M4.27199 1.82C4.27199 0.814842 3.45804 0 2.45399 0C1.44993 0 0.635986 0.814842 0.635986 1.82V23.636C0.635986 24.6412 1.44993 25.456 2.45399 25.456C3.45804 25.456 4.27199 24.6412 4.27199 23.636V1.82Z" fill="#8CBEFF"/>
    <path d="M4.27199 30.912C4.27199 29.9069 3.45804 29.092 2.45399 29.092C1.44993 29.092 0.635986 29.9069 0.635986 30.912V34.544C0.635986 35.5492 1.44993 36.364 2.45399 36.364C3.45804 36.364 4.27199 35.5492 4.27199 34.544V30.912Z" fill="#8CBEFF"/>
    <path d="M4.27199 1.82C4.27199 0.814842 3.45804 0 2.45399 0C1.44993 0 0.635986 0.814842 0.635986 1.82V23.636C0.635986 24.6412 1.44993 25.456 2.45399 25.456C3.45804 25.456 4.27199 24.6412 4.27199 23.636V1.82Z" fill="#8CBEFF"/>
    <path d="M4.27199 30.912C4.27199 29.9069 3.45804 29.092 2.45399 29.092C1.44993 29.092 0.635986 29.9069 0.635986 30.912V34.544C0.635986 35.5492 1.44993 36.364 2.45399 36.364C3.45804 36.364 4.27199 35.5492 4.27199 34.544V30.912Z" fill="#8CBEFF"/>
    <path d="M11.544 5.45599C11.544 4.45083 10.73 3.63599 9.72596 3.63599C8.72191 3.63599 7.90796 4.45083 7.90796 5.45599V27.272C7.90796 28.2771 8.72191 29.092 9.72596 29.092C10.73 29.092 11.544 28.2771 11.544 27.272V5.45599Z" fill="#8CBEFF"/>
    <path d="M11.544 34.548C11.544 33.5429 10.73 32.728 9.72596 32.728C8.72191 32.728 7.90796 33.5429 7.90796 34.548V38.18C7.90796 39.1852 8.72191 40 9.72596 40C10.73 40 11.544 39.1852 11.544 38.18V34.548Z" fill="#8CBEFF"/>
    <path d="M11.544 5.45599C11.544 4.45083 10.73 3.63599 9.72596 3.63599C8.72191 3.63599 7.90796 4.45083 7.90796 5.45599V27.272C7.90796 28.2771 8.72191 29.092 9.72596 29.092C10.73 29.092 11.544 28.2771 11.544 27.272V5.45599Z" fill="#8CBEFF"/>
    <path d="M11.544 34.548C11.544 33.5429 10.73 32.728 9.72596 32.728C8.72191 32.728 7.90796 33.5429 7.90796 34.548V38.18C7.90796 39.1852 8.72191 40 9.72596 40C10.73 40 11.544 39.1852 11.544 38.18V34.548Z" fill="#8CBEFF"/>
    <path d="M18.8159 1.82C18.8159 0.814842 18.002 0 16.9979 0C15.9939 0 15.1799 0.814842 15.1799 1.82V23.636C15.1799 24.6412 15.9939 25.456 16.9979 25.456C18.002 25.456 18.8159 24.6412 18.8159 23.636V1.82Z" fill="#8CBEFF"/>
    <path d="M18.8159 30.912C18.8159 29.9069 18.002 29.092 16.9979 29.092C15.9939 29.092 15.1799 29.9069 15.1799 30.912V34.544C15.1799 35.5492 15.9939 36.364 16.9979 36.364C18.002 36.364 18.8159 35.5492 18.8159 34.544V30.912Z" fill="#8CBEFF"/>
    <path d="M18.8159 1.82C18.8159 0.814842 18.002 0 16.9979 0C15.9939 0 15.1799 0.814842 15.1799 1.82V23.636C15.1799 24.6412 15.9939 25.456 16.9979 25.456C18.002 25.456 18.8159 24.6412 18.8159 23.636V1.82Z" fill="#8CBEFF"/>
    <path d="M18.8159 30.912C18.8159 29.9069 18.002 29.092 16.9979 29.092C15.9939 29.092 15.1799 29.9069 15.1799 30.912V34.544C15.1799 35.5492 15.9939 36.364 16.9979 36.364C18.002 36.364 18.8159 35.5492 18.8159 34.544V30.912Z" fill="#8CBEFF"/>
    <path d="M26.0921 5.45599C26.0921 4.45083 25.2781 3.63599 24.2741 3.63599C23.27 3.63599 22.4561 4.45083 22.4561 5.45599V27.272C22.4561 28.2771 23.27 29.092 24.2741 29.092C25.2781 29.092 26.0921 28.2771 26.0921 27.272V5.45599Z" fill="#8CBEFF"/>
    <path d="M26.0921 34.548C26.0921 33.5429 25.2781 32.728 24.2741 32.728C23.27 32.728 22.4561 33.5429 22.4561 34.548V38.18C22.4561 39.1852 23.27 40 24.2741 40C25.2781 40 26.0921 39.1852 26.0921 38.18V34.548Z" fill="#8CBEFF"/>
    <path d="M26.0921 5.45599C26.0921 4.45083 25.2781 3.63599 24.2741 3.63599C23.27 3.63599 22.4561 4.45083 22.4561 5.45599V27.272C22.4561 28.2771 23.27 29.092 24.2741 29.092C25.2781 29.092 26.0921 28.2771 26.0921 27.272V5.45599Z" fill="#8CBEFF"/>
    <path d="M26.0921 34.548C26.0921 33.5429 25.2781 32.728 24.2741 32.728C23.27 32.728 22.4561 33.5429 22.4561 34.548V38.18C22.4561 39.1852 23.27 40 24.2741 40C25.2781 40 26.0921 39.1852 26.0921 38.18V34.548Z" fill="#8CBEFF"/>
    <path d="M33.364 1.82C33.364 0.814842 32.5501 0 31.546 0C30.542 0 29.728 0.814842 29.728 1.82V23.636C29.728 24.6412 30.542 25.456 31.546 25.456C32.5501 25.456 33.364 24.6412 33.364 23.636V1.82Z" fill="#8CBEFF"/>
    <path d="M33.364 30.912C33.364 29.9069 32.5501 29.092 31.546 29.092C30.542 29.092 29.728 29.9069 29.728 30.912V34.544C29.728 35.5492 30.542 36.364 31.546 36.364C32.5501 36.364 33.364 35.5492 33.364 34.544V30.912Z" fill="#8CBEFF"/>
    <path d="M33.364 1.82C33.364 0.814842 32.5501 0 31.546 0C30.542 0 29.728 0.814842 29.728 1.82V23.636C29.728 24.6412 30.542 25.456 31.546 25.456C32.5501 25.456 33.364 24.6412 33.364 23.636V1.82Z" fill="#8CBEFF"/>
    <path d="M33.364 30.912C33.364 29.9069 32.5501 29.092 31.546 29.092C30.542 29.092 29.728 29.9069 29.728 30.912V34.544C29.728 35.5492 30.542 36.364 31.546 36.364C32.5501 36.364 33.364 35.5492 33.364 34.544V30.912Z" fill="#8CBEFF"/>
</svg>
    