<svg width="40" height="22" viewBox="0 0 40 22" fill="none" xmlns="http://www.w3.org/2000/svg">
    <path d="M32.2666 6.73337C31.3786 6.73337 30.5226 6.89071 29.7306 7.18137C28.5466 3.22137 24.8773 0.333374 20.5333 0.333374C17.4906 0.333374 14.7812 1.74937 13.0212 3.95737C12.3786 3.68271 11.6746 3.53337 10.9332 3.53337C7.98658 3.53337 5.59992 5.92004 5.59992 8.86671C5.59992 8.89337 5.59992 8.91737 5.59992 8.94137C2.58925 9.41337 0.263916 12.0347 0.263916 15.1734C0.263916 18.76 3.17058 21.6667 6.75725 21.6667H32.2639C36.3866 21.6667 39.7306 18.3227 39.7306 14.2C39.7306 10.0774 36.3866 6.73337 32.2639 6.73337H32.2666Z" fill="white"/>
</svg>
    