<svg width="40" height="40" viewBox="0 0 40 40" fill="none" xmlns="http://www.w3.org/2000/svg">
    <g clip-path="url(#clip0_442_946)">
    <path d="M29.3359 18.1333C28.6693 18.1333 28.0266 18.2506 27.4346 18.4693C26.5466 15.4986 23.7946 13.3333 20.5359 13.3333C18.2533 13.3333 16.2213 14.3946 14.9013 16.0506C14.4186 15.8453 13.8906 15.7333 13.3359 15.7333C11.1253 15.7333 9.33592 17.5226 9.33592 19.7333V19.7893C7.07725 20.1439 5.33325 22.1093 5.33325 24.4639C5.33325 27.1546 7.51192 29.3333 10.2026 29.3333H29.3333C32.4266 29.3333 34.9333 26.8239 34.9333 23.7333C34.9333 20.6426 32.4266 18.1333 29.3333 18.1333H29.3359Z" fill="#CCCCCC"/>
    <path d="M14.6667 32.0001C16.1394 32.0001 17.3333 30.8062 17.3333 29.3334C17.3333 27.8607 16.1394 26.6667 14.6667 26.6667C13.1939 26.6667 12 27.8607 12 29.3334C12 30.8062 13.1939 32.0001 14.6667 32.0001Z" fill="white"/>
    <path d="M25.3334 32.0001C26.8062 32.0001 28.0001 30.8062 28.0001 29.3334C28.0001 27.8607 26.8062 26.6667 25.3334 26.6667C23.8607 26.6667 22.6667 27.8607 22.6667 29.3334C22.6667 30.8062 23.8607 32.0001 25.3334 32.0001Z" fill="white"/>
    <path d="M19.9999 40.0001C21.4727 40.0001 22.6666 38.8062 22.6666 37.3334C22.6666 35.8607 21.4727 34.6667 19.9999 34.6667C18.5272 34.6667 17.3333 35.8607 17.3333 37.3334C17.3333 38.8062 18.5272 40.0001 19.9999 40.0001Z" fill="white"/>
    <path d="M9.33341 40.0001C10.8062 40.0001 12.0001 38.8062 12.0001 37.3334C12.0001 35.8607 10.8062 34.6667 9.33341 34.6667C7.86066 34.6667 6.66675 35.8607 6.66675 37.3334C6.66675 38.8062 7.86066 40.0001 9.33341 40.0001Z" fill="white"/>
    <path d="M30.6667 40.0001C32.1394 40.0001 33.3333 38.8062 33.3333 37.3334C33.3333 35.8607 32.1394 34.6667 30.6667 34.6667C29.1939 34.6667 28 35.8607 28 37.3334C28 38.8062 29.1939 40.0001 30.6667 40.0001Z" fill="white"/>
    <path d="M24.0001 22.2213C28.9088 22.2213 32.8881 18.242 32.8881 13.3333C32.8881 8.42461 28.9088 4.44531 24.0001 4.44531C19.0914 4.44531 15.1121 8.42461 15.1121 13.3333C15.1121 18.242 19.0914 22.2213 24.0001 22.2213Z" fill="#FFC800"/>
    <path d="M24.0027 0H24.0001C23.5096 0 23.1121 0.397571 23.1121 0.888V2.66667C23.1121 3.1571 23.5096 3.55467 24.0001 3.55467H24.0027C24.4932 3.55467 24.8907 3.1571 24.8907 2.66667V0.888C24.8907 0.397571 24.4932 0 24.0027 0Z" fill="#FF9600"/>
    <path d="M24 23.1121H23.9974C23.5069 23.1121 23.1094 23.5096 23.1094 24.0001V25.7787C23.1094 26.2692 23.5069 26.6667 23.9974 26.6667H24C24.4905 26.6667 24.888 26.2692 24.888 25.7787V24.0001C24.888 23.5096 24.4905 23.1121 24 23.1121Z" fill="#FF9600"/>
    <path d="M36.4455 12.4453H34.6668C34.1764 12.4453 33.7788 12.8429 33.7788 13.3333V13.336C33.7788 13.8264 34.1764 14.224 34.6668 14.224H36.4455C36.9359 14.224 37.3335 13.8264 37.3335 13.336V13.3333C37.3335 12.8429 36.9359 12.4453 36.4455 12.4453Z" fill="#FF9600"/>
    <path d="M13.3334 12.4453H11.5547C11.0643 12.4453 10.6667 12.8429 10.6667 13.3333V13.336C10.6667 13.8264 11.0643 14.224 11.5547 14.224H13.3334C13.8238 14.224 14.2214 13.8264 14.2214 13.336V13.3333C14.2214 12.8429 13.8238 12.4453 13.3334 12.4453Z" fill="#FF9600"/>
    <path d="M14.5754 3.89999L14.5735 3.90187C14.2267 4.24866 14.2267 4.81091 14.5735 5.1577L15.8312 6.4154C16.178 6.76219 16.7402 6.76219 17.087 6.4154L17.0889 6.41352C17.4357 6.06673 17.4357 5.50448 17.0889 5.1577L15.8312 3.89999C15.4844 3.5532 14.9221 3.5532 14.5754 3.89999Z" fill="#FF9600"/>
    <path d="M30.9176 20.2496L30.9158 20.2515C30.569 20.5983 30.569 21.1605 30.9158 21.5073L32.1735 22.765C32.5202 23.1118 33.0825 23.1118 33.4293 22.765L33.4312 22.7631C33.778 22.4163 33.778 21.8541 33.4312 21.5073L32.1735 20.2496C31.8267 19.9028 31.2644 19.9028 30.9176 20.2496Z" fill="#FF9600"/>
    <path d="M32.172 3.90418L30.9143 5.16189C30.5675 5.50867 30.5675 6.07092 30.9143 6.41771L30.9162 6.41959C31.263 6.76638 31.8252 6.76638 32.172 6.41959L33.4297 5.16188C33.7765 4.8151 33.7765 4.25285 33.4297 3.90606L33.4278 3.90418C33.081 3.55739 32.5188 3.55739 32.172 3.90418Z" fill="#FF9600"/>
    <path d="M15.828 20.2474L14.5703 21.5051C14.2235 21.8519 14.2235 22.4142 14.5703 22.761L14.5722 22.7629C14.919 23.1096 15.4812 23.1096 15.828 22.7629L17.0857 21.5051C17.4325 21.1584 17.4325 20.5961 17.0857 20.2493L17.0838 20.2474C16.737 19.9007 16.1748 19.9007 15.828 20.2474Z" fill="#FF9600"/>
    </g>
    <defs>
    <clipPath id="clip0_442_946">
    <rect width="40" height="40" fill="white"/>
    </clipPath>
    </defs>
</svg>
    