<svg width="40" height="40" viewBox="0 0 40 40" fill="none" xmlns="http://www.w3.org/2000/svg">
    <g clip-path="url(#clip0_442_1016)">
    <path d="M32.432 6.48533C31.5307 6.48533 30.664 6.64533 29.8613 6.93867C28.6613 2.92533 24.944 0 20.5413 0C17.4587 0 14.712 1.43733 12.928 3.67467C12.2773 3.39733 11.5627 3.24267 10.8107 3.24267C7.82667 3.24267 5.40533 5.664 5.40533 8.648C5.40533 8.67467 5.40533 8.69867 5.40533 8.72533C2.35467 9.20267 0 11.8613 0 15.04C0 18.6747 2.94667 21.6213 6.58133 21.6213H32.432C36.6107 21.6213 40 18.232 40 14.0533C40 9.87467 36.6107 6.48533 32.432 6.48533Z" fill="#999999"/>
    <path d="M4 25.6667V29L6.66667 30.6667L9.33333 29V25.6667L6.66667 24L4 25.6667Z" fill="white"/>
    <path d="M10.6667 34.9999V38.3333L13.3334 39.9999L16.0001 38.3333V34.9999L13.3334 33.3333L10.6667 34.9999Z" fill="white"/>
    <path d="M17.3333 25.6667V29L19.9999 30.6667L22.6666 29V25.6667L19.9999 24L17.3333 25.6667Z" fill="white"/>
    <path d="M30.6667 25.6667V29L33.3334 30.6667L36.0001 29V25.6667L33.3334 24L30.6667 25.6667Z" fill="white"/>
    <path d="M24 34.9999V38.3333L26.6667 39.9999L29.3333 38.3333V34.9999L26.6667 33.3333L24 34.9999Z" fill="white"/>
    </g>
    <defs>
    <clipPath id="clip0_442_1016">
    <rect width="40" height="40" fill="white"/>
    </clipPath>
    </defs>
</svg>
    