<svg width="40" height="40" viewBox="0 0 40 40" fill="none" xmlns="http://www.w3.org/2000/svg">
    <g clip-path="url(#clip0_442_1157)">
    <path d="M16 16.5333C15.5547 16.5333 15.128 16.6133 14.7307 16.7573C14.1387 14.7786 12.304 13.3333 10.1333 13.3333C8.61333 13.3333 7.256 14.0426 6.37867 15.1466C6.05867 15.0106 5.704 14.9333 5.33333 14.9333C3.86133 14.9333 2.66667 16.1279 2.66667 17.5999C2.66667 17.6133 2.66667 17.6239 2.66667 17.6373C1.16 17.8719 0 19.1839 0 20.7519C0 22.5439 1.45333 23.9973 3.24533 23.9973H16C18.0613 23.9973 19.7333 22.3253 19.7333 20.2639C19.7333 18.2026 18.0613 16.5306 16 16.5306V16.5333Z" fill="white"/>
    <path d="M20.0001 33.3334C27.3639 33.3334 33.3334 27.3639 33.3334 20.0001C33.3334 12.6363 27.3639 6.66675 20.0001 6.66675C12.6363 6.66675 6.66675 12.6363 6.66675 20.0001C6.66675 27.3639 12.6363 33.3334 20.0001 33.3334Z" fill="#DCF0FF"/>
    <path d="M10.6667 16C10.6667 13.3413 11.4481 10.8666 12.7894 8.78931C9.10675 11.1626 6.66675 15.296 6.66675 20C6.66675 27.3626 12.6374 33.3333 20.0001 33.3333C24.7067 33.3333 28.8401 30.8933 31.2107 27.2106C29.1307 28.552 26.6561 29.3333 24.0001 29.3333C16.6374 29.3333 10.6667 23.3626 10.6667 16Z" fill="#C8E6FF"/>
    <path d="M36.2667 27.2C35.8214 27.2 35.3947 27.28 34.9974 27.424C34.4054 25.4453 32.5707 24 30.4 24C27.9094 24 25.864 25.896 25.624 28.3227C25.4294 28.2853 25.2267 28.2667 25.0214 28.2667C23.288 28.2667 21.8667 29.6853 21.8667 31.4213C21.8667 33.2133 23.32 34.6667 25.112 34.6667H36.2667C38.328 34.6667 40 32.9947 40 30.9333C40 28.872 38.328 27.2 36.2667 27.2Z" fill="white"/>
    </g>
    <defs>
    <clipPath id="clip0_442_1157">
    <rect width="40" height="40" fill="white"/>
    </clipPath>
    </defs>
</svg>
    