<svg width="40" height="40" viewBox="0 0 40 40" fill="none" xmlns="http://www.w3.org/2000/svg">
    <g clip-path="url(#clip0_442_1009)">
    <path d="M2.67993 10V30L19.9999 40L37.3199 30V10L19.9999 0L2.67993 10Z" fill="#DCF0FF"/>
    <path d="M37.32 10L20 0V20L37.32 30V10Z" fill="#C8E6FF"/>
    <path d="M2.67993 30L19.9999 40L37.3199 30L19.9999 20L2.67993 30Z" fill="#B4D2FF"/>
    <path d="M30.7867 21.3947L26.2854 22.6001L21.7787 19.9974L26.2854 17.3947L30.7867 18.6001C30.864 18.6214 30.9414 18.6294 31.016 18.6294C31.408 18.6294 31.768 18.3681 31.8747 17.9707C32.0027 17.4961 31.72 17.0081 31.2454 16.8827L28.4614 16.1361L31.2214 14.5414C31.6454 14.2961 31.792 13.7521 31.5467 13.3281C31.3014 12.9041 30.7574 12.7574 30.3334 13.0027L27.5734 14.5974L28.32 11.8134C28.448 11.3387 28.1654 10.8507 27.6907 10.7254C27.216 10.5974 26.728 10.8801 26.6027 11.3547L25.3974 15.8561L20.8907 18.4587V13.2561L24.1867 9.96008C24.5334 9.61341 24.5334 9.05075 24.1867 8.70408C23.84 8.35741 23.2774 8.35741 22.9307 8.70408L20.8934 10.7414V7.55475C20.8934 7.06408 20.496 6.66675 20.0054 6.66675C19.5147 6.66675 19.1174 7.06408 19.1174 7.55475V10.7414L17.08 8.70408C16.7334 8.35741 16.1707 8.35741 15.824 8.70408C15.4774 9.05075 15.4774 9.61341 15.824 9.96008L19.12 13.2561V18.4587L14.6134 15.8561L13.408 11.3547C13.28 10.8801 12.792 10.6001 12.32 10.7254C11.8454 10.8534 11.5654 11.3387 11.6907 11.8134L12.4374 14.5974L9.67736 13.0027C9.2507 12.7574 8.70936 12.9041 8.46403 13.3281C8.2187 13.7521 8.36536 14.2961 8.78936 14.5414L11.5494 16.1361L8.76536 16.8827C8.2907 17.0107 8.0107 17.4961 8.13603 17.9707C8.2427 18.3681 8.6027 18.6294 8.9947 18.6294C9.07203 18.6294 9.14936 18.6187 9.22403 18.6001L13.7254 17.3947L18.232 19.9974L13.7254 22.6001L9.22403 21.3947C8.74936 21.2667 8.26136 21.5494 8.13603 22.0241C8.00803 22.4987 8.2907 22.9867 8.76536 23.1121L11.5494 23.8587L8.78936 25.4534C8.36536 25.6987 8.2187 26.2427 8.46403 26.6667C8.62936 26.9521 8.92803 27.1121 9.2347 27.1121C9.3867 27.1121 9.5387 27.0747 9.67736 26.9921L12.4374 25.3974L11.6907 28.1814C11.5627 28.6561 11.8454 29.1441 12.32 29.2694C12.3974 29.2908 12.4747 29.2987 12.5494 29.2987C12.9414 29.2987 13.3014 29.0374 13.408 28.6401L14.6134 24.1387L19.12 21.5361V26.7387L15.824 30.0347C15.4774 30.3814 15.4774 30.9441 15.824 31.2907C16.1707 31.6374 16.7334 31.6374 17.08 31.2907L19.1174 29.2534V32.4401C19.1174 32.9307 19.5147 33.3281 20.0054 33.3281C20.496 33.3281 20.8934 32.9307 20.8934 32.4401V29.2534L22.9307 31.2907C23.104 31.4641 23.3307 31.5521 23.56 31.5521C23.7894 31.5521 24.016 31.4641 24.1894 31.2907C24.536 30.9441 24.536 30.3814 24.1894 30.0347L20.8934 26.7387V21.5361L25.4 24.1387L26.6054 28.6401C26.712 29.0374 27.072 29.2987 27.464 29.2987C27.5414 29.2987 27.6187 29.2881 27.6934 29.2694C28.168 29.1414 28.448 28.6561 28.3227 28.1814L27.576 25.3974L30.336 26.9921C30.4747 27.0721 30.6294 27.1121 30.7787 27.1121C31.0854 27.1121 31.384 26.9521 31.5494 26.6667C31.7947 26.2427 31.648 25.6987 31.224 25.4534L28.464 23.8587L31.248 23.1121C31.7227 22.9841 32.0027 22.4987 31.8774 22.0241C31.7494 21.5494 31.264 21.2694 30.7894 21.3947H30.7867Z" fill="white"/>
    </g>
    <defs>
    <clipPath id="clip0_442_1009">
    <rect width="40" height="40" fill="white"/>
    </clipPath>
    </defs>
</svg>
    