<svg width="40" height="38" viewBox="0 0 40 38" fill="none" xmlns="http://www.w3.org/2000/svg">
    <path d="M12.4324 15.2161C12.4324 14.619 11.9484 14.135 11.3513 14.135C10.7543 14.135 10.2703 14.619 10.2703 15.2161V28.1891C10.2703 28.7861 10.7543 29.2701 11.3513 29.2701C11.9484 29.2701 12.4324 28.7861 12.4324 28.1891V15.2161Z" fill="#8CBEFF"/>
    <path d="M12.4324 32.5135C12.4324 31.9164 11.9484 31.4324 11.3513 31.4324C10.7543 31.4324 10.2703 31.9164 10.2703 32.5135V34.6756C10.2703 35.2727 10.7543 35.7567 11.3513 35.7567C11.9484 35.7567 12.4324 35.2727 12.4324 34.6756V32.5135Z" fill="#8CBEFF"/>
    <path d="M12.4324 15.2161C12.4324 14.619 11.9484 14.135 11.3513 14.135C10.7543 14.135 10.2703 14.619 10.2703 15.2161V28.1891C10.2703 28.7861 10.7543 29.2701 11.3513 29.2701C11.9484 29.2701 12.4324 28.7861 12.4324 28.1891V15.2161Z" fill="#8CBEFF"/>
    <path d="M12.4324 32.5135C12.4324 31.9164 11.9484 31.4324 11.3513 31.4324C10.7543 31.4324 10.2703 31.9164 10.2703 32.5135V34.6756C10.2703 35.2727 10.7543 35.7567 11.3513 35.7567C11.9484 35.7567 12.4324 35.2727 12.4324 34.6756V32.5135Z" fill="#8CBEFF"/>
    <path d="M16.7566 17.3782C16.7566 16.7811 16.2726 16.2971 15.6756 16.2971C15.0785 16.2971 14.5945 16.7811 14.5945 17.3782V30.3512C14.5945 30.9482 15.0785 31.4323 15.6756 31.4323C16.2726 31.4323 16.7566 30.9482 16.7566 30.3512V17.3782Z" fill="#8CBEFF"/>
    <path d="M16.7566 34.6756C16.7566 34.0785 16.2726 33.5945 15.6756 33.5945C15.0785 33.5945 14.5945 34.0785 14.5945 34.6756V36.8377C14.5945 37.4348 15.0785 37.9188 15.6756 37.9188C16.2726 37.9188 16.7566 37.4348 16.7566 36.8377V34.6756Z" fill="#8CBEFF"/>
    <path d="M16.7566 17.3782C16.7566 16.7811 16.2726 16.2971 15.6756 16.2971C15.0785 16.2971 14.5945 16.7811 14.5945 17.3782V30.3512C14.5945 30.9482 15.0785 31.4323 15.6756 31.4323C16.2726 31.4323 16.7566 30.9482 16.7566 30.3512V17.3782Z" fill="#8CBEFF"/>
    <path d="M16.7566 34.6756C16.7566 34.0785 16.2726 33.5945 15.6756 33.5945C15.0785 33.5945 14.5945 34.0785 14.5945 34.6756V36.8377C14.5945 37.4348 15.0785 37.9188 15.6756 37.9188C16.2726 37.9188 16.7566 37.4348 16.7566 36.8377V34.6756Z" fill="#8CBEFF"/>
    <path d="M21.0811 15.2161C21.0811 14.619 20.5971 14.135 20 14.135C19.403 14.135 18.9189 14.619 18.9189 15.2161V28.1891C18.9189 28.7861 19.403 29.2701 20 29.2701C20.5971 29.2701 21.0811 28.7861 21.0811 28.1891V15.2161Z" fill="#8CBEFF"/>
    <path d="M21.0811 32.5135C21.0811 31.9164 20.5971 31.4324 20 31.4324C19.403 31.4324 18.9189 31.9164 18.9189 32.5135V34.6756C18.9189 35.2727 19.403 35.7567 20 35.7567C20.5971 35.7567 21.0811 35.2727 21.0811 34.6756V32.5135Z" fill="#8CBEFF"/>
    <path d="M21.0811 15.2161C21.0811 14.619 20.5971 14.135 20 14.135C19.403 14.135 18.9189 14.619 18.9189 15.2161V28.1891C18.9189 28.7861 19.403 29.2701 20 29.2701C20.5971 29.2701 21.0811 28.7861 21.0811 28.1891V15.2161Z" fill="#8CBEFF"/>
    <path d="M21.0811 32.5135C21.0811 31.9164 20.5971 31.4324 20 31.4324C19.403 31.4324 18.9189 31.9164 18.9189 32.5135V34.6756C18.9189 35.2727 19.403 35.7567 20 35.7567C20.5971 35.7567 21.0811 35.2727 21.0811 34.6756V32.5135Z" fill="#8CBEFF"/>
    <path d="M25.4053 17.3782C25.4053 16.7811 24.9213 16.2971 24.3242 16.2971C23.7272 16.2971 23.2432 16.7811 23.2432 17.3782V30.3512C23.2432 30.9482 23.7272 31.4323 24.3242 31.4323C24.9213 31.4323 25.4053 30.9482 25.4053 30.3512V17.3782Z" fill="#8CBEFF"/>
    <path d="M25.4053 34.6756C25.4053 34.0785 24.9213 33.5945 24.3242 33.5945C23.7272 33.5945 23.2432 34.0785 23.2432 34.6756V36.8377C23.2432 37.4348 23.7272 37.9188 24.3242 37.9188C24.9213 37.9188 25.4053 37.4348 25.4053 36.8377V34.6756Z" fill="#8CBEFF"/>
    <path d="M25.4053 17.3782C25.4053 16.7811 24.9213 16.2971 24.3242 16.2971C23.7272 16.2971 23.2432 16.7811 23.2432 17.3782V30.3512C23.2432 30.9482 23.7272 31.4323 24.3242 31.4323C24.9213 31.4323 25.4053 30.9482 25.4053 30.3512V17.3782Z" fill="#8CBEFF"/>
    <path d="M25.4053 34.6756C25.4053 34.0785 24.9213 33.5945 24.3242 33.5945C23.7272 33.5945 23.2432 34.0785 23.2432 34.6756V36.8377C23.2432 37.4348 23.7272 37.9188 24.3242 37.9188C24.9213 37.9188 25.4053 37.4348 25.4053 36.8377V34.6756Z" fill="#8CBEFF"/>
    <path d="M29.7298 15.2161C29.7298 14.619 29.2458 14.135 28.6487 14.135C28.0516 14.135 27.5676 14.619 27.5676 15.2161V28.1891C27.5676 28.7861 28.0516 29.2701 28.6487 29.2701C29.2458 29.2701 29.7298 28.7861 29.7298 28.1891V15.2161Z" fill="#8CBEFF"/>
    <path d="M29.7298 32.5135C29.7298 31.9164 29.2458 31.4324 28.6487 31.4324C28.0516 31.4324 27.5676 31.9164 27.5676 32.5135V34.6756C27.5676 35.2727 28.0516 35.7567 28.6487 35.7567C29.2458 35.7567 29.7298 35.2727 29.7298 34.6756V32.5135Z" fill="#8CBEFF"/>
    <path d="M29.7298 15.2161C29.7298 14.619 29.2458 14.135 28.6487 14.135C28.0516 14.135 27.5676 14.619 27.5676 15.2161V28.1891C27.5676 28.7861 28.0516 29.2701 28.6487 29.2701C29.2458 29.2701 29.7298 28.7861 29.7298 28.1891V15.2161Z" fill="#8CBEFF"/>
    <path d="M29.7298 32.5135C29.7298 31.9164 29.2458 31.4324 28.6487 31.4324C28.0516 31.4324 27.5676 31.9164 27.5676 32.5135V34.6756C27.5676 35.2727 28.0516 35.7567 28.6487 35.7567C29.2458 35.7567 29.7298 35.2727 29.7298 34.6756V32.5135Z" fill="#8CBEFF"/>
    <path d="M32.4324 6.56754C31.5308 6.56754 30.6659 6.72754 29.8616 7.01943C28.6616 3.00646 24.9427 0.0810547 20.5405 0.0810547C17.4573 0.0810547 14.7114 1.51673 12.9276 3.75457C12.2768 3.47781 11.5611 3.3243 10.8108 3.3243C7.82486 3.3243 5.40541 5.74376 5.40541 8.7297C5.40541 8.75565 5.40541 8.7816 5.40541 8.80538C2.35459 9.28322 0 11.9405 0 15.1232C0 18.7578 2.94703 21.7027 6.57946 21.7027H32.4324C36.6119 21.7027 40 18.3146 40 14.1351C40 9.95565 36.6119 6.56754 32.4324 6.56754Z" fill="white"/>
</svg>
    