<svg width="40" height="40" viewBox="0 0 40 40" fill="none" xmlns="http://www.w3.org/2000/svg">
    <g clip-path="url(#clip0_442_1077)">
    <path d="M16.8987 30.3066L38.5147 8.6906C40.496 6.70927 40.496 3.4666 38.5147 1.48527C36.5333 -0.496066 33.2907 -0.496066 31.3093 1.48527L9.69333 23.1013C7.13867 22.7386 4.45333 23.5386 2.488 25.5039C-0.829333 28.8213 -0.829333 34.1973 2.488 37.5119C5.80533 40.8293 11.1813 40.8293 14.496 37.5119C16.4613 35.5466 17.2613 32.8613 16.8987 30.3066Z" fill="white"/>
    <path d="M33.7091 3.88783L4.88742 32.7095C4.22405 33.3729 4.22405 34.4484 4.88742 35.1118C5.55079 35.7752 6.62632 35.7752 7.28969 35.1118L36.1114 6.29011C36.7747 5.62674 36.7747 4.5512 36.1114 3.88783C35.448 3.22446 34.3725 3.22446 33.7091 3.88783Z" fill="#DDDDDD"/>
    <path d="M14.6224 25.6319L14.3697 25.3792C13.7761 24.7856 12.8137 24.7856 12.2201 25.3792L4.7625 32.8369C4.1689 33.4305 4.1689 34.3929 4.7625 34.9865L5.01517 35.2391C5.60877 35.8327 6.57118 35.8327 7.16478 35.2391L14.6224 27.7815C15.216 27.1879 15.216 26.2255 14.6224 25.6319Z" fill="#8CBEFF"/>
    <path d="M8.49078 36.6053C11.3052 36.6053 13.5868 34.3238 13.5868 31.5093C13.5868 28.6949 11.3052 26.4133 8.49078 26.4133C5.67633 26.4133 3.39478 28.6949 3.39478 31.5093C3.39478 34.3238 5.67633 36.6053 8.49078 36.6053Z" fill="#8CBEFF"/>
    <path d="M19.2986 27.9066L16.8959 25.5039C16.2346 24.8426 16.2346 23.7626 16.8959 23.1012C17.5572 22.4399 18.6372 22.4399 19.2986 23.1012L21.7012 25.5039L19.2986 27.9066Z" fill="#C8C8C8"/>
    <path d="M24.104 23.1014L21.7013 20.6987C21.04 20.0374 21.04 18.9574 21.7013 18.296C22.3627 17.6347 23.4427 17.6347 24.104 18.296L26.5067 20.6987L24.104 23.1014Z" fill="#C8C8C8"/>
    <path d="M28.9067 18.2986L26.5041 15.896C25.8427 15.2346 25.8427 14.1546 26.5041 13.4933C27.1654 12.832 28.2454 12.832 28.9067 13.4933L31.3094 15.896L28.9067 18.2986Z" fill="#C8C8C8"/>
    <path d="M33.7092 13.4959L31.3065 11.0932C30.6452 10.4319 30.6452 9.35191 31.3065 8.69058C31.9679 8.02925 33.0479 8.02925 33.7092 8.69058L36.1119 11.0932L33.7092 13.4959Z" fill="#C8C8C8"/>
    </g>
    <defs>
    <clipPath id="clip0_442_1077">
    <rect width="40" height="40" fill="white"/>
    </clipPath>
    </defs>
</svg>
    