<svg width="35" height="35" viewBox="0 0 35 35" fill="none" xmlns="http://www.w3.org/2000/svg">
    <path d="M5.91747 25.1626C5.8108 25.1626 5.70413 25.144 5.59747 25.1066C5.11213 24.9306 4.86147 24.392 5.03747 23.9066L9.1308 12.664C9.3068 12.1786 9.84547 11.9253 10.3308 12.104C10.8161 12.28 11.0668 12.8186 10.8908 13.304L6.79747 24.5466C6.6588 24.928 6.2988 25.1626 5.91747 25.1626Z" fill="#8CBEFF"/>
    <path d="M3.87206 30.784C3.76539 30.784 3.65872 30.7654 3.55205 30.728C3.06672 30.552 2.81606 30.0134 2.99206 29.528L3.67472 27.6534C3.85072 27.168 4.38939 26.9174 4.87472 27.0934C5.36006 27.2694 5.61072 27.808 5.43472 28.2934L4.75206 30.168C4.61339 30.5494 4.25339 30.784 3.87206 30.784Z" fill="#8CBEFF"/>
    <path d="M9.66673 28.9092C9.56007 28.9092 9.4534 28.8905 9.34673 28.8532C8.8614 28.6772 8.61073 28.1385 8.78673 27.6532L12.8801 16.4105C13.0561 15.9252 13.5947 15.6719 14.0801 15.8505C14.5654 16.0265 14.8161 16.5652 14.6401 17.0505L10.5467 28.2932C10.4081 28.6745 10.0481 28.9092 9.66673 28.9092Z" fill="#8CBEFF"/>
    <path d="M7.61864 34.5306C7.51197 34.5306 7.4053 34.512 7.29864 34.4746C6.8133 34.2986 6.56264 33.76 6.73864 33.2746L7.4213 31.4C7.5973 30.9146 8.13597 30.664 8.6213 30.84C9.10664 31.016 9.3573 31.5546 9.1813 32.04L8.49864 33.9146C8.35997 34.296 7.99997 34.5306 7.61864 34.5306Z" fill="#8CBEFF"/>
    <path d="M15.2881 25.1626C15.1814 25.1626 15.0747 25.144 14.9681 25.1066C14.4827 24.9306 14.2321 24.392 14.4081 23.9066L18.5014 12.664C18.6774 12.1786 19.2161 11.9253 19.7014 12.104C20.1867 12.28 20.4374 12.8186 20.2614 13.304L16.1681 24.5466C16.0294 24.928 15.6694 25.1626 15.2881 25.1626Z" fill="#8CBEFF"/>
    <path d="M13.24 30.784C13.1333 30.784 13.0266 30.7654 12.92 30.728C12.4346 30.552 12.184 30.0134 12.36 29.528L13.0426 27.6534C13.2186 27.168 13.7573 26.9174 14.2426 27.0934C14.728 27.2694 14.9786 27.808 14.8026 28.2934L14.12 30.168C13.9813 30.5494 13.6213 30.784 13.24 30.784Z" fill="#8CBEFF"/>
    <path d="M19.0349 28.9092C18.9282 28.9092 18.8216 28.8905 18.7149 28.8532C18.2296 28.6772 17.9789 28.1385 18.1549 27.6532L22.2482 16.4105C22.4242 15.9252 22.9629 15.6719 23.4482 15.8505C23.9336 16.0265 24.1842 16.5652 24.0082 17.0505L19.9149 28.2932C19.7762 28.6745 19.4162 28.9092 19.0349 28.9092Z" fill="#8CBEFF"/>
    <path d="M16.9895 34.5306C16.8828 34.5306 16.7762 34.512 16.6695 34.4746C16.1842 34.2986 15.9335 33.76 16.1095 33.2746L16.7922 31.4C16.9682 30.9146 17.5068 30.664 17.9922 30.84C18.4775 31.016 18.7282 31.5546 18.5522 32.04L17.8695 33.9146C17.7308 34.296 17.3708 34.5306 16.9895 34.5306Z" fill="#8CBEFF"/>
    <path d="M24.6562 25.1626C24.5496 25.1626 24.4429 25.144 24.3362 25.1066C23.8509 24.9306 23.6002 24.392 23.7762 23.9066L27.8696 12.664C28.0456 12.1786 28.5842 11.9253 29.0696 12.104C29.5549 12.28 29.8056 12.8186 29.6296 13.304L25.5362 24.5466C25.3976 24.928 25.0376 25.1626 24.6562 25.1626Z" fill="#8CBEFF"/>
    <path d="M22.6108 30.784C22.5042 30.784 22.3975 30.7654 22.2908 30.728C21.8055 30.552 21.5548 30.0134 21.7308 29.528L22.4135 27.6534C22.5895 27.168 23.1282 26.9174 23.6135 27.0934C24.0988 27.2694 24.3495 27.808 24.1735 28.2934L23.4908 30.168C23.3522 30.5494 22.9922 30.784 22.6108 30.784Z" fill="#8CBEFF"/>
    <path d="M28.1093 6.42407C27.328 6.42407 26.5787 6.56274 25.8827 6.81607C24.8427 3.33873 21.6213 0.802734 17.8053 0.802734C15.1333 0.802734 12.752 2.04807 11.208 3.98673C10.6453 3.74673 10.024 3.6134 9.37333 3.6134C6.78667 3.6134 4.688 5.71207 4.688 8.29873C4.688 8.32007 4.688 8.34407 4.688 8.3654C2.04 8.77873 0 11.0801 0 13.8374C0 16.9867 2.55467 19.5414 5.704 19.5414H28.1093C31.7307 19.5414 34.6667 16.6054 34.6667 12.9841C34.6667 9.36273 31.7307 6.42673 28.1093 6.42673V6.42407Z" fill="#999999"/>
    <path d="M13.1173 6.42407L5.62134 16.7307H10.3067L7.496 25.1627L14.992 14.8561H10.3067L13.1173 6.42407Z" fill="#FFE600"/>
    <path d="M23.7974 12.0454L17.8027 20.2907H21.5494L19.3014 27.0374L25.2961 18.7921H21.5494L23.7974 12.0454Z" fill="#FFE600"/>
</svg>
    