<svg width="40" height="40" viewBox="0 0 40 40" fill="none" xmlns="http://www.w3.org/2000/svg">
    <g clip-path="url(#clip0_424_777)">
    <path d="M38.888 21.1122H7.776C3.488 21.1122 0 17.6202 0 13.3322C0 9.04415 3.488 5.55615 7.776 5.55615C12.064 5.55615 15.552 9.04415 15.552 13.3322C15.552 13.9442 15.056 14.4442 14.44 14.4442C13.824 14.4442 13.328 13.9482 13.328 13.3322C13.328 10.2682 10.836 7.77615 7.772 7.77615C4.708 7.77615 2.216 10.2682 2.216 13.3322C2.216 16.3962 4.708 18.8882 7.772 18.8882H38.884C39.496 18.8882 39.996 19.3842 39.996 20.0002C39.996 20.6162 39.5 21.1122 38.884 21.1122H38.888Z" fill="#EEEEEE"/>
    <path d="M34.4439 14.4441H24.4439C20.7679 14.4441 17.7759 11.4521 17.7759 7.77606C17.7759 4.10006 20.7679 1.11206 24.4439 1.11206C28.1199 1.11206 31.1119 4.10406 31.1119 7.78006C31.1119 8.39206 30.6159 8.89206 29.9999 8.89206C29.3839 8.89206 28.8879 8.39606 28.8879 7.78006C28.8879 5.32806 26.8959 3.33606 24.4439 3.33606C21.9919 3.33606 19.9999 5.32806 19.9999 7.78006C19.9999 10.2321 21.9919 12.2241 24.4439 12.2241H34.4439C35.0559 12.2241 35.5559 12.7201 35.5559 13.3361C35.5559 13.9521 35.0599 14.4481 34.4439 14.4481V14.4441Z" fill="#EEEEEE"/>
    <path d="M15.5559 38.888C11.8799 38.888 8.88794 35.896 8.88794 32.22C8.88794 28.544 11.8799 25.552 15.5559 25.552H37.7799C38.3919 25.552 38.8919 26.048 38.8919 26.664C38.8919 27.28 38.3959 27.776 37.7799 27.776H15.5559C13.1039 27.776 11.1119 29.768 11.1119 32.22C11.1119 34.672 13.1039 36.664 15.5559 36.664C18.0079 36.664 19.9999 34.672 19.9999 32.22C19.9999 31.608 20.4959 31.108 21.1119 31.108C21.7279 31.108 22.2239 31.604 22.2239 32.22C22.2239 35.896 19.2319 38.888 15.5559 38.888Z" fill="#EEEEEE"/>
    </g>
    <defs>
    <clipPath id="clip0_424_777">
    <rect width="40" height="40" fill="white"/>
    </clipPath>
    </defs>
</svg>
    