<svg width="40" height="38" viewBox="0 0 40 38" fill="none" xmlns="http://www.w3.org/2000/svg">
    <path d="M32.432 6.48533C31.5307 6.48533 30.664 6.64533 29.8613 6.93867C28.6613 2.92533 24.944 0 20.5413 0C17.4587 0 14.712 1.43733 12.928 3.67467C12.2773 3.39733 11.5627 3.24267 10.8107 3.24267C7.82667 3.24267 5.40533 5.664 5.40533 8.648C5.40533 8.67467 5.40533 8.69867 5.40533 8.72533C2.35467 9.20267 0 11.8613 0 15.04C0 18.6747 2.94667 21.6213 6.58133 21.6213H32.432C36.6107 21.6213 40 18.232 40 14.0533C40 9.87467 36.6107 6.48533 32.432 6.48533Z" fill="#CCCCCC"/>
    <path d="M9.33341 29.3333C10.8062 29.3333 12.0001 28.1394 12.0001 26.6667C12.0001 25.1939 10.8062 24 9.33341 24C7.86066 24 6.66675 25.1939 6.66675 26.6667C6.66675 28.1394 7.86066 29.3333 9.33341 29.3333Z" fill="white"/>
    <path d="M19.9999 29.3333C21.4727 29.3333 22.6666 28.1394 22.6666 26.6667C22.6666 25.1939 21.4727 24 19.9999 24C18.5272 24 17.3333 25.1939 17.3333 26.6667C17.3333 28.1394 18.5272 29.3333 19.9999 29.3333Z" fill="white"/>
    <path d="M30.6667 29.3333C32.1394 29.3333 33.3333 28.1394 33.3333 26.6667C33.3333 25.1939 32.1394 24 30.6667 24C29.1939 24 28 25.1939 28 26.6667C28 28.1394 29.1939 29.3333 30.6667 29.3333Z" fill="white"/>
    <path d="M14.6667 37.3333C16.1394 37.3333 17.3333 36.1394 17.3333 34.6667C17.3333 33.1939 16.1394 32 14.6667 32C13.1939 32 12 33.1939 12 34.6667C12 36.1394 13.1939 37.3333 14.6667 37.3333Z" fill="white"/>
    <path d="M3.99992 37.3333C5.47268 37.3333 6.66659 36.1394 6.66659 34.6667C6.66659 33.1939 5.47268 32 3.99992 32C2.52716 32 1.33325 33.1939 1.33325 34.6667C1.33325 36.1394 2.52716 37.3333 3.99992 37.3333Z" fill="white"/>
    <path d="M25.3334 37.3333C26.8062 37.3333 28.0001 36.1394 28.0001 34.6667C28.0001 33.1939 26.8062 32 25.3334 32C23.8607 32 22.6667 33.1939 22.6667 34.6667C22.6667 36.1394 23.8607 37.3333 25.3334 37.3333Z" fill="white"/>
    <path d="M35.9999 37.3333C37.4727 37.3333 38.6666 36.1394 38.6666 34.6667C38.6666 33.1939 37.4727 32 35.9999 32C34.5272 32 33.3333 33.1939 33.3333 34.6667C33.3333 36.1394 34.5272 37.3333 35.9999 37.3333Z" fill="white"/>
</svg>
    