<svg width="20" height="20" viewBox="0 0 20 20" fill="none" xmlns="http://www.w3.org/2000/svg">
    <path fill-rule="evenodd" clip-rule="evenodd" d="M10 20C15.5228 20 20 15.5228 20 10C20 4.47715 15.5228 0 10 0C4.47715 0 0 4.47715 0 10C0 15.5228 4.47715 20 10 20ZM8.48674 16.8425C8.61885 16.9475 8.76898 17 8.93712 17H11.0629C11.231 17 11.3811 16.9475 11.5133 16.8425C11.6454 16.7375 11.7234 16.6033 11.7475 16.44L12.0177 14.795C12.2579 14.725 12.5011 14.6171 12.7473 14.4712C12.9935 14.3254 13.2127 14.1767 13.4048 14.025L14.9541 14.725C15.1223 14.795 15.2904 14.8038 15.4585 14.7513C15.6267 14.6988 15.7588 14.5967 15.8549 14.445L16.8997 12.625C16.9958 12.4733 17.0228 12.3129 16.9808 12.1438C16.9388 11.9746 16.8457 11.8433 16.7016 11.75L15.2604 10.735C15.2844 10.6183 15.2994 10.4958 15.3054 10.3675C15.3114 10.2392 15.3144 10.1167 15.3144 10C15.3144 9.88333 15.3114 9.75792 15.3054 9.62375C15.2994 9.48958 15.2844 9.36417 15.2604 9.2475L16.7016 8.25C16.8457 8.15667 16.9388 8.02542 16.9808 7.85625C17.0228 7.68708 16.9958 7.52667 16.8997 7.375L15.8369 5.555C15.7408 5.40333 15.6117 5.30125 15.4495 5.24875C15.2874 5.19625 15.1223 5.205 14.9541 5.275L13.4048 5.975C13.2247 5.81167 13.0055 5.66292 12.7473 5.52875C12.4891 5.39458 12.2459 5.28667 12.0177 5.205L11.7475 3.56C11.7234 3.39667 11.6454 3.2625 11.5133 3.1575C11.3811 3.0525 11.231 3 11.0629 3H8.93712C8.76898 3 8.61885 3.0525 8.48674 3.1575C8.35463 3.2625 8.27657 3.39667 8.25255 3.56L7.98232 5.2225C7.75413 5.2925 7.51393 5.3975 7.26172 5.5375C7.00951 5.6775 6.78733 5.82333 6.59517 5.975L5.04588 5.275C4.87774 5.205 4.7096 5.19625 4.54146 5.24875C4.37332 5.30125 4.24121 5.40333 4.14513 5.555L3.10026 7.375C3.00418 7.52667 2.97715 7.68417 3.01919 7.8475C3.06122 8.01083 3.1543 8.145 3.29842 8.25L4.73962 9.2825C4.7156 9.3875 4.70059 9.50708 4.69458 9.64125C4.68858 9.77542 4.68558 9.895 4.68558 10C4.68558 10.105 4.68858 10.2246 4.69458 10.3588C4.70059 10.4929 4.7156 10.6125 4.73962 10.7175L3.29842 11.75C3.1543 11.855 3.06122 11.9892 3.01919 12.1525C2.97715 12.3158 3.00418 12.4733 3.10026 12.625L4.14513 14.445C4.24121 14.5967 4.37332 14.6988 4.54146 14.7513C4.7096 14.8038 4.87774 14.795 5.04588 14.725L6.59517 14.025C6.78733 14.1767 7.00951 14.3225 7.26172 14.4625C7.51393 14.6025 7.75413 14.7133 7.98232 14.795L8.25255 16.44C8.27657 16.6033 8.35463 16.7375 8.48674 16.8425ZM11.6574 11.61C11.201 12.0533 10.6485 12.275 10 12.275C9.35146 12.275 8.799 12.0533 8.34262 11.61C7.88624 11.1667 7.65805 10.63 7.65805 10C7.65805 9.37 7.88624 8.83333 8.34262 8.39C8.799 7.94667 9.35146 7.725 10 7.725C10.6485 7.725 11.201 7.94667 11.6574 8.39C12.1138 8.83333 12.3419 9.37 12.3419 10C12.3419 10.63 12.1138 11.1667 11.6574 11.61Z" fill="#CCCCCC"/>
</svg>
    