<svg width="30" height="30" viewBox="0 0 30 30" fill="none" xmlns="http://www.w3.org/2000/svg">
    <path d="M8.15625 26.25C7.64062 26.25 7.19927 26.0664 6.83219 25.6991C6.4649 25.332 6.28125 24.8906 6.28125 24.375V6.5625H5.9375C5.67188 6.5625 5.44927 6.47208 5.26969 6.29125C5.0899 6.11063 5 5.88667 5 5.61938C5 5.35229 5.0899 5.13021 5.26969 4.95312C5.44927 4.77604 5.67188 4.6875 5.9375 4.6875H10.875C10.875 4.41667 10.9649 4.19271 11.1447 4.01562C11.3243 3.83854 11.5469 3.75 11.8125 3.75H18.1875C18.4531 3.75 18.6758 3.83979 18.8556 4.01937C19.0352 4.19917 19.125 4.42188 19.125 4.6875H24.0625C24.3281 4.6875 24.5508 4.77792 24.7306 4.95875C24.9102 5.13937 25 5.36333 25 5.63062C25 5.89771 24.9102 6.11979 24.7306 6.29688C24.5508 6.47396 24.3281 6.5625 24.0625 6.5625H23.7188V24.375C23.7188 24.8906 23.5352 25.332 23.1681 25.6991C22.8008 26.0664 22.3594 26.25 21.8438 26.25H8.15625ZM21.8438 6.5625H8.15625V24.375H21.8438V6.5625ZM12.4119 21.6875C12.679 21.6875 12.901 21.5976 13.0781 21.4178C13.2552 21.2382 13.3438 21.0156 13.3438 20.75V10.1562C13.3438 9.89062 13.2533 9.66792 13.0725 9.48812C12.8919 9.30854 12.6679 9.21875 12.4006 9.21875C12.1335 9.21875 11.9115 9.30854 11.7344 9.48812C11.5573 9.66792 11.4688 9.89062 11.4688 10.1562V20.75C11.4688 21.0156 11.5592 21.2382 11.74 21.4178C11.9206 21.5976 12.1446 21.6875 12.4119 21.6875ZM17.5994 21.6875C17.8665 21.6875 18.0885 21.5976 18.2656 21.4178C18.4427 21.2382 18.5312 21.0156 18.5312 20.75V10.1562C18.5312 9.89062 18.4408 9.66792 18.26 9.48812C18.0794 9.30854 17.8554 9.21875 17.5881 9.21875C17.321 9.21875 17.099 9.30854 16.9219 9.48812C16.7448 9.66792 16.6562 9.89062 16.6562 10.1562V20.75C16.6562 21.0156 16.7467 21.2382 16.9275 21.4178C17.1081 21.5976 17.3321 21.6875 17.5994 21.6875Z" fill="black"/>
</svg>
