<svg width="30" height="30" viewBox="0 0 30 30" fill="none" xmlns="http://www.w3.org/2000/svg">
    <path d="M18.5 26.0313L10.9062 23.3438L5.03125 25.6875C4.86458 25.75 4.70833 25.7656 4.5625 25.7344C4.41667 25.7031 4.28125 25.6458 4.15625 25.5625C4.03125 25.4792 3.93229 25.375 3.85938 25.25C3.78646 25.125 3.75 24.9792 3.75 24.8125V7.15625C3.75 6.88542 3.82812 6.64583 3.98438 6.4375C4.14062 6.22917 4.34375 6.07292 4.59375 5.96875L10.2812 3.96875C10.3854 3.92708 10.4896 3.90104 10.5938 3.89063C10.6979 3.88021 10.8021 3.875 10.9062 3.875C11.0104 3.875 11.1146 3.88021 11.2188 3.89063C11.3229 3.90104 11.4271 3.92708 11.5312 3.96875L19.125 6.625L24.9688 4.28125C25.1354 4.21875 25.2917 4.19792 25.4375 4.21875C25.5833 4.23958 25.7188 4.29167 25.8438 4.375C25.9688 4.45833 26.0677 4.56771 26.1406 4.70313C26.2135 4.83854 26.25 4.98958 26.25 5.15625V23.0313C26.25 23.2604 26.1719 23.4583 26.0156 23.625C25.8594 23.7917 25.6667 23.9167 25.4375 24L19.75 26.0313C19.6458 26.0729 19.5417 26.099 19.4375 26.1094C19.3333 26.1198 19.2292 26.125 19.125 26.125C19.0208 26.125 18.9167 26.1198 18.8125 26.1094C18.7083 26.099 18.6042 26.0729 18.5 26.0313ZM18.0625 23.9063V8.125L11.9375 6.0625V21.8438L18.0625 23.9063ZM19.9375 23.9063L24.375 22.4375V6.4375L19.9375 8.125V23.9063ZM5.625 23.5313L10.0625 21.8438V6.0625L5.625 7.53125V23.5313Z" fill="#999999"/>
</svg>
    