<svg width="20" height="20" viewBox="0 0 20 20" fill="none" xmlns="http://www.w3.org/2000/svg">
    <path d="M20 18.8601L14.2799 13.1405C16.8706 9.97933 16.6906 5.30765 13.7386 2.35584C12.1679 0.785281 10.1078 0 8.0478 0C5.98777 0 3.92907 0.785281 2.35704 2.35718C-0.78568 5.49963 -0.78568 10.5953 2.35704 13.7391C3.92907 15.311 5.9891 16.0963 8.0478 16.0963C9.85583 16.0963 11.6639 15.491 13.1412 14.2804L18.8613 20L20 18.8614V18.8601ZM3.49572 12.6005C0.985016 10.09 0.985016 6.00493 3.49572 3.49577C4.71175 2.27985 6.32911 1.61056 8.04913 1.61056C9.76916 1.61056 11.3865 2.27985 12.6025 3.49577C15.1133 6.00627 15.1133 10.0913 12.6025 12.6005C11.3865 13.8164 9.76916 14.4857 8.04913 14.4857C6.32911 14.4857 4.71175 13.8164 3.49572 12.6005Z" fill="#999999"/>
</svg>
