<svg width="30" height="30" viewBox="0 0 30 30" fill="none" xmlns="http://www.w3.org/2000/svg">
    <g clip-path="url(#clip0_21_133)">
    <path d="M30 28.2959L21.42 19.7159C25.306 14.9739 25.036 7.96591 20.608 3.53791C18.252 1.18191 15.162 0.00390625 12.072 0.00390625C8.98199 0.00390625 5.89399 1.18191 3.53599 3.53991C-1.17801 8.25391 -1.17801 15.8979 3.53599 20.6139C5.89399 22.9719 8.98399 24.1499 12.072 24.1499C14.784 24.1499 17.496 23.2419 19.712 21.4259L28.292 30.0059L30 28.2979V28.2959ZM5.24399 18.9059C1.47799 15.1399 1.47799 9.01191 5.24399 5.24791C7.06799 3.42391 9.49399 2.41991 12.074 2.41991C14.654 2.41991 17.08 3.42391 18.904 5.24791C22.67 9.01391 22.67 15.1419 18.904 18.9059C17.08 20.7299 14.654 21.7339 12.074 21.7339C9.49399 21.7339 7.06799 20.7299 5.24399 18.9059Z" fill="black"/>
    </g>
    <defs>
    <clipPath id="clip0_21_133">
    <rect width="30" height="30" fill="white"/>
    </clipPath>
    </defs>
</svg>
    