<svg width="30" height="30" viewBox="0 0 30 30" fill="none" xmlns="http://www.w3.org/2000/svg">
    <path d="M4.6875 22.5C4.42188 22.5 4.19927 22.4096 4.01969 22.2288C3.8399 22.0481 3.75 21.8242 3.75 21.5569C3.75 21.2898 3.8399 21.0677 4.01969 20.8906C4.19927 20.7135 4.42188 20.625 4.6875 20.625H25.3125C25.5781 20.625 25.8008 20.7154 25.9806 20.8962C26.1602 21.0769 26.25 21.3008 26.25 21.5681C26.25 21.8352 26.1602 22.0573 25.9806 22.2344C25.8008 22.4115 25.5781 22.5 25.3125 22.5H4.6875ZM4.6875 15.9375C4.42188 15.9375 4.19927 15.8471 4.01969 15.6663C3.8399 15.4856 3.75 15.2617 3.75 14.9944C3.75 14.7273 3.8399 14.5052 4.01969 14.3281C4.19927 14.151 4.42188 14.0625 4.6875 14.0625H25.3125C25.5781 14.0625 25.8008 14.1529 25.9806 14.3337C26.1602 14.5144 26.25 14.7383 26.25 15.0056C26.25 15.2727 26.1602 15.4948 25.9806 15.6719C25.8008 15.849 25.5781 15.9375 25.3125 15.9375H4.6875ZM4.6875 9.375C4.42188 9.375 4.19927 9.28458 4.01969 9.10375C3.8399 8.92313 3.75 8.69917 3.75 8.43188C3.75 8.16479 3.8399 7.94271 4.01969 7.76562C4.19927 7.58854 4.42188 7.5 4.6875 7.5H25.3125C25.5781 7.5 25.8008 7.59042 25.9806 7.77125C26.1602 7.95187 26.25 8.17583 26.25 8.44312C26.25 8.71021 26.1602 8.93229 25.9806 9.10938C25.8008 9.28646 25.5781 9.375 25.3125 9.375H4.6875Z" fill="#999999"/>
</svg>
    