<svg width="30" height="30" viewBox="0 0 30 30" fill="none" xmlns="http://www.w3.org/2000/svg">
    <g clip-path="url(#clip0_370_795)">
    <path d="M30 28.296L21.42 19.716C25.306 14.974 25.036 7.96603 20.608 3.53803C18.252 1.18203 15.162 0.00402832 12.072 0.00402832C8.98199 0.00402832 5.89399 1.18203 3.53599 3.54003C-1.17801 8.25403 -1.17801 15.898 3.53599 20.614C5.89399 22.972 8.98399 24.15 12.072 24.15C14.784 24.15 17.496 23.242 19.712 21.426L28.292 30.006L30 28.298V28.296ZM5.24399 18.906C1.47799 15.14 1.47799 9.01203 5.24399 5.24803C7.06799 3.42403 9.49399 2.42003 12.074 2.42003C14.654 2.42003 17.08 3.42403 18.904 5.24803C22.67 9.01403 22.67 15.142 18.904 18.906C17.08 20.73 14.654 21.734 12.074 21.734C9.49399 21.734 7.06799 20.73 5.24399 18.906Z" fill="black" fill-opacity="0.25"/>
    </g>
    <defs>
    <clipPath id="clip0_370_795">
    <rect width="30" height="30" fill="white"/>
    </clipPath>
    </defs>
</svg>
    