<?xml version="1.0" encoding="UTF-8"?>
<svg id="_레이어_1" data-name="레이어_1" xmlns="http://www.w3.org/2000/svg" version="1.1" viewBox="0 0 100 100">
  <!-- Generator: Adobe Illustrator 29.5.1, SVG Export Plug-In . SVG Version: 2.1.0 Build 141)  -->
  <defs>
    <style>
      .st0 {
        fill: #fff;
      }

      .st1 {
        fill: none;
      }
    </style>
  </defs>
  <circle class="st1" cx="50" cy="49.97" r="40"/>
  <g>
    <rect class="st0" x="27" y="6" width="1" height="10" transform="translate(-1.82 15.22) rotate(-30)"/>
    <rect class="st0" x="10.53" y="22.47" width="1" height="10" transform="translate(-18.28 23.29) rotate(-60)"/>
    <rect class="st0" x="6.03" y="71.97" width="10" height="1" transform="translate(-34.75 15.22) rotate(-29.99)"/>
    <rect class="st0" x="22.5" y="88.44" width="10" height="1" transform="translate(-63.28 68.3) rotate(-60.01)"/>
    <rect class="st0" x="72" y="83.94" width="1" height="10" transform="translate(-34.76 48.17) rotate(-30)"/>
    <rect class="st0" x="88.47" y="67.47" width="1" height="10" transform="translate(-18.28 113.29) rotate(-60)"/>
    <rect class="st0" x="83.97" y="26.97" width="10" height="1" transform="translate(-1.82 48.16) rotate(-29.99)"/>
    <rect class="st0" x="67.5" y="10.5" width="10" height="1" transform="translate(26.73 68.29) rotate(-60.01)"/>
    <polygon class="st0" points="28.11 16.49 22.66 8.11 22.87 7.97 28.32 16.36 28.11 16.49"/>
    <rect class="st0" x="9.78" y="24.54" width=".25" height="10" transform="translate(-20.91 24.96) rotate(-63)"/>
    <polygon class="st0" points="8.13 77.31 8 77.1 16.39 71.65 16.52 71.86 8.13 77.31"/>
    <rect class="st0" x="24.57" y="89.94" width="10" height=".25" transform="translate(-64.11 75.58) rotate(-63.03)"/>
    <polygon class="st0" points="77.13 91.97 71.68 83.59 71.89 83.45 77.34 91.84 77.13 91.97"/>
    <rect class="st0" x="89.97" y="65.4" width=".25" height="10" transform="translate(-13.53 118.72) rotate(-63)"/>
    <polygon class="st0" points="83.61 28.29 83.48 28.08 91.87 22.64 92 22.85 83.61 28.29"/>
    <rect class="st0" x="65.43" y="9.75" width="10" height=".25" transform="translate(29.69 68.17) rotate(-63.03)"/>
    <polygon class="st0" points="26.39 17.69 20.51 9.59 20.71 9.45 26.59 17.54 26.39 17.69"/>
    <rect class="st0" x="8.77" y="26.67" width=".25" height="10" transform="translate(-23.66 26.91) rotate(-66)"/>
    <polygon class="st0" points="9.62 79.46 9.48 79.26 17.57 73.38 17.71 73.58 9.62 79.46"/>
    <rect class="st0" x="26.7" y="90.96" width="10" height=".25" transform="translate(-64.41 83.05) rotate(-66.04)"/>
    <polygon class="st0" points="79.29 90.5 73.41 82.41 73.61 82.26 79.49 90.35 79.29 90.5"/>
    <rect class="st0" x="90.98" y="63.28" width=".25" height="10" transform="translate(-8.32 123.74) rotate(-66)"/>
    <polygon class="st0" points="82.43 26.56 82.29 26.36 90.38 20.48 90.52 20.68 82.43 26.56"/>
    <rect class="st0" x="63.3" y="8.74" width="10" height=".25" transform="translate(32.46 67.68) rotate(-66.04)"/>
    <rect class="st0" x="42.84" y=".53" width=".25" height="10" transform="translate(-.34 6.79) rotate(-9)"/>
    <rect class="st0" x="21.56" y="10" width=".25" height="10" transform="translate(-4.61 16.99) rotate(-39)"/>
    <rect class="st0" x="7.86" y="28.85" width=".25" height="10" transform="translate(-26.47 29.18) rotate(-69)"/>
    <rect class="st0" x=".55" y="56.89" width="10" height=".25" transform="translate(-8.84 1.57) rotate(-8.98)"/>
    <rect class="st0" x="10.03" y="78.17" width="10" height=".25" transform="translate(-45.9 26.88) rotate(-38.97)"/>
    <rect class="st0" x="28.87" y="91.86" width="10" height=".25" transform="translate(-64.14 90.55) rotate(-68.95)"/>
    <rect class="st0" x="56.91" y="89.42" width=".25" height="10" transform="translate(-14.07 10.09) rotate(-9)"/>
    <rect class="st0" x="78.19" y="79.94" width=".25" height="10" transform="translate(-36 68.22) rotate(-39)"/>
    <rect class="st0" x="91.89" y="61.1" width=".25" height="10" transform="translate(-2.67 128.31) rotate(-69)"/>
    <rect class="st0" x="89.45" y="42.81" width="10" height=".25" transform="translate(-5.55 15.28) rotate(-8.98)"/>
    <rect class="st0" x="79.97" y="21.53" width="10" height=".25" transform="translate(5.29 58.26) rotate(-38.97)"/>
    <rect class="st0" x="61.13" y="7.84" width="10" height=".25" transform="translate(34.94 66.81) rotate(-68.95)"/>
    <rect class="st0" x="40.52" y=".96" width=".25" height="10" transform="translate(-.35 8.58) rotate(-12)"/>
    <rect class="st0" x="19.76" y="11.53" width=".25" height="10" transform="translate(-5.95 17.56) rotate(-42)"/>
    <rect class="st0" x="7.08" y="31.07" width=".25" height="10" transform="translate(-29.32 31.77) rotate(-72)"/>
    <rect class="st0" x=".98" y="59.2" width="10" height=".25" transform="translate(-12.17 2.53) rotate(-11.97)"/>
    <rect class="st0" x="11.56" y="79.96" width="10" height=".25" transform="translate(-49.32 31.64) rotate(-41.99)"/>
    <rect class="st0" x="31.09" y="92.65" width="10" height=".25" transform="translate(-63.29 98.41) rotate(-71.99)"/>
    <rect class="st0" x="59.23" y="88.99" width=".25" height="10" transform="translate(-18.24 14.39) rotate(-12)"/>
    <rect class="st0" x="79.99" y="78.41" width=".25" height="10" transform="translate(-35.24 75.03) rotate(-42)"/>
    <rect class="st0" x="92.67" y="58.88" width=".25" height="10" transform="translate(3.37 132.39) rotate(-72)"/>
    <polygon class="st0" points="89.15 41.78 89.1 41.53 98.88 39.46 98.93 39.7 89.15 41.78"/>
    <rect class="st0" x="78.44" y="19.74" width="10" height=".25" transform="translate(8.13 60.92) rotate(-41.99)"/>
    <rect class="st0" x="58.91" y="7.05" width="10" height=".25" transform="translate(37.32 65.73) rotate(-71.99)"/>
    <rect class="st0" x="38.23" y="1.51" width=".25" height="10" transform="translate(-.38 10.15) rotate(-15)"/>
    <rect class="st0" x="18.06" y="13.15" width=".25" height="10" transform="translate(-7.51 18.17) rotate(-45)"/>
    <rect class="st0" x="6.41" y="33.33" width=".25" height="10" transform="translate(-32.18 34.72) rotate(-75)"/>
    <rect class="st0" x="1.53" y="61.49" width="10" height=".25" transform="translate(-15.69 3.78) rotate(-14.96)"/>
    <rect class="st0" x="13.18" y="81.67" width="10" height=".25" transform="translate(-52.51 36.81) rotate(-45)"/>
    <rect class="st0" x="33.35" y="93.31" width="10" height=".25" transform="translate(-61.82 106.37) rotate(-75.04)"/>
    <rect class="st0" x="61.52" y="88.44" width=".25" height="10" transform="translate(-22.08 19.14) rotate(-15)"/>
    <rect class="st0" x="81.69" y="76.79" width=".25" height="10" transform="translate(-33.87 81.81) rotate(-45)"/>
    <rect class="st0" x="93.34" y="56.62" width=".25" height="10" transform="translate(9.75 135.95) rotate(-75)"/>
    <rect class="st0" x="88.47" y="38.2" width="10" height=".25" transform="translate(-6.73 25.43) rotate(-14.96)"/>
    <rect class="st0" x="76.82" y="18.03" width="10" height=".25" transform="translate(11.13 63.17) rotate(-45)"/>
    <rect class="st0" x="56.65" y="6.38" width="10" height=".25" transform="translate(39.45 64.38) rotate(-75.04)"/>
    <rect class="st0" x="35.97" y="2.18" width=".25" height="10" transform="translate(-.45 11.5) rotate(-18)"/>
    <rect class="st0" x="16.43" y="14.86" width=".25" height="10" transform="translate(-9.28 18.88) rotate(-48)"/>
    <rect class="st0" x="5.86" y="35.62" width=".25" height="10" transform="translate(-34.99 38.02) rotate(-78)"/>
    <rect class="st0" x="2.2" y="63.75" width="10" height=".25" transform="translate(-19.4 5.36) rotate(-18.01)"/>
    <rect class="st0" x="14.89" y="83.29" width="10" height=".25" transform="translate(-55.42 42.4) rotate(-48.01)"/>
    <rect class="st0" x="35.64" y="93.86" width="10" height=".25" transform="translate(-59.73 114.26) rotate(-78.03)"/>
    <rect class="st0" x="63.78" y="87.77" width=".25" height="10" transform="translate(-25.54 24.29) rotate(-18)"/>
    <rect class="st0" x="83.32" y="75.08" width=".25" height="10" transform="translate(-31.91 88.5) rotate(-48)"/>
    <polygon class="st0" points="98.88 60.49 89.1 58.41 89.15 58.17 98.93 60.25 98.88 60.49"/>
    <rect class="st0" x="87.8" y="35.94" width="10" height=".25" transform="translate(-6.6 30.46) rotate(-18.01)"/>
    <rect class="st0" x="75.11" y="16.41" width="10" height=".25" transform="translate(14.23 65.02) rotate(-48.01)"/>
    <rect class="st0" x="54.36" y="5.83" width="10" height=".25" transform="translate(41.22 62.79) rotate(-78.03)"/>
    <rect class="st0" x="33.75" y="2.96" width=".25" height="10" transform="translate(-.6 12.67) rotate(-21)"/>
    <rect class="st0" x="14.9" y="16.65" width=".25" height="10" transform="translate(-11.26 19.71) rotate(-51)"/>
    <rect class="st0" x="5.43" y="37.93" width=".25" height="10" transform="translate(-37.72 41.7) rotate(-81)"/>
    <rect class="st0" x="2.99" y="65.97" width="10" height=".25" transform="translate(-23.21 7.28) rotate(-21.05)"/>
    <rect class="st0" x="16.68" y="84.82" width="10" height=".25" transform="translate(-57.99 48.37) rotate(-51.03)"/>
    <rect class="st0" x="37.96" y="94.29" width="10" height=".25" transform="translate(-57.01 122.11) rotate(-81.02)"/>
    <rect class="st0" x="66" y="86.98" width=".25" height="10" transform="translate(-28.57 29.81) rotate(-21)"/>
    <rect class="st0" x="84.85" y="73.29" width=".25" height="10" transform="translate(-29.35 95.06) rotate(-51)"/>
    <rect class="st0" x="94.32" y="52.01" width=".25" height="10" transform="translate(23.36 141.38) rotate(-81)"/>
    <rect class="st0" x="87.01" y="33.72" width="10" height=".25" transform="translate(-6.02 35.31) rotate(-21.05)"/>
    <rect class="st0" x="73.32" y="14.88" width="10" height=".25" transform="translate(17.4 66.45) rotate(-51.03)"/>
    <rect class="st0" x="52.04" y="5.4" width="10" height=".25" transform="translate(42.67 61) rotate(-81.02)"/>
    <rect class="st0" x="31.57" y="3.86" width=".25" height="10" transform="translate(-.86 13.66) rotate(-24)"/>
    <polygon class="st0" points="17.57 26.56 9.48 20.68 9.62 20.48 17.71 26.36 17.57 26.56"/>
    <rect class="st0" x="3.89" y="68.15" width="10" height=".25" transform="translate(-26.96 9.5) rotate(-23.96)"/>
    <polygon class="st0" points="20.71 90.5 20.51 90.35 26.39 82.26 26.59 82.41 20.71 90.5"/>
    <rect class="st0" x="68.18" y="86.08" width=".25" height="10" transform="translate(-31.14 35.65) rotate(-24)"/>
    <polygon class="st0" points="90.38 79.46 82.29 73.58 82.43 73.38 90.52 79.26 90.38 79.46"/>
    <rect class="st0" x="86.11" y="31.54" width="10" height=".25" transform="translate(-5.01 39.73) rotate(-23.96)"/>
    <polygon class="st0" points="73.61 17.69 73.41 17.54 79.29 9.45 79.49 9.59 73.61 17.69"/>
    <rect class="st0" x="29.45" y="4.88" width=".25" height="10" transform="translate(-1.26 14.5) rotate(-27)"/>
    <polygon class="st0" points="16.39 28.29 8 22.85 8.13 22.64 16.52 28.08 16.39 28.29"/>
    <rect class="st0" x="4.9" y="70.28" width="10" height=".25" transform="translate(-30.85 12.15) rotate(-26.97)"/>
    <polygon class="st0" points="22.87 91.97 22.66 91.84 28.11 83.45 28.32 83.59 22.87 91.97"/>
    <rect class="st0" x="70.3" y="85.07" width=".25" height="10" transform="translate(-33.21 41.79) rotate(-27)"/>
    <polygon class="st0" points="91.87 77.31 83.48 71.86 83.61 71.65 92 77.1 91.87 77.31"/>
    <rect class="st0" x="85.1" y="29.42" width="10" height=".25" transform="translate(-3.6 44.07) rotate(-26.97)"/>
    <polygon class="st0" points="71.89 16.49 71.68 16.36 77.13 7.97 77.34 8.11 71.89 16.49"/>
  </g>
  <g>
    <path class="st0" d="M99.07,49.88v.84h-8.16v-.84h3.56v-.9h-2.55v-3.06h6.15v.82h-5.13v1.41h5.19v.83h-2.63v.9h3.57ZM98.08,52.9c0,1.05-1.17,1.65-3.11,1.65s-3.11-.6-3.11-1.65,1.18-1.64,3.11-1.64,3.11.6,3.11,1.64ZM97.04,52.9c0-.55-.75-.85-2.07-.85s-2.06.3-2.06.85.74.85,2.06.85,2.07-.29,2.07-.85Z"/>
    <path class="st0" d="M4.18,47.74c0,1.68.86,3.32,2.24,3.96l-.61.83c-1.02-.51-1.75-1.5-2.14-2.71-.4,1.28-1.14,2.33-2.17,2.86l-.65-.82c1.41-.69,2.29-2.43,2.29-4.12v-1.49h1.04v1.49ZM8.41,45.5v9.06h-1.04v-5.25h-1.93v-.84h1.93v-2.97h1.04Z"/>
    <path class="st0" d="M51.23,94.63c-1.51.3-2.87.39-4.19.39h-.73v-4.07h1.03v3.22c1.18-.02,2.43-.11,3.76-.38l.13.84ZM47.19,96.07h5.77v3.36h-5.77v-3.36ZM48.2,98.6h3.75v-1.71h-3.75v1.71ZM54.24,93.36h-1.28v2.25h-1.03v-5.1h1.03v2h1.28v.85Z"/>
    <path class="st0" d="M50.49,5.71v.92h2.58v2.91h-1.03v-2.09h-5.23v-.82h2.65v-.92h-3.57v-.83h8.19v.83h-3.59ZM53.02,4.15h-6.06V.74h1.02v.92h4.02v-.92h1.02v3.42ZM52,2.45h-4.02v.89h4.02v-.89Z"/>
  </g>
</svg>