<?xml version="1.0" encoding="UTF-8"?>
<svg id="_레이어_1" data-name="레이어_1" xmlns="http://www.w3.org/2000/svg" version="1.1" viewBox="0 0 150 150">
  <!-- Generator: Adobe Illustrator 29.4.0, SVG Export Plug-In . SVG Version: 2.1.0 Build 152)  -->
  <defs>
    <style>
      .st0 {
        fill: #fff;
      }
    </style>
  </defs>
  <path class="st0" d="M121,59h0c-3.33,0-6.54.59-9.51,1.68-4.44-14.85-18.2-25.68-34.49-25.68-11.41,0-21.57,5.31-28.17,13.59-2.41-1.03-5.05-1.59-7.83-1.59-11.05,0-20,8.95-20,20,0,.1,0,.19,0,.28-11.29,1.77-20.01,11.6-20.01,23.37h0c0,13.45,10.9,24.35,24.35,24.35h95.65c15.46,0,28-12.54,28-28h0c0-15.46-12.54-28-28-28Z"/>
</svg>