<svg width="30" height="30" viewBox="0 0 30 30" fill="none" xmlns="http://www.w3.org/2000/svg">
    <path d="M24.2 11.8C23.534 11.8 22.892 11.918 22.298 12.136C21.41 9.166 18.658 7 15.4 7C13.118 7 11.086 8.062 9.766 9.718C9.284 9.512 8.756 9.4 8.2 9.4C5.99 9.4 4.2 11.19 4.2 13.4C4.2 13.42 4.2 13.438 4.2 13.456C1.942 13.81 0.197998 15.776 0.197998 18.13C0.197998 20.82 2.378 23 5.068 23H24.198C27.29 23 29.798 20.492 29.798 17.4C29.798 14.308 27.29 11.8 24.198 11.8H24.2Z" fill="white"/>
</svg>
    