<?xml version="1.0" encoding="UTF-8"?>
<svg id="_레이어_1" data-name="레이어_1" xmlns="http://www.w3.org/2000/svg" version="1.1" viewBox="0 0 100 100">
  <!-- Generator: Adobe Illustrator 29.5.1, SVG Export Plug-In . SVG Version: 2.1.0 Build 141)  -->
  <defs>
    <style>
      .st0 {
        fill: #fff;
      }
    </style>
  </defs>
  <path class="st0" d="M56.77.51c-.21-.03-.41-.07-.61-.09-2.02-.25-4.07-.42-6.16-.42-6.9,0-13.48,1.4-19.46,3.93-2.99,1.26-5.83,2.81-8.49,4.61-1.33.9-2.61,1.86-3.85,2.88-4.94,4.08-9.08,9.08-12.16,14.75-1.54,2.83-2.81,5.83-3.79,8.96s-1.65,6.39-1.99,9.76c-.17,1.68-.26,3.39-.26,5.11,0,27.61,22.39,50,50,50,2.09,0,4.14-.17,6.16-.42.21-.03.41-.06.61-.09,24.4-3.31,43.23-24.18,43.23-49.49S81.18,3.83,56.77.51ZM53.09,94.84c-16.61-8.12-28.09-25.11-28.09-44.84S36.47,13.27,53.09,5.16c23.37,1.6,41.91,21.07,41.91,44.84s-18.54,43.25-41.91,44.84Z"/>
</svg>