<svg width="50" height="50" viewBox="0 0 50 50" fill="none" xmlns="http://www.w3.org/2000/svg">
    <g clip-path="url(#clip0_7_17)">
    <path d="M25 41.665C34.2038 41.665 41.665 34.2038 41.665 25C41.665 15.7962 34.2038 8.335 25 8.335C15.7962 8.335 8.33499 15.7962 8.33499 25C8.33499 34.2038 15.7962 41.665 25 41.665Z" fill="#FFC800"/>
    <path d="M25.005 0H25C24.0804 0 23.335 0.745446 23.335 1.665V5C23.335 5.91955 24.0804 6.665 25 6.665H25.005C25.9245 6.665 26.67 5.91955 26.67 5V1.665C26.67 0.745446 25.9245 0 25.005 0Z" fill="#FF9600"/>
    <path d="M24.995 50H25C25.9196 50 26.665 49.2546 26.665 48.335V45C26.665 44.0804 25.9196 43.335 25 43.335H24.995C24.0755 43.335 23.33 44.0804 23.33 45V48.335C23.33 49.2546 24.0755 50 24.995 50Z" fill="#FF9600"/>
    <path d="M50 25.005V25C50 24.0804 49.2546 23.335 48.335 23.335H45C44.0804 23.335 43.335 24.0804 43.335 25V25.005C43.335 25.9246 44.0804 26.67 45 26.67H48.335C49.2546 26.67 50 25.9246 50 25.005Z" fill="#FF9600"/>
    <path d="M0 25L0 25.005C0 25.9246 0.745445 26.67 1.665 26.67H5C5.91955 26.67 6.665 25.9246 6.665 25.005V25C6.665 24.0804 5.91955 23.335 5 23.335H1.665C0.745445 23.335 0 24.0804 0 25Z" fill="#FF9600"/>
    <path d="M7.32491 7.31826L7.32138 7.3218C6.67115 7.97202 6.67115 9.02624 7.32138 9.67646L9.67958 12.0347C10.3298 12.6849 11.384 12.6849 12.0342 12.0347L12.0378 12.0311C12.688 11.3809 12.688 10.3267 12.0378 9.67646L9.67958 7.31826C9.02935 6.66804 7.97513 6.66804 7.32491 7.31826Z" fill="#FF9600"/>
    <path d="M42.6786 42.6817L42.6821 42.6782C43.3323 42.028 43.3323 40.9738 42.6821 40.3235L40.3239 37.9653C39.6737 37.3151 38.6195 37.3151 37.9692 37.9653L37.9657 37.9689C37.3155 38.6191 37.3155 39.6733 37.9657 40.3235L40.3239 42.6817C40.9741 43.332 42.0283 43.332 42.6786 42.6817Z" fill="#FF9600"/>
    <path d="M42.6825 7.32568L42.679 7.32214C42.0288 6.67192 40.9745 6.67192 40.3243 7.32214L37.9661 9.68034C37.3159 10.3306 37.3159 11.3848 37.9661 12.035L37.9697 12.0385C38.6199 12.6888 39.6741 12.6888 40.3243 12.0385L42.6825 9.68034C43.3327 9.03012 43.3327 7.9759 42.6825 7.32568Z" fill="#FF9600"/>
    <path d="M7.31901 42.6743L7.32255 42.6779C7.97277 43.3281 9.02699 43.3281 9.67721 42.6779L12.0354 40.3197C12.6856 39.6694 12.6856 38.6152 12.0354 37.965L12.0319 37.9615C11.3817 37.3112 10.3274 37.3112 9.67721 37.9615L7.31901 40.3197C6.66879 40.9699 6.66879 42.0241 7.31901 42.6743Z" fill="#FF9600"/>
    </g>
    <defs>
    <clipPath id="clip0_7_17">
    <rect width="50" height="50" fill="white"/>
    </clipPath>
    </defs>
</svg>
    