<svg width="100" height="100" viewBox="0 0 100 100" fill="none" xmlns="http://www.w3.org/2000/svg">
    <path d="M43.23 99.49C43.44 99.52 43.64 99.56 43.84 99.58C45.86 99.83 47.91 100 50 100C56.9 100 63.48 98.6 69.46 96.07C72.45 94.81 75.2899 93.26 77.95 91.46C79.28 90.56 80.5601 89.6 81.8 88.58C86.7401 84.5 90.88 79.5 93.96 73.83C95.5 71 96.77 68 97.75 64.87C98.73 61.74 99.4 58.48 99.74 55.11C99.91 53.43 100 51.72 100 50C100 22.39 77.61 0 50 0C47.91 0 45.86 0.17 43.84 0.42C43.63 0.45 43.43 0.48 43.23 0.51C18.83 3.82 0 24.69 0 50C0 75.31 18.82 96.17 43.23 99.49ZM46.91 5.16C63.52 13.28 75 30.27 75 50C75 69.73 63.53 86.73 46.91 94.84C23.54 93.24 5 73.77 5 50C5 26.23 23.54 6.75 46.91 5.16Z" fill="white"/>
</svg>
    