<svg width="100" height="100" viewBox="0 0 100 100" fill="none" xmlns="http://www.w3.org/2000/svg">
    <path d="M87.18 83.35C87.86 82.59 88.53 81.83 89.17 81.02C89.45 80.67 89.7 80.3 89.97 79.95C91.78 77.54 93.38 74.96 94.74 72.23C95.11 71.49 95.48 70.76 95.81 70.01C96.08 69.4 96.31 68.77 96.56 68.14C96.88 67.33 97.18 66.52 97.45 65.7C97.65 65.09 97.84 64.47 98.02 63.84C98.28 62.95 98.5 62.06 98.71 61.15C98.85 60.56 98.98 59.96 99.1 59.36C99.29 58.34 99.44 57.31 99.57 56.27C99.63 55.76 99.72 55.25 99.77 54.73C99.92 53.16 100.01 51.58 100.01 49.98C100.01 48.38 99.92 46.79 99.77 45.23C99.72 44.71 99.64 44.21 99.57 43.69C99.44 42.65 99.29 41.62 99.1 40.6C98.99 40 98.85 39.41 98.71 38.81C98.5 37.91 98.28 37.01 98.02 36.13C97.84 35.51 97.65 34.89 97.45 34.27C97.18 33.44 96.87 32.63 96.56 31.83C96.32 31.2 96.08 30.58 95.81 29.96C95.48 29.2 95.11 28.47 94.74 27.74C93.38 25.01 91.78 22.43 89.97 20.01C89.7 19.66 89.45 19.3 89.18 18.95C88.54 18.15 87.87 17.38 87.19 16.62C86.93 16.33 86.68 16.04 86.41 15.76C85.67 14.97 84.9 14.21 84.11 13.47C83.91 13.28 83.71 13.1 83.51 12.92C74.62 4.93 62.9 0 50 0C22.39 0 0 22.39 0 50C0 77.61 22.39 100 50 100C62.9 100 74.62 95.07 83.48 87.06C83.68 86.88 83.89 86.69 84.09 86.51C84.88 85.77 85.65 85.01 86.39 84.22C86.66 83.94 86.92 83.64 87.18 83.35ZM5 50C5 25.19 25.19 5 50 5C51.04 5 52.06 5.09 53.09 5.16C36.48 13.28 25 30.27 25 50C25 69.73 36.47 86.73 53.09 94.84C52.07 94.91 51.05 95 50 95C25.19 95 5 74.81 5 50Z" fill="white"/>
</svg>
    