<svg width="30" height="30" viewBox="0 0 30 30" fill="none" xmlns="http://www.w3.org/2000/svg">
    <g clip-path="url(#clip0_95_1365)">
    <path d="M15 24.999C20.5223 24.999 24.999 20.5223 24.999 15C24.999 9.47768 20.5223 5.00098 15 5.00098C9.47771 5.00098 5.00101 9.47768 5.00101 15C5.00101 20.5223 9.47771 24.999 15 24.999Z" fill="#FFC800"/>
    <path d="M15.003 0H15C14.4483 0 14.001 0.447267 14.001 0.999V3C14.001 3.55173 14.4483 3.999 15 3.999H15.003C15.5547 3.999 16.002 3.55173 16.002 3V0.999C16.002 0.447267 15.5547 0 15.003 0Z" fill="#FF9600"/>
    <path d="M14.997 30H15C15.5517 30 15.999 29.5527 15.999 29.001V27C15.999 26.4483 15.5517 26.001 15 26.001H14.997C14.4453 26.001 13.998 26.4483 13.998 27V29.001C13.998 29.5527 14.4453 30 14.997 30Z" fill="#FF9600"/>
    <path d="M30 15.003V15C30 14.4482 29.5527 14.001 29.001 14.001H27C26.4483 14.001 26.001 14.4482 26.001 15V15.003C26.001 15.5547 26.4483 16.002 27 16.002H29.001C29.5527 16.002 30 15.5547 30 15.003Z" fill="#FF9600"/>
    <path d="M0 15L0 15.003C0 15.5547 0.447267 16.002 0.998999 16.002H3C3.55173 16.002 3.999 15.5547 3.999 15.003V15C3.999 14.4483 3.55173 14.001 3 14.001H0.998999C0.447267 14.001 0 14.4483 0 15Z" fill="#FF9600"/>
    <path d="M4.39495 4.39097L4.39283 4.39309C4.0027 4.78322 4.0027 5.41575 4.39283 5.80589L5.80775 7.22081C6.19789 7.61094 6.83042 7.61094 7.22055 7.22081L7.22267 7.21869C7.61281 6.82855 7.61281 6.19602 7.22267 5.80589L5.80775 4.39097C5.41762 4.00083 4.78509 4.00083 4.39495 4.39097Z" fill="#FF9600"/>
    <path d="M25.6072 25.609L25.6093 25.6069C25.9994 25.2168 25.9994 24.5842 25.6093 24.1941L24.1944 22.7792C23.8042 22.3891 23.1717 22.3891 22.7816 22.7792L22.7794 22.7813C22.3893 23.1714 22.3893 23.804 22.7794 24.1941L24.1944 25.609C24.5845 25.9992 25.217 25.9992 25.6072 25.609Z" fill="#FF9600"/>
    <path d="M25.6095 4.39541L25.6074 4.39329C25.2172 4.00316 24.5847 4.00316 24.1946 4.39329L22.7796 5.80821C22.3895 6.19834 22.3895 6.83088 22.7797 7.22101L22.7818 7.22313C23.1719 7.61327 23.8044 7.61327 24.1946 7.22313L25.6095 5.80821C25.9996 5.41808 25.9996 4.78555 25.6095 4.39541Z" fill="#FF9600"/>
    <path d="M4.39139 25.6046L4.39351 25.6067C4.78365 25.9968 5.41618 25.9968 5.80631 25.6067L7.22123 24.1918C7.61137 23.8017 7.61137 23.1691 7.22124 22.779L7.21911 22.7769C6.82898 22.3867 6.19645 22.3867 5.80631 22.7769L4.39139 24.1918C4.00126 24.5819 4.00126 25.2145 4.39139 25.6046Z" fill="#FF9600"/>
    </g>
    <defs>
    <clipPath id="clip0_95_1365">
    <rect width="30" height="30" fill="white"/>
    </clipPath>
    </defs>
</svg>
    