<svg width="30" height="30" viewBox="0 0 30 30" fill="none" xmlns="http://www.w3.org/2000/svg">
    <path d="M8 5C8 4.44772 7.55228 4 7 4C6.44772 4 6 4.44772 6 5V17C6 17.5523 6.44772 18 7 18C7.55228 18 8 17.5523 8 17V5Z" fill="#8CBEFF"/>
    <path d="M8 21C8 20.4477 7.55228 20 7 20C6.44772 20 6 20.4477 6 21V23C6 23.5523 6.44772 24 7 24C7.55228 24 8 23.5523 8 23V21Z" fill="#8CBEFF"/>
    <path d="M8 5C8 4.44772 7.55228 4 7 4C6.44772 4 6 4.44772 6 5V17C6 17.5523 6.44772 18 7 18C7.55228 18 8 17.5523 8 17V5Z" fill="#8CBEFF"/>
    <path d="M8 21C8 20.4477 7.55228 20 7 20C6.44772 20 6 20.4477 6 21V23C6 23.5523 6.44772 24 7 24C7.55228 24 8 23.5523 8 23V21Z" fill="#8CBEFF"/>
    <path d="M12 7C12 6.44772 11.5523 6 11 6C10.4477 6 10 6.44772 10 7V19C10 19.5523 10.4477 20 11 20C11.5523 20 12 19.5523 12 19V7Z" fill="#8CBEFF"/>
    <path d="M12 23C12 22.4477 11.5523 22 11 22C10.4477 22 10 22.4477 10 23V25C10 25.5523 10.4477 26 11 26C11.5523 26 12 25.5523 12 25V23Z" fill="#8CBEFF"/>
    <path d="M12 7C12 6.44772 11.5523 6 11 6C10.4477 6 10 6.44772 10 7V19C10 19.5523 10.4477 20 11 20C11.5523 20 12 19.5523 12 19V7Z" fill="#8CBEFF"/>
    <path d="M12 23C12 22.4477 11.5523 22 11 22C10.4477 22 10 22.4477 10 23V25C10 25.5523 10.4477 26 11 26C11.5523 26 12 25.5523 12 25V23Z" fill="#8CBEFF"/>
    <path d="M16 5C16 4.44772 15.5523 4 15 4C14.4477 4 14 4.44772 14 5V17C14 17.5523 14.4477 18 15 18C15.5523 18 16 17.5523 16 17V5Z" fill="#8CBEFF"/>
    <path d="M16 21C16 20.4477 15.5523 20 15 20C14.4477 20 14 20.4477 14 21V23C14 23.5523 14.4477 24 15 24C15.5523 24 16 23.5523 16 23V21Z" fill="#8CBEFF"/>
    <path d="M16 5C16 4.44772 15.5523 4 15 4C14.4477 4 14 4.44772 14 5V17C14 17.5523 14.4477 18 15 18C15.5523 18 16 17.5523 16 17V5Z" fill="#8CBEFF"/>
    <path d="M16 21C16 20.4477 15.5523 20 15 20C14.4477 20 14 20.4477 14 21V23C14 23.5523 14.4477 24 15 24C15.5523 24 16 23.5523 16 23V21Z" fill="#8CBEFF"/>
    <path d="M20 7C20 6.44772 19.5523 6 19 6C18.4477 6 18 6.44772 18 7V19C18 19.5523 18.4477 20 19 20C19.5523 20 20 19.5523 20 19V7Z" fill="#8CBEFF"/>
    <path d="M20 23C20 22.4477 19.5523 22 19 22C18.4477 22 18 22.4477 18 23V25C18 25.5523 18.4477 26 19 26C19.5523 26 20 25.5523 20 25V23Z" fill="#8CBEFF"/>
    <path d="M20 7C20 6.44772 19.5523 6 19 6C18.4477 6 18 6.44772 18 7V19C18 19.5523 18.4477 20 19 20C19.5523 20 20 19.5523 20 19V7Z" fill="#8CBEFF"/>
    <path d="M20 23C20 22.4477 19.5523 22 19 22C18.4477 22 18 22.4477 18 23V25C18 25.5523 18.4477 26 19 26C19.5523 26 20 25.5523 20 25V23Z" fill="#8CBEFF"/>
    <path d="M24 5C24 4.44772 23.5523 4 23 4C22.4477 4 22 4.44772 22 5V17C22 17.5523 22.4477 18 23 18C23.5523 18 24 17.5523 24 17V5Z" fill="#8CBEFF"/>
    <path d="M24 21C24 20.4477 23.5523 20 23 20C22.4477 20 22 20.4477 22 21V23C22 23.5523 22.4477 24 23 24C23.5523 24 24 23.5523 24 23V21Z" fill="#8CBEFF"/>
    <path d="M24 5C24 4.44772 23.5523 4 23 4C22.4477 4 22 4.44772 22 5V17C22 17.5523 22.4477 18 23 18C23.5523 18 24 17.5523 24 17V5Z" fill="#8CBEFF"/>
    <path d="M24 21C24 20.4477 23.5523 20 23 20C22.4477 20 22 20.4477 22 21V23C22 23.5523 22.4477 24 23 24C23.5523 24 24 23.5523 24 23V21Z" fill="#8CBEFF"/>
</svg>
    