<svg width="100" height="100" viewBox="0 0 100 100" fill="none" xmlns="http://www.w3.org/2000/svg">
    <path d="M12.82 16.65C12.14 17.41 11.47 18.17 10.83 18.98C10.55 19.33 10.3 19.7 10.03 20.05C8.22 22.46 6.62001 25.04 5.26001 27.77C4.89001 28.51 4.52 29.24 4.19 29.99C3.92 30.6 3.69 31.23 3.44 31.86C3.12 32.67 2.81999 33.48 2.54999 34.3C2.34999 34.91 2.16001 35.53 1.98001 36.16C1.72001 37.05 1.50001 37.94 1.29001 38.85C1.15001 39.44 1.01999 40.04 0.899994 40.64C0.709994 41.66 0.559993 42.69 0.429993 43.73C0.369993 44.24 0.280011 44.75 0.230011 45.27C0.080011 46.84 -0.0100098 48.42 -0.0100098 50.02C-0.0100098 51.62 0.080011 53.21 0.230011 54.77C0.280011 55.29 0.359993 55.79 0.429993 56.31C0.559993 57.35 0.709994 58.38 0.899994 59.4C1.00999 60 1.15001 60.59 1.29001 61.19C1.50001 62.09 1.72001 62.99 1.98001 63.87C2.16001 64.49 2.34999 65.11 2.54999 65.73C2.81999 66.56 3.13 67.37 3.44 68.17C3.68 68.8 3.92 69.42 4.19 70.04C4.52 70.8 4.89001 71.53 5.26001 72.26C6.62001 74.99 8.22 77.57 10.03 79.99C10.3 80.34 10.55 80.7 10.82 81.05C11.46 81.85 12.13 82.62 12.81 83.38C13.07 83.67 13.32 83.96 13.59 84.24C14.33 85.03 15.1 85.79 15.89 86.53C16.09 86.72 16.29 86.9 16.49 87.08C25.36 95.1 37.08 100.03 49.98 100.03C77.59 100.03 99.98 77.64 99.98 50.03C99.98 22.42 77.61 0 50 0C37.1 0 25.38 4.93 16.52 12.94C16.32 13.12 16.11 13.31 15.91 13.49C15.12 14.23 14.35 14.99 13.61 15.78C13.34 16.06 13.08 16.36 12.82 16.65ZM95 50C95 74.81 74.81 95 50 95C48.96 95 47.94 94.91 46.91 94.84C63.52 86.72 75 69.73 75 50C75 30.27 63.53 13.27 46.91 5.16C47.93 5.09 48.95 5 50 5C74.81 5 95 25.19 95 50Z" fill="white"/>
</svg>
    