<?xml version="1.0" encoding="UTF-8"?>
<svg id="_레이어_1" data-name="레이어_1" xmlns="http://www.w3.org/2000/svg" version="1.1" viewBox="0 0 150 150">
  <!-- Generator: Adobe Illustrator 29.4.0, SVG Export Plug-In . SVG Version: 2.1.0 Build 152)  -->
  <defs>
    <style>
      .st0 {
        fill: #8cbeff;
      }
    </style>
  </defs>
  <rect class="st0" x="30" y="20" width="10" height="70" rx="5" ry="5"/>
  <rect class="st0" x="30" y="100" width="10" height="20" rx="5" ry="5"/>
  <rect class="st0" x="30" y="20" width="10" height="70" rx="5" ry="5"/>
  <rect class="st0" x="30" y="100" width="10" height="20" rx="5" ry="5"/>
  <rect class="st0" x="50" y="30" width="10" height="70" rx="5" ry="5"/>
  <rect class="st0" x="50" y="110" width="10" height="20" rx="5" ry="5"/>
  <rect class="st0" x="50" y="30" width="10" height="70" rx="5" ry="5"/>
  <rect class="st0" x="50" y="110" width="10" height="20" rx="5" ry="5"/>
  <rect class="st0" x="70" y="20" width="10" height="70" rx="5" ry="5"/>
  <rect class="st0" x="70" y="100" width="10" height="20" rx="5" ry="5"/>
  <rect class="st0" x="70" y="20" width="10" height="70" rx="5" ry="5"/>
  <rect class="st0" x="70" y="100" width="10" height="20" rx="5" ry="5"/>
  <rect class="st0" x="90" y="30" width="10" height="70" rx="5" ry="5"/>
  <rect class="st0" x="90" y="110" width="10" height="20" rx="5" ry="5"/>
  <rect class="st0" x="90" y="30" width="10" height="70" rx="5" ry="5"/>
  <rect class="st0" x="90" y="110" width="10" height="20" rx="5" ry="5"/>
  <rect class="st0" x="110" y="20" width="10" height="70" rx="5" ry="5"/>
  <rect class="st0" x="110" y="100" width="10" height="20" rx="5" ry="5"/>
  <rect class="st0" x="110" y="20" width="10" height="70" rx="5" ry="5"/>
  <rect class="st0" x="110" y="100" width="10" height="20" rx="5" ry="5"/>
</svg>