<svg width="100" height="100" viewBox="0 0 100 100" fill="none" xmlns="http://www.w3.org/2000/svg">
    <path d="M56.77 0.51C56.56 0.48 56.36 0.44 56.16 0.42C54.14 0.17 52.09 0 50 0C43.1 0 36.52 1.4 30.54 3.93C27.55 5.19 24.71 6.74 22.05 8.54C20.72 9.44 19.44 10.4 18.2 11.42C13.26 15.5 9.11999 20.5 6.03999 26.17C4.49999 29 3.23 32 2.25 35.13C1.27 38.26 0.599995 41.52 0.259995 44.89C0.0899945 46.57 0 48.28 0 50C0 77.61 22.39 100 50 100C52.09 100 54.14 99.83 56.16 99.58C56.37 99.55 56.57 99.52 56.77 99.49C81.17 96.18 100 75.31 100 50C100 24.69 81.18 3.83 56.77 0.51ZM53.09 94.84C36.48 86.72 25 69.73 25 50C25 30.27 36.47 13.27 53.09 5.16C76.46 6.76 95 26.23 95 50C95 73.77 76.46 93.25 53.09 94.84Z" fill="white"/>
</svg>
    