<svg width="30" height="30" viewBox="0 0 30 30" fill="none" xmlns="http://www.w3.org/2000/svg">
    <path d="M18 18.666C21.6815 18.666 24.666 15.6815 24.666 12C24.666 8.31845 21.6815 5.33398 18 5.33398C14.3185 5.33398 11.334 8.31845 11.334 12C11.334 15.6815 14.3185 18.666 18 18.666Z" fill="#FFC800"/>
    <path d="M18.002 2H18C17.6322 2 17.334 2.29818 17.334 2.666V4C17.334 4.36782 17.6322 4.666 18 4.666H18.002C18.3698 4.666 18.668 4.36782 18.668 4V2.666C18.668 2.29818 18.3698 2 18.002 2Z" fill="#FF9600"/>
    <path d="M17.998 22H18C18.3678 22 18.666 21.7018 18.666 21.334V20C18.666 19.6322 18.3678 19.334 18 19.334H17.998C17.6302 19.334 17.332 19.6322 17.332 20V21.334C17.332 21.7018 17.6302 22 17.998 22Z" fill="#FF9600"/>
    <path d="M28 12.002V12C28 11.6322 27.7018 11.334 27.334 11.334H26C25.6322 11.334 25.334 11.6322 25.334 12V12.002C25.334 12.3698 25.6322 12.668 26 12.668H27.334C27.7018 12.668 28 12.3698 28 12.002Z" fill="#FF9600"/>
    <path d="M8 12V12.002C8 12.3698 8.29818 12.668 8.666 12.668H10C10.3678 12.668 10.666 12.3698 10.666 12.002V12C10.666 11.6321 10.3678 11.334 10 11.334H8.666C8.29818 11.334 8 11.6321 8 12Z" fill="#FF9600"/>
    <path d="M10.931 4.92658L10.9296 4.92799C10.6695 5.18808 10.6695 5.60977 10.9296 5.86986L11.8729 6.81314C12.133 7.07323 12.5547 7.07323 12.8148 6.81314L12.8162 6.81172C13.0763 6.55164 13.0763 6.12995 12.8162 5.86986L11.8729 4.92658C11.6128 4.66649 11.1911 4.66649 10.931 4.92658Z" fill="#FF9600"/>
    <path d="M25.0704 19.0734L25.0718 19.072C25.3319 18.8119 25.3319 18.3902 25.0718 18.1301L24.1285 17.1869C23.8684 16.9268 23.4467 16.9268 23.1866 17.1869L23.1852 17.1883C22.9251 17.4484 22.9251 17.8701 23.1852 18.1301L24.1285 19.0734C24.3886 19.3335 24.8103 19.3335 25.0704 19.0734Z" fill="#FF9600"/>
    <path d="M25.0717 4.92938L25.0702 4.92796C24.8101 4.66788 24.3885 4.66788 24.1284 4.92796L23.1851 5.87124C22.925 6.13133 22.925 6.55302 23.1851 6.81311L23.1865 6.81453C23.4466 7.07461 23.8683 7.07461 24.1284 6.81453L25.0717 5.87125C25.3317 5.61116 25.3317 5.18947 25.0717 4.92938Z" fill="#FF9600"/>
    <path d="M10.9269 19.0706L10.9284 19.072C11.1884 19.3321 11.6101 19.3321 11.8702 19.072L12.8135 18.1288C13.0736 17.8687 13.0736 17.447 12.8135 17.1869L12.8121 17.1855C12.552 16.9254 12.1303 16.9254 11.8702 17.1855L10.9269 18.1288C10.6669 18.3888 10.6669 18.8105 10.9269 19.0706Z" fill="#FF9600"/>
    <path d="M24.2 16.8C23.534 16.8 22.892 16.918 22.298 17.136C21.41 14.166 18.658 12 15.4 12C13.118 12 11.086 13.062 9.766 14.718C9.284 14.512 8.756 14.4 8.2 14.4C5.99 14.4 4.2 16.19 4.2 18.4C4.2 18.42 4.2 18.438 4.2 18.456C1.942 18.81 0.197998 20.776 0.197998 23.13C0.197998 25.82 2.378 28 5.068 28H24.198C27.29 28 29.798 25.492 29.798 22.4C29.798 19.308 27.29 16.8 24.198 16.8H24.2Z" fill="white"/>
</svg>
    