<svg width="100" height="100" viewBox="0 0 100 100" fill="none" xmlns="http://www.w3.org/2000/svg">
  <path d="M50 0C43.1 0 36.52 1.4 30.54 3.93C27.55 5.19 24.71 6.74 22.05 8.54C20.72 9.44 19.44 10.4 18.2 11.42C13.26 15.5 9.12001 20.5 6.04001 26.17C4.50001 29 3.23 32 2.25 35.13C1.27 38.26 0.60001 41.52 0.26001 44.89C0.0900098 46.57 0 48.28 0 50C0 77.61 22.39 100 50 100C77.61 100 100 77.61 100 50C100 22.39 77.61 0 50 0ZM50 95V5C74.81 5 95 25.19 95 50C95 74.81 74.81 95 50 95Z" fill="white"/>
</svg>
  