<svg width="100" height="100" viewBox="0 0 100 100" fill="none" xmlns="http://www.w3.org/2000/svg">
    <g clip-path="url(#clip0_339_1420)">
    <path d="M25.4288 6.41614L24.5627 6.91614L29.5627 15.5764L30.4288 15.0764L25.4288 6.41614Z" fill="white"/>
    <path d="M6.94458 24.5397L6.44458 25.4058L15.1048 30.4058L15.6048 29.5397L6.94458 24.5397Z" fill="white"/>
    <path d="M15.1079 69.5416L6.44678 74.54L6.94663 75.4062L15.6078 70.4077L15.1079 69.5416Z" fill="white"/>
    <path d="M29.5642 84.358L24.5657 93.0192L25.4318 93.519L30.4303 84.8579L29.5642 84.358Z" fill="white"/>
    <path d="M70.4299 84.3643L69.5638 84.8643L74.5638 93.5245L75.4299 93.0245L70.4299 84.3643Z" fill="white"/>
    <path d="M84.8857 69.5417L84.3857 70.4077L93.046 75.4077L93.546 74.5417L84.8857 69.5417Z" fill="white"/>
    <path d="M93.0496 24.5483L84.3884 29.5468L84.8883 30.4129L93.5494 25.4144L93.0496 24.5483Z" fill="white"/>
    <path d="M74.5626 6.41468L69.5641 15.0758L70.4302 15.5757L75.4287 6.91453L74.5626 6.41468Z" fill="white"/>
    <path d="M28.11 16.4901L22.66 8.11009L22.87 7.97009L28.32 16.3601L28.11 16.4901Z" fill="white"/>
    <path d="M5.50888 27.1642L5.39539 27.387L14.3055 31.9269L14.4189 31.7041L5.50888 27.1642Z" fill="white"/>
    <path d="M8.13 77.31L8 77.1L16.39 71.65L16.52 71.86L8.13 77.31Z" fill="white"/>
    <path d="M31.7269 85.5597L27.1917 94.4722L27.4145 94.5855L31.9497 85.6731L31.7269 85.5597Z" fill="white"/>
    <path d="M77.1301 91.9701L71.6801 83.5901L71.8901 83.4501L77.34 91.8401L77.1301 91.9701Z" fill="white"/>
    <path d="M85.7009 68.0244L85.5874 68.2472L94.4975 72.7871L94.611 72.5643L85.7009 68.0244Z" fill="white"/>
    <path d="M83.6101 28.29L83.4801 28.08L91.8701 22.64L92.0001 22.85L83.6101 28.29Z" fill="white"/>
    <path d="M72.5889 5.36539L68.0537 14.2778L68.2765 14.3912L72.8118 5.47877L72.5889 5.36539Z" fill="white"/>
    <path d="M26.39 17.6901L20.51 9.59007L20.71 9.45007L26.59 17.5401L26.39 17.6901Z" fill="white"/>
    <path d="M4.37305 29.5176L4.27136 29.746L13.4068 33.8133L13.5085 33.585L4.37305 29.5176Z" fill="white"/>
    <path d="M9.6201 79.46L9.4801 79.26L17.5701 73.38L17.7101 73.58L9.6201 79.46Z" fill="white"/>
    <path d="M33.6158 86.4513L29.5548 95.5896L29.7833 95.6911L33.8443 86.5528L33.6158 86.4513Z" fill="white"/>
    <path d="M79.29 90.5L73.41 82.41L73.61 82.26L79.49 90.35L79.29 90.5Z" fill="white"/>
    <path d="M86.5958 66.1356L86.4941 66.364L95.6296 70.4314L95.7313 70.203L86.5958 66.1356Z" fill="white"/>
    <path d="M82.43 26.56L82.29 26.36L90.38 20.48L90.52 20.68L82.43 26.56Z" fill="white"/>
    <path d="M70.2139 4.24562L66.153 13.3839L66.3814 13.4854L70.4424 4.34714L70.2139 4.24562Z" fill="white"/>
    <path d="M42.3025 0.572708L42.0555 0.611816L43.6199 10.4887L43.8668 10.4496L42.3025 0.572708Z" fill="white"/>
    <path d="M18.6328 11.036L18.4385 11.1934L24.7317 18.9648L24.926 18.8075L18.6328 11.036Z" fill="white"/>
    <path d="M3.37023 31.9476L3.28064 32.181L12.6164 35.7647L12.706 35.5313L3.37023 31.9476Z" fill="white"/>
    <path d="M10.4607 56.116L0.583252 57.6769L0.622274 57.9238L10.4997 56.3629L10.4607 56.116Z" fill="white"/>
    <path d="M18.8351 75.0582L11.0603 81.3473L11.2175 81.5417L18.9923 75.2525L18.8351 75.0582Z" fill="white"/>
    <path d="M35.5514 87.2684L31.9596 96.6011L32.1929 96.6909L35.7847 87.3582L35.5514 87.2684Z" fill="white"/>
    <path d="M56.3747 89.4674L56.1278 89.5065L57.6922 99.3834L57.9391 99.3442L56.3747 89.4674Z" fill="white"/>
    <path d="M75.2673 80.9812L75.073 81.1385L81.3662 88.91L81.5605 88.7527L75.2673 80.9812Z" fill="white"/>
    <path d="M87.3918 64.1863L87.3022 64.4197L96.6381 68.0034L96.7276 67.77L87.3918 64.1863Z" fill="white"/>
    <path d="M99.3633 42.0423L89.4858 43.6031L89.5249 43.8501L99.4023 42.2892L99.3633 42.0423Z" fill="white"/>
    <path d="M88.78 18.4157L81.0052 24.7048L81.1625 24.8992L88.9372 18.6101L88.78 18.4157Z" fill="white"/>
    <path d="M67.8056 3.24277L64.2137 12.5754L64.4471 12.6652L68.0389 3.33257L67.8056 3.24277Z" fill="white"/>
    <path d="M39.7287 1.0425L39.4841 1.09448L41.5632 10.876L41.8078 10.824L39.7287 1.0425Z" fill="white"/>
    <path d="M16.6355 12.7392L16.4497 12.9065L23.141 20.3379L23.3268 20.1707L16.6355 12.7392Z" fill="white"/>
    <path d="M2.49449 34.3999L2.41724 34.6377L11.9278 37.7279L12.0051 37.4901L2.49449 34.3999Z" fill="white"/>
    <path d="M10.8493 58.1655L1.06677 60.2395L1.11862 60.4841L10.9012 58.4101L10.8493 58.1655Z" fill="white"/>
    <path d="M20.1981 76.6476L12.7655 83.3376L12.9328 83.5235L20.3654 76.8335L20.1981 76.6476Z" fill="white"/>
    <path d="M37.5248 87.9791L34.433 97.4891L34.6707 97.5664L37.7626 88.0564L37.5248 87.9791Z" fill="white"/>
    <path d="M58.4423 89.0687L58.1978 89.1207L60.2769 98.9022L60.5214 98.8502L58.4423 89.0687Z" fill="white"/>
    <path d="M76.8566 79.609L76.6708 79.7762L83.3621 87.2077L83.5479 87.0404L76.8566 79.609Z" fill="white"/>
    <path d="M88.0821 62.2128L88.0049 62.4506L97.5154 65.5407L97.5927 65.303L88.0821 62.2128Z" fill="white"/>
    <path d="M89.1501 41.7801L89.1001 41.5301L98.8801 39.4601L98.9301 39.7001L89.1501 41.7801Z" fill="white"/>
    <path d="M87.0702 16.4256L79.6376 23.1156L79.8048 23.3014L87.2374 16.6114L87.0702 16.4256Z" fill="white"/>
    <path d="M65.3304 2.3762L62.2385 11.8862L62.4763 11.9635L65.5681 2.4535L65.3304 2.3762Z" fill="white"/>
    <path d="M37.1797 1.64928L36.9382 1.71399L39.5264 11.3732L39.7679 11.3085L37.1797 1.64928Z" fill="white"/>
    <path d="M14.7356 14.5213L14.5588 14.6981L21.6299 21.7692L21.8067 21.5924L14.7356 14.5213Z" fill="white"/>
    <path d="M1.73804 36.9134L1.67334 37.1549L11.3326 39.7431L11.3973 39.5016L1.73804 36.9134Z" fill="white"/>
    <path d="M11.3226 60.2096L1.6615 62.791L1.72604 63.0325L11.3871 60.4511L11.3226 60.2096Z" fill="white"/>
    <path d="M21.6301 78.1687L14.5591 85.2397L14.7359 85.4165L21.8069 78.3455L21.6301 78.1687Z" fill="white"/>
    <path d="M39.518 88.5769L36.9365 98.2379L37.1781 98.3025L39.7595 88.6414L39.518 88.5769Z" fill="white"/>
    <path d="M60.4752 88.5792L60.2338 88.6439L62.822 98.3032L63.0634 98.2385L60.4752 88.5792Z" fill="white"/>
    <path d="M78.3692 78.1684L78.1924 78.3452L85.2635 85.4163L85.4402 85.2395L78.3692 78.1684Z" fill="white"/>
    <path d="M88.6636 60.2033L88.5989 60.4448L98.2581 63.033L98.3228 62.7915L88.6636 60.2033Z" fill="white"/>
    <path d="M98.2636 36.9157L88.6025 39.4972L88.6671 39.7387L98.3281 37.1573L98.2636 36.9157Z" fill="white"/>
    <path d="M85.2702 14.5282L78.1991 21.5992L78.3759 21.776L85.4469 14.705L85.2702 14.5282Z" fill="white"/>
    <path d="M62.8191 1.63606L60.2377 11.2971L60.4792 11.3617L63.0606 1.70059L62.8191 1.63606Z" fill="white"/>
    <path d="M34.671 2.38075L34.4332 2.45801L37.5234 11.9686L37.7612 11.8913L34.671 2.38075Z" fill="white"/>
    <path d="M12.9242 16.4276L12.757 16.6134L20.1884 23.3047L20.3557 23.1189L12.9242 16.4276Z" fill="white"/>
    <path d="M1.12205 39.4493L1.07007 39.6938L10.8515 41.773L10.9035 41.5284L1.12205 39.4493Z" fill="white"/>
    <path d="M11.9127 62.2144L2.40271 65.3063L2.48001 65.544L11.99 62.4522L11.9127 62.2144Z" fill="white"/>
    <path d="M23.1378 79.6213L16.4478 87.054L16.6336 87.2212L23.3236 79.7886L23.1378 79.6213Z" fill="white"/>
    <path d="M41.555 89.0789L39.481 98.8615L39.7255 98.9133L41.7995 89.1307L41.555 89.0789Z" fill="white"/>
    <path d="M62.4786 87.9779L62.2408 88.0552L65.331 97.5657L65.5688 97.4885L62.4786 87.9779Z" fill="white"/>
    <path d="M79.8046 76.6338L79.6373 76.8196L87.0688 83.5109L87.2361 83.3251L79.8046 76.6338Z" fill="white"/>
    <path d="M98.8801 60.49L89.1001 58.41L89.1501 58.17L98.9301 60.25L98.8801 60.49Z" fill="white"/>
    <path d="M97.5202 34.401L88.0101 37.4928L88.0874 37.7305L97.5975 34.6387L97.5202 34.401Z" fill="white"/>
    <path d="M83.3657 12.7394L76.6757 20.172L76.8615 20.3392L83.5515 12.9066L83.3657 12.7394Z" fill="white"/>
    <path d="M60.2715 1.0386L58.1975 10.8212L58.4421 10.873L60.5161 1.09045L60.2715 1.0386Z" fill="white"/>
    <path d="M32.2025 3.24891L31.9691 3.3385L35.5528 12.6743L35.7862 12.5847L32.2025 3.24891Z" fill="white"/>
    <path d="M11.2137 18.4145L11.0564 18.6088L18.8279 24.902L18.9852 24.7077L11.2137 18.4145Z" fill="white"/>
    <path d="M0.631638 42.0236L0.592529 42.2705L10.4694 43.8349L10.5085 43.5879L0.631638 42.0236Z" fill="white"/>
    <path d="M12.6084 64.1819L3.27576 67.7737L3.36555 68.007L12.6982 64.4152L12.6084 64.1819Z" fill="white"/>
    <path d="M24.7349 80.9715L18.4458 88.7462L18.6402 88.9034L24.9293 81.1287L24.7349 80.9715Z" fill="white"/>
    <path d="M43.6103 89.4556L42.0494 99.333L42.2964 99.372L43.8573 89.4946L43.6103 89.4556Z" fill="white"/>
    <path d="M64.4506 87.271L64.2172 87.3606L67.8008 96.6964L68.0342 96.6068L64.4506 87.271Z" fill="white"/>
    <path d="M81.1622 75.0478L81.0049 75.2421L88.7763 81.5353L88.9337 81.341L81.1622 75.0478Z" fill="white"/>
    <path d="M89.5237 56.1105L89.4846 56.3574L99.3615 57.9218L99.4006 57.6748L89.5237 56.1105Z" fill="white"/>
    <path d="M96.628 31.9355L87.2953 35.5273L87.3851 35.7607L96.7178 32.1688L96.628 31.9355Z" fill="white"/>
    <path d="M81.3699 11.0291L75.0808 18.8038L75.2752 18.9611L81.5643 11.1863L81.3699 11.0291Z" fill="white"/>
    <path d="M57.6876 0.563367L56.1267 10.4408L56.3736 10.4798L57.9345 0.602389L57.6876 0.563367Z" fill="white"/>
    <path d="M29.779 4.24402L29.5507 4.3457L33.618 13.4812L33.8464 13.3795L29.779 4.24402Z" fill="white"/>
    <path d="M17.5701 26.56L9.4801 20.68L9.6201 20.48L17.7101 26.36L17.5701 26.56Z" fill="white"/>
    <path d="M13.4088 66.1368L4.27051 70.1978L4.37203 70.4262L13.5103 66.3652L13.4088 66.1368Z" fill="white"/>
    <path d="M20.71 90.5L20.51 90.35L26.39 82.26L26.59 82.41L20.71 90.5Z" fill="white"/>
    <path d="M66.3859 86.4551L66.1575 86.5568L70.2248 95.6922L70.4532 95.5905L66.3859 86.4551Z" fill="white"/>
    <path d="M90.38 79.46L82.29 73.58L82.43 73.38L90.52 79.26L90.38 79.46Z" fill="white"/>
    <path d="M95.6266 29.522L86.4883 33.583L86.5898 33.8115L95.7281 29.7505L95.6266 29.522Z" fill="white"/>
    <path d="M73.61 17.6901L73.41 17.5401L79.29 9.45007L79.49 9.59007L73.61 17.6901Z" fill="white"/>
    <path d="M27.4184 5.36465L27.1957 5.47815L31.7356 14.3882L31.9583 14.2747L27.4184 5.36465Z" fill="white"/>
    <path d="M16.39 28.29L8 22.85L8.13 22.64L16.52 28.08L16.39 28.29Z" fill="white"/>
    <path d="M14.3032 68.0292L5.39075 72.5645L5.50413 72.7873L14.4166 68.252L14.3032 68.0292Z" fill="white"/>
    <path d="M22.87 91.9701L22.66 91.8401L28.11 83.4501L28.32 83.5901L22.87 91.9701Z" fill="white"/>
    <path d="M68.2716 85.559L68.0488 85.6725L72.5887 94.5826L72.8115 94.4691L68.2716 85.559Z" fill="white"/>
    <path d="M91.8701 77.31L83.4801 71.86L83.6101 71.65L92.0001 77.1L91.8701 77.31Z" fill="white"/>
    <path d="M94.5001 27.1603L85.5876 31.6956L85.701 31.9184L94.6135 27.3831L94.5001 27.1603Z" fill="white"/>
    <path d="M71.8901 16.4901L71.6801 16.3601L77.1301 7.97009L77.34 8.11009L71.8901 16.4901Z" fill="white"/>
    <path d="M99.07 49.88V50.72H90.91V49.88H94.47V48.98H91.92V45.92H98.07V46.74H92.94V48.15H98.13V48.98H95.5V49.88H99.07ZM98.08 52.9C98.08 53.95 96.91 54.55 94.97 54.55C93.03 54.55 91.86 53.95 91.86 52.9C91.86 51.85 93.04 51.26 94.97 51.26C96.9 51.26 98.08 51.86 98.08 52.9ZM97.04 52.9C97.04 52.35 96.29 52.05 94.97 52.05C93.65 52.05 92.91 52.35 92.91 52.9C92.91 53.45 93.65 53.75 94.97 53.75C96.29 53.75 97.04 53.46 97.04 52.9Z" fill="white"/>
    <path d="M4.17998 47.74C4.17998 49.42 5.03998 51.06 6.41998 51.7L5.80998 52.53C4.78998 52.02 4.05998 51.03 3.66998 49.82C3.26998 51.1 2.52998 52.15 1.49998 52.68L0.849976 51.86C2.25998 51.17 3.13998 49.43 3.13998 47.74V46.25H4.17998V47.74ZM8.40998 45.5V54.56H7.36998V49.31H5.43998V48.47H7.36998V45.5H8.40998Z" fill="white"/>
    <path d="M51.2299 94.63C49.7199 94.93 48.3599 95.02 47.0399 95.02H46.3099V90.95H47.3399V94.17C48.5199 94.15 49.7699 94.06 51.0999 93.79L51.2299 94.63ZM47.1899 96.07H52.9599V99.43H47.1899V96.07ZM48.1999 98.6H51.9499V96.89H48.1999V98.6ZM54.2399 93.36H52.9599V95.61H51.9299V90.51H52.9599V92.51H54.2399V93.36Z" fill="white"/>
    <path d="M50.49 5.70999V6.62999H53.07V9.53999H52.04V7.44999H46.81V6.62999H49.46V5.70999H45.89V4.87999H54.08V5.70999H50.49ZM53.02 4.14999H46.96V0.73999H47.98V1.65999H52V0.73999H53.02V4.15999V4.14999ZM52 2.44999H47.98V3.33999H52V2.44999Z" fill="white"/>
    </g>
    <defs>
    <clipPath id="clip0_339_1420">
    <rect width="100" height="100" fill="white"/>
    </clipPath>
    </defs>
</svg>
    