<svg width="30" height="30" viewBox="0 0 30 30" fill="none" xmlns="http://www.w3.org/2000/svg">
    <path d="M6.875 24.375H11.5625V17.5C11.5625 17.2344 11.6524 17.0117 11.8322 16.8319C12.0118 16.6523 12.2344 16.5625 12.5 16.5625H17.5C17.7656 16.5625 17.9883 16.6523 18.1681 16.8319C18.3477 17.0117 18.4375 17.2344 18.4375 17.5V24.375H23.125V12.1875L15 6.09375L6.875 12.1875V24.375ZM5 24.375V12.1875C5 11.8906 5.06646 11.6094 5.19938 11.3438C5.33208 11.0781 5.51562 10.8594 5.75 10.6875L13.875 4.59375C14.2017 4.34375 14.575 4.21875 14.995 4.21875C15.415 4.21875 15.7917 4.34375 16.125 4.59375L24.25 10.6875C24.4844 10.8594 24.668 11.0781 24.8009 11.3438C24.9336 11.6094 25 11.8906 25 12.1875V24.375C25 24.8906 24.8165 25.332 24.4494 25.6991C24.0821 26.0664 23.6406 26.25 23.125 26.25H17.5C17.2344 26.25 17.0118 26.1601 16.8322 25.9803C16.6524 25.8007 16.5625 25.5781 16.5625 25.3125V18.4375H13.4375V25.3125C13.4375 25.5781 13.3477 25.8007 13.1681 25.9803C12.9883 26.1601 12.7656 26.25 12.5 26.25H6.875C6.35938 26.25 5.91802 26.0664 5.55094 25.6991C5.18365 25.332 5 24.8906 5 24.375Z" fill="#999999"/>
</svg>
    