<svg width="33" height="33" viewBox="0 0 33 33" fill="none" xmlns="http://www.w3.org/2000/svg">
    <path d="M27 25.6321L20.1359 18.7685C23.2447 14.9752 23.0287 9.36918 19.4863 5.82701C17.6014 3.94234 15.1294 3 12.6574 3C10.1853 3 7.71488 3.94234 5.82845 5.82861C2.05718 9.59956 2.05718 15.7144 5.82845 19.4869C7.71488 21.3732 10.1869 22.3155 12.6574 22.3155C14.827 22.3155 16.9966 21.5892 18.7695 20.1365L25.6336 27L27 25.6337V25.6321ZM7.19487 18.1206C4.18202 15.108 4.18202 10.2059 7.19487 7.19492C8.65409 5.73582 10.5949 4.93267 12.659 4.93267C14.723 4.93267 16.6638 5.73582 18.1231 7.19492C21.1359 10.2075 21.1359 15.1096 18.1231 18.1206C16.6638 19.5797 14.723 20.3828 12.659 20.3828C10.5949 20.3828 8.65409 19.5797 7.19487 18.1206Z" fill="#999999"/>
</svg>
    