<svg width="30" height="30" viewBox="0 0 30 30" fill="none" xmlns="http://www.w3.org/2000/svg">
    <path d="M13.1562 27.5C12.8645 27.5 12.6041 27.4062 12.375 27.2188C12.1458 27.0312 12.0104 26.7917 11.9687 26.5L11.5 23.5625C11.1041 23.4167 10.6875 23.2188 10.25 22.9688C9.81246 22.7188 9.42705 22.4583 9.09371 22.1875L6.40621 23.4375C6.11455 23.5625 5.82288 23.5781 5.53121 23.4844C5.23955 23.3906 5.01038 23.2083 4.84371 22.9375L3.03121 19.6875C2.86455 19.4167 2.81767 19.1354 2.89059 18.8438C2.9635 18.5521 3.12496 18.3125 3.37496 18.125L5.87496 16.2812C5.8333 16.0938 5.80725 15.8802 5.79684 15.6406C5.78642 15.401 5.78121 15.1875 5.78121 15C5.78121 14.8125 5.78642 14.599 5.79684 14.3594C5.80725 14.1198 5.8333 13.9062 5.87496 13.7188L3.37496 11.875C3.12496 11.6875 2.9635 11.4479 2.89059 11.1562C2.81767 10.8646 2.86455 10.5833 3.03121 10.3125L4.84371 7.0625C5.01038 6.79167 5.23955 6.60938 5.53121 6.51562C5.82288 6.42188 6.11455 6.4375 6.40621 6.5625L9.09371 7.8125C9.42705 7.54167 9.81246 7.28125 10.25 7.03125C10.6875 6.78125 11.1041 6.59375 11.5 6.46875L11.9687 3.5C12.0104 3.20833 12.1458 2.96875 12.375 2.78125C12.6041 2.59375 12.8645 2.5 13.1562 2.5H16.8437C17.1354 2.5 17.3958 2.59375 17.625 2.78125C17.8541 2.96875 17.9895 3.20833 18.0312 3.5L18.5 6.4375C18.8958 6.58333 19.3177 6.77604 19.7656 7.01562C20.2135 7.25521 20.5937 7.52083 20.9062 7.8125L23.5937 6.5625C23.8854 6.4375 24.1718 6.42188 24.4531 6.51562C24.7343 6.60938 24.9583 6.79167 25.125 7.0625L26.9687 10.3125C27.1354 10.5833 27.1823 10.8698 27.1093 11.1719C27.0364 11.474 26.875 11.7083 26.625 11.875L24.125 13.6562C24.1666 13.8646 24.1927 14.0885 24.2031 14.3281C24.2135 14.5677 24.2187 14.7917 24.2187 15C24.2187 15.2083 24.2135 15.4271 24.2031 15.6562C24.1927 15.8854 24.1666 16.1042 24.125 16.3125L26.625 18.125C26.875 18.2917 27.0364 18.526 27.1093 18.8281C27.1823 19.1302 27.1354 19.4167 26.9687 19.6875L25.1562 22.9375C24.9895 23.2083 24.7604 23.3906 24.4687 23.4844C24.177 23.5781 23.8854 23.5625 23.5937 23.4375L20.9062 22.1875C20.5729 22.4583 20.1927 22.724 19.7656 22.9844C19.3385 23.2448 18.9166 23.4375 18.5 23.5625L18.0312 26.5C17.9895 26.7917 17.8541 27.0312 17.625 27.2188C17.3958 27.4062 17.1354 27.5 16.8437 27.5H13.1562ZM13.625 25.625H16.375L16.8125 22.125C17.5 21.9583 18.151 21.6979 18.7656 21.3438C19.3802 20.9896 19.9375 20.5625 20.4375 20.0625L23.75 21.5L25 19.25L22.0625 17.0938C22.1458 16.7396 22.2135 16.3906 22.2656 16.0469C22.3177 15.7031 22.3437 15.3542 22.3437 15C22.3437 14.6458 22.3229 14.2969 22.2812 13.9531C22.2395 13.6094 22.1666 13.2604 22.0625 12.9062L25 10.75L23.75 8.5L20.4375 9.9375C19.9583 9.39583 19.4166 8.94271 18.8125 8.57812C18.2083 8.21354 17.5416 7.97917 16.8125 7.875L16.375 4.375H13.625L13.1875 7.875C12.4791 8.02083 11.8177 8.27083 11.2031 8.625C10.5885 8.97917 10.0416 9.41667 9.56246 9.9375L6.24996 8.5L4.99996 10.75L7.93746 12.9062C7.85413 13.2604 7.78642 13.6094 7.73434 13.9531C7.68225 14.2969 7.65621 14.6458 7.65621 15C7.65621 15.3542 7.68225 15.7031 7.73434 16.0469C7.78642 16.3906 7.85413 16.7396 7.93746 17.0938L4.99996 19.25L6.24996 21.5L9.56246 20.0625C10.0625 20.5625 10.6198 20.9896 11.2343 21.3438C11.8489 21.6979 12.5 21.9583 13.1875 22.125L13.625 25.625ZM15 19.0625C16.125 19.0625 17.0833 18.6667 17.875 17.875C18.6666 17.0833 19.0625 16.125 19.0625 15C19.0625 13.875 18.6666 12.9167 17.875 12.125C17.0833 11.3333 16.125 10.9375 15 10.9375C13.875 10.9375 12.9166 11.3333 12.125 12.125C11.3333 12.9167 10.9375 13.875 10.9375 15C10.9375 16.125 11.3333 17.0833 12.125 17.875C12.9166 18.6667 13.875 19.0625 15 19.0625Z" fill="#999999"/>
</svg>
    