<svg width="26" height="26" viewBox="0 0 26 26" fill="none" xmlns="http://www.w3.org/2000/svg">
    <path d="M6.8862 5.19399C5.73318 6.10161 4.81285 7.2246 4.12521 8.56298C3.43756 9.90135 3.0875 11.3622 3.07503 12.9455C3.05616 15.3412 3.76886 17.4354 5.21311 19.2281C6.65737 21.0208 8.492 22.1863 10.717 22.7247C11.0288 22.8105 11.2774 22.9948 11.4627 23.2775C11.6479 23.5602 11.7393 23.8682 11.7366 24.2015C11.734 24.5349 11.6172 24.8152 11.3863 25.0426C11.1553 25.2699 10.8942 25.3512 10.6031 25.2864C7.69075 24.7218 5.28528 23.2913 3.38664 20.995C1.488 18.6988 0.550824 16.009 0.575109 12.9258C0.590041 11.03 0.984021 9.28305 1.75705 7.68492C2.53008 6.08679 3.57733 4.72 4.89882 3.58454L3.14887 3.57076C2.79472 3.56797 2.49879 3.44584 2.2611 3.20438C2.02342 2.96291 1.90597 2.66511 1.90876 2.31095C1.91154 1.95679 2.03367 1.66087 2.27513 1.42318C2.5166 1.18549 2.81441 1.06804 3.16856 1.07083L8.16841 1.11021C8.52256 1.113 8.81848 1.23513 9.05617 1.47659C9.29386 1.71806 9.41131 2.01587 9.40852 2.37002L9.36914 7.36987C9.36635 7.72402 9.24423 8.01994 9.00276 8.25763C8.7613 8.49532 8.46349 8.61277 8.10933 8.60998C7.75518 8.60719 7.45926 8.48507 7.22157 8.2436C6.98388 8.00214 6.86643 7.70433 6.86922 7.35018L6.8862 5.19399ZM11.2761 15.2289L17.5436 9.0593C17.7956 8.81128 18.0882 8.69379 18.4214 8.70683C18.7546 8.71987 19.0453 8.85237 19.2933 9.10433C19.5205 9.35613 19.638 9.64873 19.6458 9.98214C19.6536 10.3155 19.5315 10.6063 19.2795 10.8543L12.1301 17.8919C11.8781 18.14 11.5855 18.2627 11.2522 18.26C10.9189 18.2574 10.6282 18.1301 10.3802 17.8782L6.87708 14.288C6.64972 14.057 6.53219 13.7696 6.52448 13.4258C6.51677 13.082 6.6389 12.786 6.89086 12.538C7.12182 12.3107 7.41438 12.1984 7.76854 12.2012C8.12269 12.2039 8.41345 12.3208 8.6408 12.5518L11.2761 15.2289ZM21.2506 22.4639L23.0006 22.4777C23.3547 22.4805 23.6506 22.6026 23.8883 22.8441C24.126 23.0855 24.2435 23.3834 24.2407 23.7375C24.2379 24.0917 24.1158 24.3876 23.8743 24.6253C23.6328 24.863 23.335 24.9804 22.9809 24.9776L17.981 24.9382C17.6269 24.9355 17.331 24.8133 17.0933 24.5719C16.8556 24.3304 16.7381 24.0326 16.7409 23.6784L16.7803 18.6786C16.7831 18.3244 16.9052 18.0285 17.1467 17.7908C17.3881 17.5531 17.686 17.4357 18.0401 17.4385C18.3943 17.4413 18.6902 17.5634 18.9279 17.8049C19.1656 18.0463 19.283 18.3441 19.2802 18.6983L19.2632 20.8545C20.4164 19.926 21.3368 18.7978 22.0244 17.4699C22.7119 16.1419 23.0619 14.6863 23.0744 13.103C23.0933 10.7072 22.3806 8.61301 20.9363 6.82033C19.4921 5.02765 17.6574 3.86212 15.4324 3.32375C15.1206 3.23795 14.8721 3.0537 14.6868 2.77098C14.5015 2.48826 14.4102 2.18024 14.4128 1.84692C14.4154 1.5136 14.5322 1.23326 14.7632 1.0059C14.9941 0.778549 15.2552 0.697269 15.5464 0.762065C18.4587 1.32669 20.8642 2.75714 22.7628 5.05341C24.6614 7.34969 25.5986 10.0394 25.5743 13.1227C25.5594 15.0185 25.1654 16.7654 24.3924 18.3635C23.6194 19.9617 22.5721 21.3285 21.2506 22.4639Z" fill="#999999"/>
</svg>
    