<svg width="32" height="32" viewBox="0 0 32 32" fill="none" xmlns="http://www.w3.org/2000/svg">
    <path d="M7.23057 28.431C6.54309 28.4256 5.95649 28.1762 5.47078 27.6828C4.98507 27.1893 4.74492 26.5989 4.75034 25.9114L4.88817 8.41195C4.89358 7.72448 5.143 7.13788 5.63643 6.65217C6.12985 6.16646 6.7203 5.92631 7.40778 5.93172L8.65774 5.94157L8.66759 4.69161C8.67038 4.33745 8.79251 4.04153 9.03397 3.80384C9.27543 3.56615 9.57324 3.4487 9.9274 3.45149C10.2816 3.45428 10.5775 3.57641 10.8152 3.81787C11.0529 4.05933 11.1703 4.35714 11.1675 4.7113L11.1577 5.96126L21.1574 6.04002L21.1672 4.79006C21.17 4.4359 21.2921 4.13998 21.5336 3.90229C21.775 3.6646 22.0729 3.54715 22.427 3.54994C22.7812 3.55273 23.0771 3.67486 23.3148 3.91632C23.5525 4.15779 23.6699 4.45559 23.6671 4.80975L23.6573 6.05971L24.9072 6.06956C25.5947 6.07497 26.1813 6.32439 26.667 6.81782C27.1527 7.31124 27.3929 7.90169 27.3875 8.58917L27.2496 26.0886C27.2442 26.7761 26.9948 27.3627 26.5014 27.8484C26.008 28.3341 25.4175 28.5743 24.73 28.5689L7.23057 28.431ZM7.25026 25.9311L24.7497 26.0689L24.8482 13.5693L7.34871 13.4315L7.25026 25.9311ZM7.3684 10.9316L24.8679 11.0694L24.8876 8.56948L7.38809 8.43165L7.3684 10.9316ZM11.0592 18.4609C10.7051 18.4581 10.4091 18.336 10.1714 18.0945C9.93376 17.853 9.81631 17.5552 9.8191 17.2011C9.82189 16.8469 9.94401 16.551 10.1855 16.3133C10.4269 16.0756 10.7247 15.9582 11.0789 15.9609L21.0786 16.0397C21.4327 16.0425 21.7287 16.1646 21.9664 16.4061C22.2041 16.6476 22.3215 16.9454 22.3187 17.2995C22.3159 17.6537 22.1938 17.9496 21.9523 18.1873C21.7109 18.425 21.4131 18.5424 21.0589 18.5396L11.0592 18.4609ZM11.0198 23.4607C10.6657 23.4579 10.3698 23.3358 10.1321 23.0943C9.89438 22.8529 9.77693 22.5551 9.77972 22.2009C9.78251 21.8468 9.90463 21.5508 10.1461 21.3131C10.3876 21.0755 10.6854 20.958 11.0395 20.9608L17.2893 21.01C17.6435 21.0128 17.9394 21.1349 18.1771 21.3764C18.4148 21.6179 18.5322 21.9157 18.5294 22.2698C18.5267 22.624 18.4045 22.9199 18.1631 23.1576C17.9216 23.3953 17.6238 23.5127 17.2696 23.5099L11.0198 23.4607Z" fill="#999999"/>
</svg>
