<svg width="32" height="32" viewBox="0 0 32 32" fill="none" xmlns="http://www.w3.org/2000/svg">
    <path d="M17.3268 16.7362L17.3623 12.2364C17.3651 11.8822 17.2476 11.5844 17.0099 11.3429C16.7722 11.1015 16.4763 10.9794 16.1221 10.9766C15.768 10.9738 15.4702 11.0912 15.2287 11.3289C14.9873 11.5666 14.8651 11.8625 14.8623 12.2167L14.8232 17.1853C14.8219 17.3519 14.8519 17.5136 14.9131 17.6704C14.9744 17.8271 15.067 17.9685 15.1911 18.0945L18.6634 21.6219C18.8907 21.8529 19.1815 21.9698 19.5356 21.9725C19.8898 21.9753 20.1824 21.863 20.4133 21.6357C20.6443 21.4083 20.7612 21.1176 20.764 20.7634C20.7667 20.4093 20.6545 20.1167 20.4271 19.8857L17.3268 16.7362ZM15.9843 28.476C14.4219 28.4637 12.9607 28.1553 11.6008 27.5508C10.241 26.9464 9.05982 26.135 8.0574 25.1166C7.05497 24.0983 6.26227 22.9045 5.67928 21.5353C5.0963 20.166 4.81096 18.7002 4.82327 17.1378C4.83557 15.5753 5.14396 14.1142 5.74844 12.7543C6.35292 11.3944 7.16434 10.2133 8.18268 9.21085C9.20102 8.20842 10.3948 7.41572 11.764 6.83274C13.1332 6.24975 14.5991 5.96441 16.1615 5.97672C17.724 5.98903 19.1851 6.29742 20.545 6.9019C21.9049 7.50638 23.086 8.31779 24.0884 9.33613C25.0909 10.3545 25.8836 11.5483 26.4666 12.9175C27.0495 14.2867 27.3349 15.7525 27.3226 17.315C27.3103 18.8774 27.0019 20.3386 26.3974 21.6985C25.7929 23.0583 24.9815 24.2395 23.9632 25.2419C22.9448 26.2443 21.751 27.037 20.3818 27.62C19.0126 28.203 17.5468 28.4883 15.9843 28.476ZM3.69192 10.0036C3.46457 9.77267 3.35228 9.48011 3.35507 9.12595C3.35786 8.77179 3.47474 8.48104 3.7057 8.25369L7.29615 4.71935C7.52712 4.492 7.81968 4.37972 8.17383 4.38251C8.52799 4.3853 8.81874 4.50217 9.0461 4.73314C9.27345 4.9641 9.38574 5.25666 9.38295 5.61082C9.38016 5.96497 9.26328 6.25573 9.03231 6.48308L5.44187 10.0174C5.2109 10.2448 4.91834 10.3571 4.56419 10.3543C4.21003 10.3515 3.91927 10.2346 3.69192 10.0036ZM28.5662 10.1996C28.3352 10.4269 28.0426 10.5392 27.6885 10.5364C27.3343 10.5336 27.0436 10.4167 26.8162 10.1858L23.2819 6.59532C23.0545 6.36436 22.9422 6.0718 22.945 5.71764C22.9478 5.36348 23.0647 5.07273 23.2957 4.84537C23.5266 4.61802 23.8192 4.50574 24.1733 4.50853C24.5275 4.51132 24.8182 4.62819 25.0456 4.85916L28.5799 8.44961C28.8073 8.68057 28.9196 8.97313 28.9168 9.32729C28.914 9.68144 28.7971 9.9722 28.5662 10.1996ZM16.004 25.9761C18.4414 25.9953 20.5158 25.1627 22.227 23.4782C23.9382 21.7937 24.8034 19.7327 24.8226 17.2953C24.8418 14.8579 24.0092 12.7835 22.3247 11.0723C20.6402 9.36106 18.5793 8.49584 16.1418 8.47664C13.7044 8.45744 11.6301 9.29009 9.91884 10.9746C8.2076 12.6591 7.34239 14.72 7.32319 17.1575C7.30399 19.5949 8.13664 21.6692 9.82113 23.3804C11.5056 25.0917 13.5666 25.9569 16.004 25.9761Z" fill="#999999"/>
</svg>
    